<?xml version="1.0" encoding="UTF-8" standalone="no"?>
<svg
   version="1.1"
   width="612pt"
   height="792pt"
   id="svg168"
   viewBox="0 0 612 792"
   sodipodi:docname="DPRGRobot2024.svg"
   inkscape:version="1.3 (0e150ed6c4, 2023-07-21)"
   xmlns:inkscape="http://www.inkscape.org/namespaces/inkscape"
   xmlns:sodipodi="http://sodipodi.sourceforge.net/DTD/sodipodi-0.dtd"
   xmlns="http://www.w3.org/2000/svg"
   xmlns:svg="http://www.w3.org/2000/svg">
  <defs
     id="defs172" />
  <sodipodi:namedview
     id="namedview170"
     pagecolor="#ffffff"
     bordercolor="#000000"
     borderopacity="0.25"
     inkscape:showpageshadow="2"
     inkscape:pageopacity="0.0"
     inkscape:pagecheckerboard="0"
     inkscape:deskcolor="#d1d1d1"
     inkscape:document-units="pt"
     inkscape:zoom="1.0887837"
     inkscape:cx="407.33525"
     inkscape:cy="260.38229"
     inkscape:window-width="1619"
     inkscape:window-height="833"
     inkscape:window-x="272"
     inkscape:window-y="60"
     inkscape:window-maximized="0"
     inkscape:current-layer="svg168" />
  <path
     d="m 72.050433,53.825124 c 0.972,-1.242 14.904,3.348 19.71,3.294 4.806,0 17.117797,-4.428 17.657797,-3.24 0.486,1.188 -14.093797,14.418 -17.819797,14.364 -3.78,0 -20.52,-13.122 -19.548,-14.418 z"
     style="fill:none;stroke:#009ee0;stroke-width:0.216;stroke-linecap:butt;stroke-linejoin:miter;stroke-dasharray:none"
     id="path2" />
  <path
     d="M 72.050433,53.825124 Z"
     style="fill:none;stroke:#009ee0;stroke-width:0.216;stroke-linecap:butt;stroke-linejoin:miter;stroke-dasharray:none"
     id="path4" />
  <path
     d="m 71.888433,125.86112 h 2.214"
     style="fill:none;stroke:#009ee0;stroke-width:0.216;stroke-linecap:butt;stroke-linejoin:miter;stroke-dasharray:none"
     id="path6" />
  <path
     d="m 74.102433,125.86112 c 1.134,0 1.998,-0.27 2.484,-0.81 0.486,-0.54 0.702,-1.458 0.702,-2.7 0,-1.134 -0.216,-1.944 -0.594,-2.538 -0.432,-0.54 -1.026,-0.864 -1.782,-0.864"
     style="fill:none;stroke:#009ee0;stroke-width:0.216;stroke-linecap:butt;stroke-linejoin:miter;stroke-dasharray:none"
     id="path8" />
  <path
     d="m 74.912433,118.94912 h -3.024 v 6.912 0 0"
     style="fill:none;stroke:#009ee0;stroke-width:0.216;stroke-linecap:butt;stroke-linejoin:miter;stroke-dasharray:none"
     id="path10" />
  <path
     d="m 70.160433,127.91312 v -10.854 h 4.698"
     style="fill:none;stroke:#009ee0;stroke-width:0.216;stroke-linecap:butt;stroke-linejoin:miter;stroke-dasharray:none"
     id="path12" />
  <path
     d="m 74.858433,117.05912 c 1.35,0 2.376,0.432 3.132,1.35 0.702,0.972 1.08,2.268 1.08,3.996 0,1.026 -0.162,1.944 -0.432,2.754 -0.27,0.81 -0.702,1.404 -1.188,1.89 -0.324,0.27 -0.702,0.486 -1.188,0.648 -0.486,0.108 -1.08,0.216 -1.836,0.216"
     style="fill:none;stroke:#009ee0;stroke-width:0.216;stroke-linecap:butt;stroke-linejoin:miter;stroke-dasharray:none"
     id="path14" />
  <path
     d="m 74.426433,127.91312 h -4.266 v 0"
     style="fill:none;stroke:#009ee0;stroke-width:0.216;stroke-linecap:butt;stroke-linejoin:miter;stroke-dasharray:none"
     id="path16" />
  <path
     d="m 87.656433,118.89512 h -3.834 v 2.916 h 3.834"
     style="fill:none;stroke:#009ee0;stroke-width:0.216;stroke-linecap:butt;stroke-linejoin:miter;stroke-dasharray:none"
     id="path18" />
  <path
     d="m 87.656433,121.81112 c 0.324,0 0.486,-0.108 0.594,-0.216 0.108,-0.108 0.162,-0.324 0.162,-0.648"
     style="fill:none;stroke:#009ee0;stroke-width:0.216;stroke-linecap:butt;stroke-linejoin:miter;stroke-dasharray:none"
     id="path20" />
  <path
     d="m 88.412433,120.94712 v -1.188"
     style="fill:none;stroke:#009ee0;stroke-width:0.216;stroke-linecap:butt;stroke-linejoin:miter;stroke-dasharray:none"
     id="path22" />
  <path
     d="m 88.412433,119.75912 c 0,-0.324 -0.054,-0.54 -0.162,-0.648 -0.108,-0.162 -0.27,-0.216 -0.594,-0.216"
     style="fill:none;stroke:#009ee0;stroke-width:0.216;stroke-linecap:butt;stroke-linejoin:miter;stroke-dasharray:none"
     id="path24" />
  <path
     d="M 87.656433,118.89512 Z"
     style="fill:none;stroke:#009ee0;stroke-width:0.216;stroke-linecap:butt;stroke-linejoin:miter;stroke-dasharray:none"
     id="path26" />
  <path
     d="m 82.148433,127.91312 v -10.854 h 6.264"
     style="fill:none;stroke:#009ee0;stroke-width:0.216;stroke-linecap:butt;stroke-linejoin:miter;stroke-dasharray:none"
     id="path28" />
  <path
     d="m 88.412433,117.05912 c 0.594,0 1.026,0.162 1.296,0.486 0.216,0.324 0.378,0.864 0.378,1.566"
     style="fill:none;stroke:#009ee0;stroke-width:0.216;stroke-linecap:butt;stroke-linejoin:miter;stroke-dasharray:none"
     id="path30" />
  <path
     d="m 90.086433,119.11112 v 2.43"
     style="fill:none;stroke:#009ee0;stroke-width:0.216;stroke-linecap:butt;stroke-linejoin:miter;stroke-dasharray:none"
     id="path32" />
  <path
     d="m 90.086433,121.54112 c 0,0.756 -0.162,1.296 -0.378,1.62 -0.27,0.324 -0.702,0.486 -1.296,0.486"
     style="fill:none;stroke:#009ee0;stroke-width:0.216;stroke-linecap:butt;stroke-linejoin:miter;stroke-dasharray:none"
     id="path34" />
  <path
     d="m 88.412433,123.64712 h -4.59 v 4.266 h -1.674 v 0"
     style="fill:none;stroke:#009ee0;stroke-width:0.216;stroke-linecap:butt;stroke-linejoin:miter;stroke-dasharray:none"
     id="path36" />
  <path
     d="m 98.132533,118.89512 h -3.8341 v 3.024 h 3.8341"
     style="fill:none;stroke:#009ee0;stroke-width:0.216;stroke-linecap:butt;stroke-linejoin:miter;stroke-dasharray:none"
     id="path38" />
  <path
     d="m 98.132533,121.91912 c 0.324,0 0.486,-0.054 0.594,-0.162 0.108,-0.162 0.162,-0.378 0.162,-0.702"
     style="fill:none;stroke:#009ee0;stroke-width:0.216;stroke-linecap:butt;stroke-linejoin:miter;stroke-dasharray:none"
     id="path40" />
  <path
     d="m 98.888533,121.05512 v -1.296"
     style="fill:none;stroke:#009ee0;stroke-width:0.216;stroke-linecap:butt;stroke-linejoin:miter;stroke-dasharray:none"
     id="path42" />
  <path
     d="m 98.888533,119.75912 c 0,-0.324 -0.054,-0.54 -0.162,-0.648 -0.108,-0.162 -0.27,-0.216 -0.594,-0.216"
     style="fill:none;stroke:#009ee0;stroke-width:0.216;stroke-linecap:butt;stroke-linejoin:miter;stroke-dasharray:none"
     id="path44" />
  <path
     d="M 98.132533,118.89512 Z"
     style="fill:none;stroke:#009ee0;stroke-width:0.216;stroke-linecap:butt;stroke-linejoin:miter;stroke-dasharray:none"
     id="path46" />
  <path
     d="m 92.678433,127.91312 v -10.854 h 6.2101"
     style="fill:none;stroke:#009ee0;stroke-width:0.216;stroke-linecap:butt;stroke-linejoin:miter;stroke-dasharray:none"
     id="path48" />
  <path
     d="m 98.888533,117.05912 c 0.594,0 1.026,0.162 1.241697,0.486 0.27,0.324 0.432,0.864 0.432,1.566"
     style="fill:none;stroke:#009ee0;stroke-width:0.216;stroke-linecap:butt;stroke-linejoin:miter;stroke-dasharray:none"
     id="path50" />
  <path
     d="m 100.56223,119.11112 v 2.592"
     style="fill:none;stroke:#009ee0;stroke-width:0.216;stroke-linecap:butt;stroke-linejoin:miter;stroke-dasharray:none"
     id="path52" />
  <path
     d="m 100.56223,121.70312 c 0,0.702 -0.162,1.242 -0.432,1.566 -0.215697,0.378 -0.647697,0.54 -1.241697,0.54"
     style="fill:none;stroke:#009ee0;stroke-width:0.216;stroke-linecap:butt;stroke-linejoin:miter;stroke-dasharray:none"
     id="path54" />
  <path
     d="m 98.888533,123.80912 h -0.972 l 3.401697,4.104 h -2.429697 l -2.9701,-4.104 h -1.62 v 4.104 h -1.62 v 0"
     style="fill:none;stroke:#009ee0;stroke-width:0.216;stroke-linecap:butt;stroke-linejoin:miter;stroke-dasharray:none"
     id="path56" />
  <path
     d="m 110.87623,118.94912 h -5.346 v 6.912 h 5.346 v -2.43 h -2.808 v -1.836 h 4.428 v 3.726"
     style="fill:none;stroke:#009ee0;stroke-width:0.216;stroke-linecap:butt;stroke-linejoin:miter;stroke-dasharray:none"
     id="path58" />
  <path
     d="m 112.49623,125.32112 c 0,0.972 -0.108,1.674 -0.378,2.052 -0.216,0.324 -0.702,0.54 -1.404,0.54"
     style="fill:none;stroke:#009ee0;stroke-width:0.216;stroke-linecap:butt;stroke-linejoin:miter;stroke-dasharray:none"
     id="path60" />
  <path
     d="m 110.71423,127.91312 h -5.076"
     style="fill:none;stroke:#009ee0;stroke-width:0.216;stroke-linecap:butt;stroke-linejoin:miter;stroke-dasharray:none"
     id="path62" />
  <path
     d="m 105.63823,127.91312 c -0.702,0 -1.188,-0.216 -1.404,-0.54 -0.27,-0.378 -0.378,-1.08 -0.378,-2.052"
     style="fill:none;stroke:#009ee0;stroke-width:0.216;stroke-linecap:butt;stroke-linejoin:miter;stroke-dasharray:none"
     id="path64" />
  <path
     d="m 103.85623,125.32112 v -5.724"
     style="fill:none;stroke:#009ee0;stroke-width:0.216;stroke-linecap:butt;stroke-linejoin:miter;stroke-dasharray:none"
     id="path66" />
  <path
     d="m 103.85623,119.59712 c 0,-0.972 0.108,-1.674 0.378,-1.998 0.216,-0.378 0.702,-0.54 1.404,-0.54"
     style="fill:none;stroke:#009ee0;stroke-width:0.216;stroke-linecap:butt;stroke-linejoin:miter;stroke-dasharray:none"
     id="path68" />
  <path
     d="m 105.63823,117.05912 h 5.076"
     style="fill:none;stroke:#009ee0;stroke-width:0.216;stroke-linecap:butt;stroke-linejoin:miter;stroke-dasharray:none"
     id="path70" />
  <path
     d="m 110.71423,117.05912 c 0.702,0 1.188,0.162 1.404,0.486 0.27,0.378 0.378,1.026 0.378,1.944"
     style="fill:none;stroke:#009ee0;stroke-width:0.216;stroke-linecap:butt;stroke-linejoin:miter;stroke-dasharray:none"
     id="path72" />
  <path
     d="m 112.49623,119.48912 v 0.27 l -1.62,0.432 v -1.242 0"
     style="fill:none;stroke:#009ee0;stroke-width:0.216;stroke-linecap:butt;stroke-linejoin:miter;stroke-dasharray:none"
     id="path74" />
  <path
     d="m 41.216433,147.24512 c 0.162,0.864 0.27,1.728 0.27,2.646 0,4.32 -2.268,8.1 -5.724,10.206"
     style="fill:none;stroke:#009035;stroke-width:0.216;stroke-linecap:butt;stroke-linejoin:miter;stroke-dasharray:none"
     id="path76" />
  <path
     d="m 35.762433,160.09712 v 35.3698 h 8.586 v 9.99 l -7.398,17.442 h -1.944 v -19.386 h -10.962 v 19.386 h -2.268 l -7.074,-17.55 v -9.882 h 8.586 v -35.2618"
     style="fill:none;stroke:#009035;stroke-width:0.216;stroke-linecap:butt;stroke-linejoin:miter;stroke-dasharray:none"
     id="path78" />
  <path
     d="m 23.288433,160.20512 c -3.51,-2.106 -5.832,-5.94 -5.832,-10.314 0,-6.21 4.752,-11.34 10.8,-11.934"
     style="fill:none;stroke:#009035;stroke-width:0.216;stroke-linecap:butt;stroke-linejoin:miter;stroke-dasharray:none"
     id="path80" />
  <path
     d="m 28.256433,137.95712 17.982,-29.916"
     style="fill:none;stroke:#009035;stroke-width:0.216;stroke-linecap:butt;stroke-linejoin:miter;stroke-dasharray:none"
     id="path82" />
  <path
     d="m 46.238433,108.04112 c 0,-0.054 0,-0.162 0,-0.216 0,-6.912 5.67,-12.527996 12.582,-12.527996 3.726,0 7.128,1.674 9.396,4.266"
     style="fill:none;stroke:#009035;stroke-width:0.216;stroke-linecap:butt;stroke-linejoin:miter;stroke-dasharray:none"
     id="path84" />
  <path
     d="m 68.216433,99.563124 11.664,-0.162"
     style="fill:none;stroke:#009035;stroke-width:0.216;stroke-linecap:butt;stroke-linejoin:miter;stroke-dasharray:none"
     id="path86" />
  <path
     d="m 79.880433,99.401124 c -0.054,-3.24 -0.054,-6.372 -0.054,-9.342"
     style="fill:none;stroke:#009035;stroke-width:0.216;stroke-linecap:butt;stroke-linejoin:miter;stroke-dasharray:none"
     id="path88" />
  <path
     d="m 79.826433,90.059124 h -8.64"
     style="fill:none;stroke:#009035;stroke-width:0.216;stroke-linecap:butt;stroke-linejoin:miter;stroke-dasharray:none"
     id="path90" />
  <path
     d="m 71.186433,90.059124 c -2.538,0 -4.59,-2.052 -4.59,-4.59"
     style="fill:none;stroke:#009035;stroke-width:0.216;stroke-linecap:butt;stroke-linejoin:miter;stroke-dasharray:none"
     id="path92" />
  <path
     d="m 66.596433,85.469124 v -13.554 h -7.722 v -16.74 h 1.728 l 0.054,-21.492"
     style="fill:none;stroke:#009035;stroke-width:0.216;stroke-linecap:butt;stroke-linejoin:miter;stroke-dasharray:none"
     id="path94" />
  <path
     d="m 60.656433,33.683124 c -1.08,-0.594 -1.782,-1.728 -1.782,-3.024 0,-1.89 1.566,-3.402 3.456,-3.402 1.89,0 3.402,1.512 3.402,3.402 0,1.242 -0.648,2.322 -1.566,2.916"
     style="fill:none;stroke:#009035;stroke-width:0.216;stroke-linecap:butt;stroke-linejoin:miter;stroke-dasharray:none"
     id="path96" />
  <path
     d="m 64.166433,33.575124 v 21.6 h 2.43 v -9.126"
     style="fill:none;stroke:#009035;stroke-width:0.216;stroke-linecap:butt;stroke-linejoin:miter;stroke-dasharray:none"
     id="path98" />
  <path
     d="m 66.596433,46.049124 c 0,-2.538 2.052,-4.644 4.59,-4.644"
     style="fill:none;stroke:#009035;stroke-width:0.216;stroke-linecap:butt;stroke-linejoin:miter;stroke-dasharray:none"
     id="path100" />
  <path
     d="M 71.186433,41.405124 H 110.98423"
     style="fill:none;stroke:#009035;stroke-width:0.216;stroke-linecap:butt;stroke-linejoin:miter;stroke-dasharray:none"
     id="path102" />
  <path
     d="m 110.98423,41.405124 c 2.5381,0 4.6441,2.106 4.6441,4.644"
     style="fill:none;stroke:#009035;stroke-width:0.216;stroke-linecap:butt;stroke-linejoin:miter;stroke-dasharray:none"
     id="path104" />
  <path
     d="m 115.62833,46.049124 v 39.42"
     style="fill:none;stroke:#009035;stroke-width:0.216;stroke-linecap:butt;stroke-linejoin:miter;stroke-dasharray:none"
     id="path106" />
  <path
     d="m 115.62833,85.469124 c 0,2.538 -2.106,4.59 -4.6441,4.59"
     style="fill:none;stroke:#009035;stroke-width:0.216;stroke-linecap:butt;stroke-linejoin:miter;stroke-dasharray:none"
     id="path108" />
  <path
     d="m 110.98423,90.059124 h -9.99"
     style="fill:none;stroke:#009035;stroke-width:0.216;stroke-linecap:butt;stroke-linejoin:miter;stroke-dasharray:none"
     id="path110" />
  <path
     d="m 100.99423,90.059124 c 0.054,3.132 0.054,6.372 0,9.72"
     style="fill:none;stroke:#009035;stroke-width:0.216;stroke-linecap:butt;stroke-linejoin:miter;stroke-dasharray:none"
     id="path112" />
  <path
     d="m 100.99423,99.779124 9.936,0.216"
     style="fill:none;stroke:#009035;stroke-width:0.216;stroke-linecap:butt;stroke-linejoin:miter;stroke-dasharray:none"
     id="path114" />
  <path
     d="m 110.93023,99.995124 c 2.322,-2.376 5.5621,-3.942 9.1801,-3.942 5.562,0 10.314,3.618 11.934,8.693996"
     style="fill:none;stroke:#009035;stroke-width:0.216;stroke-linecap:butt;stroke-linejoin:miter;stroke-dasharray:none"
     id="path116" />
  <path
     d="m 132.04433,104.74712 31.644,18.9"
     style="fill:none;stroke:#009035;stroke-width:0.216;stroke-linecap:butt;stroke-linejoin:miter;stroke-dasharray:none"
     id="path118" />
  <path
     d="M 163.68833,123.64712 Z"
     style="fill:none;stroke:#009035;stroke-width:0.216;stroke-linecap:butt;stroke-linejoin:miter;stroke-dasharray:none"
     id="path120" />
  <path
     d="M 163.68833,123.64712 V 90.761124 h -8.532 v -5.994 -2.592 l 2.646,-0.054 6.426,-18.9 h 2.322 v 19.386 l 6.966,-0.054 v -19.386 h 1.944 l 6.966,19.062 h 2.376 v 8.532 h -8.586 v 34.397996"
     style="fill:none;stroke:#009035;stroke-width:0.216;stroke-linecap:butt;stroke-linejoin:miter;stroke-dasharray:none"
     id="path122" />
  <path
     d="m 176.21633,125.15912 c 2.808,2.214 4.536,5.562 4.536,9.396 0,6.588 -5.4,11.988 -11.988,11.988 -5.508,0 -10.206,-3.726 -11.61,-8.802"
     style="fill:none;stroke:#009035;stroke-width:0.216;stroke-linecap:butt;stroke-linejoin:miter;stroke-dasharray:none"
     id="path124" />
  <path
     d="m 157.15433,137.74112 -34.182,-16.254 -3.078,60.3178 h 0.972"
     style="fill:none;stroke:#009035;stroke-width:0.216;stroke-linecap:butt;stroke-linejoin:miter;stroke-dasharray:none"
     id="path126" />
  <path
     d="m 120.86633,181.80492 c 1.782,0 3.294,1.242 3.294,2.808"
     style="fill:none;stroke:#009035;stroke-width:0.216;stroke-linecap:butt;stroke-linejoin:miter;stroke-dasharray:none"
     id="path128" />
  <path
     d="m 124.16033,184.61292 v 30.672"
     style="fill:none;stroke:#009035;stroke-width:0.216;stroke-linecap:butt;stroke-linejoin:miter;stroke-dasharray:none"
     id="path130" />
  <path
     d="m 124.16033,215.28492 c 0,1.512 -1.35,2.7 -3.024,2.862"
     style="fill:none;stroke:#009035;stroke-width:0.216;stroke-linecap:butt;stroke-linejoin:miter;stroke-dasharray:none"
     id="path132" />
  <path
     d="m 121.13633,218.14692 v 32.724"
     style="fill:none;stroke:#009035;stroke-width:0.216;stroke-linecap:butt;stroke-linejoin:miter;stroke-dasharray:none"
     id="path134" />
  <path
     d="m 121.13633,250.87092 c 1.62,2.16 2.592,4.914 2.592,7.83 0,2.916 -0.918,5.616 -2.538,7.776"
     style="fill:none;stroke:#009035;stroke-width:0.216;stroke-linecap:butt;stroke-linejoin:miter;stroke-dasharray:none"
     id="path136" />
  <path
     d="m 121.19033,266.47692 v 26.946 h 6.156 v 27 H 95.270433 v -27 h 5.183797 v -26.352"
     style="fill:none;stroke:#009035;stroke-width:0.216;stroke-linecap:butt;stroke-linejoin:miter;stroke-dasharray:none"
     id="path138" />
  <path
     d="m 100.45423,267.07092 c -1.889697,-2.268 -3.023697,-5.184 -3.023697,-8.37 0,-3.132 1.134,-6.048 2.969697,-8.316"
     style="fill:none;stroke:#009035;stroke-width:0.216;stroke-linecap:butt;stroke-linejoin:miter;stroke-dasharray:none"
     id="path140" />
  <path
     d="m 100.40023,250.38492 v -32.238 h -0.324"
     style="fill:none;stroke:#009035;stroke-width:0.216;stroke-linecap:butt;stroke-linejoin:miter;stroke-dasharray:none"
     id="path142" />
  <path
     d="m 100.07623,218.14692 c -1.835697,0 -3.293797,-1.296 -3.293797,-2.862"
     style="fill:none;stroke:#009035;stroke-width:0.216;stroke-linecap:butt;stroke-linejoin:miter;stroke-dasharray:none"
     id="path144" />
  <path
     d="m 96.782433,215.28492 v -12.96 h -13.716 v 12.96"
     style="fill:none;stroke:#009035;stroke-width:0.216;stroke-linecap:butt;stroke-linejoin:miter;stroke-dasharray:none"
     id="path146" />
  <path
     d="m 83.066433,215.28492 c 0,1.566 -1.458,2.862 -3.294,2.862"
     style="fill:none;stroke:#009035;stroke-width:0.216;stroke-linecap:butt;stroke-linejoin:miter;stroke-dasharray:none"
     id="path148" />
  <path
     d="m 79.772433,218.14692 h -0.27 v 31.698"
     style="fill:none;stroke:#009035;stroke-width:0.216;stroke-linecap:butt;stroke-linejoin:miter;stroke-dasharray:none"
     id="path150" />
  <path
     d="m 79.502433,249.84492 c 1.62,2.214 2.592,4.914 2.592,7.884 0,2.7 -0.81,5.184 -2.214,7.29"
     style="fill:none;stroke:#009035;stroke-width:0.216;stroke-linecap:butt;stroke-linejoin:miter;stroke-dasharray:none"
     id="path152" />
  <path
     d="m 79.880433,265.01892 v 28.08 h 6.858 v 27.054 h -32.076 v -27.054 h 4.482 v -26.622"
     style="fill:none;stroke:#009035;stroke-width:0.216;stroke-linecap:butt;stroke-linejoin:miter;stroke-dasharray:none"
     id="path154" />
  <path
     d="m 59.144433,266.47692 c -2.052,-2.322 -3.348,-5.4 -3.348,-8.748 0,-3.132 1.134,-6.048 2.97,-8.316"
     style="fill:none;stroke:#009035;stroke-width:0.216;stroke-linecap:butt;stroke-linejoin:miter;stroke-dasharray:none"
     id="path156" />
  <path
     d="m 58.766433,249.41292 v -31.266"
     style="fill:none;stroke:#009035;stroke-width:0.216;stroke-linecap:butt;stroke-linejoin:miter;stroke-dasharray:none"
     id="path158" />
  <path
     d="m 58.766433,218.14692 c -1.728,-0.108 -3.078,-1.35 -3.078,-2.862"
     style="fill:none;stroke:#009035;stroke-width:0.216;stroke-linecap:butt;stroke-linejoin:miter;stroke-dasharray:none"
     id="path160" />
  <path
     d="m 55.688433,215.28492 v -30.672"
     style="fill:none;stroke:#009035;stroke-width:0.216;stroke-linecap:butt;stroke-linejoin:miter;stroke-dasharray:none"
     id="path162" />
  <path
     d="m 55.688433,184.61292 c 0,-1.566 1.512,-2.808 3.294,-2.808"
     style="fill:none;stroke:#009035;stroke-width:0.216;stroke-linecap:butt;stroke-linejoin:miter;stroke-dasharray:none"
     id="path164" />
  <path
     d="m 58.982433,181.80492 h 1.026 l -3.24,-55.5658 -15.552,21.006 v 0"
     style="fill:none;stroke:#009035;stroke-width:0.216;stroke-linecap:butt;stroke-linejoin:miter;stroke-dasharray:none"
     id="path166" />
</svg>
