<?xml version="1.0" encoding="UTF-8" standalone="no"?>
<!-- Created with Inkscape (http://www.inkscape.org/) -->

<svg
   xmlns:dc="http://purl.org/dc/elements/1.1/"
   xmlns:cc="http://creativecommons.org/ns#"
   xmlns:rdf="http://www.w3.org/1999/02/22-rdf-syntax-ns#"
   xmlns:svg="http://www.w3.org/2000/svg"
   xmlns="http://www.w3.org/2000/svg"
   xmlns:sodipodi="http://sodipodi.sourceforge.net/DTD/sodipodi-0.dtd"
   xmlns:inkscape="http://www.inkscape.org/namespaces/inkscape"
   width="1259.5886"
   height="234.03731"
   id="svg2"
   version="1.1"
   inkscape:version="0.48.4 r9939"
   sodipodi:docname="MikesHobby.svg"
   inkscape:export-filename="C:\Users\Steve.EDWARDSHOME\SkyDrive\dprg\sponsors\MikesHobby.png"
   inkscape:export-xdpi="300"
   inkscape:export-ydpi="300">
  <defs
     id="defs4" />
  <sodipodi:namedview
     id="base"
     pagecolor="#ffffff"
     bordercolor="#666666"
     borderopacity="1.0"
     inkscape:pageopacity="0.0"
     inkscape:pageshadow="2"
     inkscape:zoom="0.6363961"
     inkscape:cx="773.678"
     inkscape:cy="240.74161"
     inkscape:document-units="px"
     inkscape:current-layer="layer1"
     showgrid="false"
     fit-margin-top="0"
     fit-margin-left="0"
     fit-margin-right="0"
     fit-margin-bottom="0"
     inkscape:window-width="1536"
     inkscape:window-height="803"
     inkscape:window-x="-8"
     inkscape:window-y="-8"
     inkscape:window-maximized="1" />
  <metadata
     id="metadata7">
    <rdf:RDF>
      <cc:Work
         rdf:about="">
        <dc:format>image/svg+xml</dc:format>
        <dc:type
           rdf:resource="http://purl.org/dc/dcmitype/StillImage" />
        <dc:title></dc:title>
      </cc:Work>
    </rdf:RDF>
  </metadata>
  <g
     inkscape:label="Layer 1"
     inkscape:groupmode="layer"
     id="layer1"
     transform="translate(-130.25839,-316.84426)">
    <g
       id="g4189"
       transform="translate(190.18223,158.4123)">
      <path
         id="path3014"
         d="m 229.11607,182.54968 -15,0.84375 -4.71875,4.71875 -0.28125,30.84375 1.09375,30 1.125,2.21875 2.78125,2.21875 6.375,1.125 34.4375,1.09375 15.5625,0.84375 2.5,-1.9375 3.90625,-8.90625 0.53125,-7.78125 -2.21875,-3.875 -5.8125,0 -28.0625,0.5625 -6.125,-2.78125 0.84375,-3.34375 5,-1.65625 32.78125,-0.28125 4.71875,-5.28125 0.84375,-33.90625 -2.25,-2.5 -7.5,-1.9375 -40.53125,-0.28125 z m 22.5,22.5 2.78125,4.71875 -3.90625,2.5 -12.21875,0.5625 -3.0625,-3.875 2.5,-3.625 13.90625,-0.28125 z"
         style="fill:#b83c3c;fill-opacity:1;stroke:#565851;stroke-width:2.5;stroke-linecap:butt;stroke-linejoin:miter;stroke-miterlimit:4;stroke-opacity:1;stroke-dasharray:none"
         inkscape:connector-curvature="0" />
      <path
         inkscape:connector-curvature="0"
         id="path3006"
         d="m -57.562726,253.949 -1.111111,-92.5 1.111111,-0.55555 108.05556,-0.83334 16.38888,2.22222 0.83334,1.94445 1.38889,50.27778 -1.11111,37.77778 -2.22223,2.5 -6.94444,0.83333 -12.5,-1.11111 -2.22222,-1.11111 -0.55556,-7.77778 -0.55555,-36.66667 0,-24.44444 -3.33334,-2.22223 -10.27778,-0.55555 -8.61111,0.27778 -3.05555,2.22222 0,6.94444 1.94444,26.66667 -1.38889,33.61111 -1.38889,3.61111 -8.888884,0.83334 -9.722223,-0.55556 -5.277777,-1.66667 -1.111111,-26.38889 -0.555556,-42.22222 0,-1.38889 -4.722222,-1.66666 -16.111111,0.27777 -3.333334,1.11112 -0.555555,7.5 2.222222,16.38888 -0.833333,43.33334 -2.777778,4.72222 -9.722222,1.11111 z"
         style="fill:#b83c3c;fill-opacity:1;stroke:#565851;stroke-width:2.5;stroke-linecap:butt;stroke-linejoin:miter;stroke-miterlimit:4;stroke-opacity:1;stroke-dasharray:none" />
      <path
         inkscape:connector-curvature="0"
         id="path3008"
         d="m 106.04838,187.00456 1.38889,29.72222 -1.11111,32.5 -1.38889,4.72222 -8.888886,1.66667 -10.83333,-1.11111 -3.33334,-2.77778 -0.83333,-31.66667 0.55556,-32.22222 2.22222,-2.5 9.44444,-3.05556 6.11111,0.27778 4.166666,1.94445 z"
         style="fill:#b83c3c;fill-opacity:1;stroke:#565851;stroke-width:2.5;stroke-linecap:butt;stroke-linejoin:miter;stroke-miterlimit:4;stroke-opacity:1;stroke-dasharray:none" />
      <path
         sodipodi:nodetypes="ccccccccccc"
         inkscape:connector-curvature="0"
         id="path3010"
         d="m 104.10394,175.06011 c -2.93638,0.28664 -8.352966,1.5058 -13.333326,1.11111 l -6.3889,-1.94444 -2.5,-1.66667 0.55556,-9.16666 1.94444,-3.05556 17.777776,-0.27778 3.88889,1.66667 1.11111,2.5 -0.27778,4.72222 z"
         style="fill:#b83c3c;fill-opacity:1;stroke:#565851;stroke-width:2.5;stroke-linecap:butt;stroke-linejoin:miter;stroke-miterlimit:4;stroke-opacity:1;stroke-dasharray:none" />
      <path
         sodipodi:nodetypes="cscccccccccccccccccccccccccccc"
         inkscape:connector-curvature="0"
         id="path3012"
         d="m 121.04838,160.61567 c 0,0 10.1988,-1.29772 15.27778,-0.83334 2.75083,0.25152 8.05555,1.94445 8.05555,1.94445 l 2.22223,1.94444 0.55555,24.16667 -1.94444,16.38889 1.94444,1.94444 8.61111,-9.44444 8.05556,-14.44445 29.72222,1.11112 3.61111,1.11111 -13.05555,20.83333 -7.5,13.61111 7.5,13.33333 6.66666,11.11112 2.77778,6.66666 -0.83333,5.55556 -2.5,1.11111 -23.33334,-2.22222 -2.22222,-1.38889 -15.27778,-20.83334 -1.94444,0 -1.11111,2.5 -2.5,19.16667 -2.5,1.38889 -14.16667,-0.27778 -5,-1.38889 -1.38889,-3.61111 -0.83333,-49.72222 z"
         style="fill:#b83c3c;fill-opacity:1;stroke:#565851;stroke-width:2.5;stroke-linecap:butt;stroke-linejoin:miter;stroke-miterlimit:4;stroke-opacity:1;stroke-dasharray:none" />
      <path
         sodipodi:nodetypes="cccccccccscccsscccccccccccccccc"
         inkscape:connector-curvature="0"
         id="path3018"
         d="m 360.21505,204.50456 -6.11111,1.11111 -8.05556,-1.11111 -25.55555,0 -2.22223,2.5 2.77778,4.16666 33.05556,0 2.5,-0.27777 8.33333,7.22222 c 0,0 -0.39355,17.48867 -2.5,33.05555 -0.46853,3.46251 -8.88889,5.55556 -8.88889,5.55556 l -50.27778,-2.5 -3.05555,-3.05556 c 0,0 -6.99506,-8.6233 -5.83334,-13.33333 0.28396,-1.15126 1.67329,-1.79078 2.77778,-2.22222 4.92811,-1.92506 15.83334,-1.11111 15.83334,-1.11111 l 20.55555,-0.27778 2.77778,-1.94445 0.83333,-3.33333 -3.05555,-1.66667 -32.77778,-2.22222 -5,-1.94444 -3.33333,-5 -0.83334,-30.27778 3.88889,-5 28.88889,-0.83333 37.77778,1.38889 1.11111,3.61111 0.27778,14.16666 -2.5,3.33334 z"
         style="fill:#b83c3c;fill-opacity:1;stroke:#565851;stroke-width:2.5;stroke-linecap:butt;stroke-linejoin:miter;stroke-miterlimit:4;stroke-opacity:1;stroke-dasharray:none" />
    </g>
    <g
       id="g4232"
       transform="translate(-10.729838,151.11111)">
      <path
         inkscape:connector-curvature="0"
         id="path4145"
         d="m 598.64811,170.11817 -1.17851,20.82037 0.78567,59.3184 1.17851,12.57079 15.32065,2.35702 8.64241,-0.78567 1.17852,-21.2132 -1.96419,-14.53498 3.1427,-5.10688 21.2132,0.39284 1.96419,1.96418 0,36.14102 12.57078,2.74986 12.17795,-0.39284 2.35703,-9.03525 -0.39284,-60.88976 0,-20.42752 -3.1427,-4.71405 -16.89199,-1.17851 -5.49972,1.17851 -1.57135,18.85618 -0.39284,16.49916 -3.92837,3.1427 -17.67767,-1.17852 -2.35702,-31.8198 -3.53553,-4.32121 z"
         style="fill:#b83c3c;fill-opacity:1;stroke:#565851;stroke-width:2.5;stroke-linecap:butt;stroke-linejoin:miter;stroke-miterlimit:4;stroke-opacity:1;stroke-dasharray:none" />
      <path
         id="path4147"
         d="m 718.47371,191.32746 -27.125,1.1875 -5.09375,6.28125 1.96875,58.53125 4.3125,4.71875 55.375,3.125 7.875,-5.875 2.75,-17.28125 -1.5625,-42.8125 -5.90625,-6.6875 -32.59375,-1.1875 z m 3.90625,21.625 8.25,1.5625 -0.375,26.71875 -2.75,1.9375 -11.78125,0 -3.53125,-14.53125 2.34375,-14.90625 7.84375,-0.78125 z"
         style="fill:#b83c3c;fill-opacity:1;stroke:#565851;stroke-width:2.5;stroke-linecap:butt;stroke-linejoin:miter;stroke-miterlimit:4;stroke-opacity:1;stroke-dasharray:none"
         inkscape:connector-curvature="0" />
      <path
         id="path4151"
         d="m 784.06746,168.54621 -14.15625,2.34375 0.40625,51.46875 2.34375,40.875 30.25,1.5625 33,-1.5625 4.34375,-8.65625 0,-20.4375 -1.59375,-36.90625 -6.28125,-5.5 -34.5625,-0.40625 -0.78125,-18.46875 -3.53125,-3.125 -9.4375,-1.1875 z m 22.40625,44.40625 7.0625,1.9375 0,27.125 -5.125,2.34375 -9.03125,-1.1875 -3.125,-3.125 0,-23.1875 1.5625,-2.34375 8.65625,-1.5625 z"
         style="fill:#b83c3c;fill-opacity:1;stroke:#565851;stroke-width:2.5;stroke-linecap:butt;stroke-linejoin:miter;stroke-miterlimit:4;stroke-opacity:1;stroke-dasharray:none"
         inkscape:connector-curvature="0" />
      <path
         id="path4155"
         d="m 857.53621,169.32746 -3.15625,1.96875 -1.5625,37.3125 0.375,50.6875 3.15625,3.9375 51.46875,1.5625 10.21875,-1.5625 4.6875,-4.34375 0.8125,-60.5 -1.59375,-5.5 -40.0625,-2.34375 -1.96875,-17.28125 -1.96875,-2.375 -20.40625,-1.5625 z m 26.71875,44 9.40625,0.40625 1.96875,2.75 1.5625,23.5625 -3.53125,3.53125 -10.21875,0 -3.125,-2.34375 -1.1875,-23.1875 0.78125,-1.96875 4.34375,-2.75 z"
         style="fill:#b83c3c;fill-opacity:1;stroke:#565851;stroke-width:2.5;stroke-linecap:butt;stroke-linejoin:miter;stroke-miterlimit:4;stroke-opacity:1;stroke-dasharray:none"
         inkscape:connector-curvature="0" />
      <path
         inkscape:connector-curvature="0"
         id="path4159"
         d="m 936.88085,192.11705 13.7493,-0.78567 9.82093,3.14269 3.53553,46.74762 8.64242,2.35702 7.85674,-1.57135 2.74986,-47.14045 3.53553,-3.53553 21.60604,1.17851 0,3.53553 -1.1785,94.67374 -5.1069,4.32121 -6.28538,3.1427 -24.3559,-1.57135 -25.92725,-0.78567 -8.64242,-16.892 5.10688,-2.35702 8.24958,-0.39284 25.14158,0 4.71404,-3.14269 0.39284,-5.10689 -3.53553,-2.74986 -12.57079,-1.57135 -18.85618,0 -5.89256,-1.96418 -2.74986,-5.10688 -0.78567,-58.53273 z"
         style="fill:#b83c3c;fill-opacity:1;stroke:#565851;stroke-width:2.5;stroke-linecap:butt;stroke-linejoin:miter;stroke-miterlimit:4;stroke-opacity:1;stroke-dasharray:none" />
    </g>
    <g
       id="g4226"
       transform="translate(-20.157928,135.39763)">
      <path
         inkscape:connector-curvature="0"
         id="path4197"
         d="m 1083.7619,189.25107 8.3334,-3.33333 57.7778,-0.55556 9.4444,2.22222 -0.5556,16.66667 -5,1.66667 -42.2222,1.66666 -3.3333,1.11111 0,12.77778 6.6667,0.55556 35.5555,3.33333 6.6667,5.55556 1.6666,43.88889 -5.5555,4.44444 -11.1111,1.66667 -50.5556,-2.22223 -10,-15.55555 1.6667,-3.33333 11.1111,-0.55556 26.1111,0.55555 7.2222,0 3.8889,-2.22222 0.5556,-13.88889 -2.2222,-3.88889 -13.3334,0 -29.4444,-2.77777 -5.0001,-5 -1.1111,-36.11111 z"
         style="fill:#b83c3c;fill-opacity:1;stroke:#565651;stroke-width:2.5;stroke-linecap:butt;stroke-linejoin:miter;stroke-miterlimit:4;stroke-opacity:1;stroke-dasharray:none" />
      <path
         inkscape:connector-curvature="0"
         id="path4199"
         d="m 1171.5397,188.13996 3.3334,-2.22222 18.3333,0 3.8889,2.22222 0,16.11111 5.5555,2.77778 33.3334,2.22222 6.1111,5 -0.5556,45.55555 -2.2222,19.44445 -2.7778,2.22222 -15,-0.55555 -4.4444,-3.88889 -2.2222,-50 -2.2223,-2.77778 -12.2222,0 -3.3333,3.33333 0.5555,46.66667 -3.3333,6.66667 -13.8889,0 -6.1111,-1.66667 -3.3333,-17.77778 z"
         style="fill:#b83c3c;fill-opacity:1;stroke:#565651;stroke-width:2.5;stroke-linecap:butt;stroke-linejoin:miter;stroke-miterlimit:4;stroke-opacity:1;stroke-dasharray:none" />
      <path
         id="path4201"
         d="m 1288.1925,206.46982 -28.875,1.65625 -4.4375,6.6875 0,58.875 6.6563,5.5625 57.2187,0 5,-5 -0.5625,-61.65625 -7.75,-4.46875 -27.25,-1.65625 z m 2.25,22.21875 6.6562,2.21875 2.2188,21.125 -4.4375,7.21875 -11.6875,0 -1.6562,-7.21875 -2.2188,-16.125 2.7812,-4.4375 8.3438,-2.78125 z"
         style="fill:#b83c3c;fill-opacity:1;stroke:#565651;stroke-width:2.5;stroke-linecap:butt;stroke-linejoin:miter;stroke-miterlimit:4;stroke-opacity:1;stroke-dasharray:none"
         inkscape:connector-curvature="0" />
      <path
         id="path4203"
         d="m 1402.0987,208.68857 -63.3437,1.125 -1.6563,6.09375 1.6563,92.78125 12.7813,4.4375 12.2187,-1.65625 -0.5625,-25.5625 2.25,-4.4375 23.875,-0.5625 13.875,-0.53125 5,-5 0.5625,-59.46875 -6.6563,-7.21875 z m -35.5624,20.5625 11.6562,0.5625 4.4688,3.3125 -1.6876,23.90625 -5,1.65625 -8.3124,0 -3.3438,-2.21875 -1.125,-23.875 3.3438,-3.34375 z"
         style="fill:#b83c3c;fill-opacity:1;stroke:#565651;stroke-width:2.5;stroke-linecap:butt;stroke-linejoin:miter;stroke-miterlimit:4;stroke-opacity:1;stroke-dasharray:none"
         inkscape:connector-curvature="0" />
    </g>
    <flowRoot
       xml:space="preserve"
       id="flowRoot4239"
       style="font-size:36px;font-style:normal;font-weight:normal;line-height:125%;letter-spacing:0px;word-spacing:0px;fill:#b83c3c;fill-opacity:1;stroke:#565651;stroke-opacity:1;font-family:Sans"
       transform="matrix(1.1675795,0,0,1.275797,59.899002,200.86097)"><flowRegion
         id="flowRegion4241"><rect
           id="rect4243"
           width="945.95172"
           height="75.424721"
           x="356.69608"
           y="198.5764"
           style="fill:#b83c3c;fill-opacity:1;stroke:#565651;stroke-opacity:1" /></flowRegion><flowPara
         id="flowPara4245"
         style="font-size:72px;font-weight:bold;fill:#b83c3c;fill-opacity:1;stroke:#565651;stroke-opacity:1;-inkscape-font-specification:Sans Bold">Superstore &amp; Raceway</flowPara></flowRoot>  </g>
</svg>
