<?xml version="1.0" encoding="UTF-8" standalone="no"?>
<!-- Created with Inkscape (http://www.inkscape.org/) -->

<svg
   xmlns:dc="http://purl.org/dc/elements/1.1/"
   xmlns:cc="http://creativecommons.org/ns#"
   xmlns:rdf="http://www.w3.org/1999/02/22-rdf-syntax-ns#"
   xmlns:svg="http://www.w3.org/2000/svg"
   xmlns="http://www.w3.org/2000/svg"
   xmlns:sodipodi="http://sodipodi.sourceforge.net/DTD/sodipodi-0.dtd"
   xmlns:inkscape="http://www.inkscape.org/namespaces/inkscape"
   width="943.59631"
   height="344.20554"
   id="svg2"
   version="1.1"
   inkscape:version="0.48.4 r9939"
   sodipodi:docname="RobotShop.svg"
   inkscape:export-filename="C:\Users\Steve.EDWARDSHOME\SkyDrive\dprg\sponsors\RobotShop.png"
   inkscape:export-xdpi="300"
   inkscape:export-ydpi="300">
  <defs
     id="defs4">
    <filter
       id="filter3833"
       inkscape:menu-tooltip="In and out glow with a possible offset and colorizable flood"
       inkscape:menu="Shadows and Glows"
       inkscape:label="Cutout Glow"
       color-interpolation-filters="sRGB">
      <feOffset
         id="feOffset3835"
         dy="3"
         dx="3" />
      <feGaussianBlur
         id="feGaussianBlur3837"
         result="result8"
         stdDeviation="3" />
      <feFlood
         id="feFlood3839"
         flood-color="rgb(0,0,0)"
         flood-opacity="1"
         in="result8"
         result="result10" />
      <feComposite
         id="feComposite3841"
         in2="SourceGraphic"
         operator="in"
         in="result10"
         result="result9" />
      <feBlend
         id="feBlend3843"
         in2="result9"
         mode="normal"
         in="result8" />
    </filter>
  </defs>
  <sodipodi:namedview
     id="base"
     pagecolor="#ffffff"
     bordercolor="#666666"
     borderopacity="1.0"
     inkscape:pageopacity="0.0"
     inkscape:pageshadow="2"
     inkscape:zoom="0.98994949"
     inkscape:cx="347.68209"
     inkscape:cy="217.86208"
     inkscape:document-units="px"
     inkscape:current-layer="layer1"
     showgrid="false"
     inkscape:window-width="1536"
     inkscape:window-height="803"
     inkscape:window-x="-8"
     inkscape:window-y="-8"
     inkscape:window-maximized="1"
     fit-margin-top="0"
     fit-margin-left="0"
     fit-margin-right="0"
     fit-margin-bottom="0" />
  <metadata
     id="metadata7">
    <rdf:RDF>
      <cc:Work
         rdf:about="">
        <dc:format>image/svg+xml</dc:format>
        <dc:type
           rdf:resource="http://purl.org/dc/dcmitype/StillImage" />
        <dc:title></dc:title>
      </cc:Work>
    </rdf:RDF>
  </metadata>
  <g
     inkscape:label="Layer 1"
     inkscape:groupmode="layer"
     id="layer1"
     transform="translate(310.62934,-406.01871)">
    <g
       id="g3807"
       inkscape:export-xdpi="300"
       inkscape:export-ydpi="300"
       inkscape:export-filename="C:\Users\Steve.EDWARDSHOME\SkyDrive\dprg\sponsors\RobotShop.png">
      <g
         id="g3845">
        <g
           id="g3022"
           transform="translate(295.03845,-212.488)">
          <path
             style="fill:#d1d0cd"
             d="m 219.78461,960.66383 c -7.27208,-2.53705 -14.6494,-9.55513 -17.23766,-16.39826 -1.03488,-2.73615 -3.59394,-7.67481 -5.68679,-10.97481 -3.67497,-5.79467 -14.19933,-27.32863 -16.8613,-34.5 -0.71455,-1.925 -2.40111,-6.425 -3.7479,-10 -2.2781,-6.04708 -4.80342,-13.77007 -9.31915,-28.5 -1.01167,-3.3 -2.34034,-8.475 -2.95258,-11.5 -0.61225,-3.025 -2.30766,-9.2674 -3.76759,-13.87199 -2.65115,-8.36175 -2.65291,-8.38927 -1.43648,-22.5 0.66986,-7.77041 1.71423,-16.44231 2.32082,-19.27091 0.81308,-3.79145 0.80461,-5.99859 -0.0323,-8.39922 -1.49673,-4.29353 -1.43183,-7.75165 0.28625,-15.25236 0.78177,-3.41304 1.84038,-9.82708 2.35247,-14.25344 0.63588,-5.49641 1.92895,-10.1388 4.07859,-14.64297 1.73114,-3.62727 3.14753,-7.06332 3.14753,-7.63565 0,-0.57234 -1.2375,-1.18301 -2.75,-1.35704 -2.27972,-0.26231 -2.80286,-0.86241 -3.05909,-3.50918 -0.3018,-3.11746 1.48557,-9.78566 4.23703,-15.80724 6.25329,-13.68531 10.20536,-21.00017 14.58757,-27 5.87243,-8.04015 13.86277,-16.5 15.58427,-16.5 0.64623,0 6.28815,-5.47366 12.53759,-12.16368 6.24945,-6.69002 14.73763,-14.8342 18.86263,-18.09818 8.99678,-7.11884 24.93495,-15.12854 35.68025,-17.93104 8.48109,-2.21196 8.88538,-2.26526 14.81975,-1.95358 3.74658,0.19678 3.87702,0.3031 2.05887,1.67828 -1.06762,0.80751 -2.86762,1.47483 -4,1.48294 -1.13238,0.008 -3.0692,0.57061 -4.30404,1.25 -1.23484,0.67939 -5.50984,2.98807 -9.5,5.13039 -14.46178,7.76456 -22.679,15.95183 -24.77367,24.68339 -1.18734,4.9494 -1.13364,5.24366 1.69014,9.2614 1.60404,2.28227 3.79669,4.31029 4.87257,4.50671 1.07587,0.19642 3.38861,1.43628 5.13941,2.75525 5.05658,3.80937 5.65741,3.35568 8.21092,-6.2001 0.60233,-2.25403 2.18256,-5.27158 3.51164,-6.70568 2.13796,-2.3069 2.80058,-2.49729 5.74873,-1.65177 1.83272,0.52562 4.6852,0.96007 6.33883,0.96544 4.10585,0.0133 13.5066,4.50804 13.5066,6.45779 0,0.85777 -0.53742,2.42013 -1.19427,3.47192 -2.34976,3.76256 0.20956,6.37021 10.33784,10.53303 10.78365,4.4322 17.8841,8.05469 24.37633,12.43624 6.29669,4.24958 7.82156,4.15272 5.92907,-0.37663 -1.88356,-4.508 -1.82703,-5.54001 0.30103,-5.49561 0.9625,0.0201 3.03003,2.05624 4.59451,4.52479 2.59278,4.09107 2.85827,5.36565 3,14.40244 0.0995,6.34336 -0.25963,10.33327 -0.99706,11.07777 -0.87465,0.88303 -2.86986,0.1141 -8.27474,-3.18896 -16.63425,-10.16562 -25.44494,-13.86235 -32.97926,-13.83724 -9.17568,0.0306 -8.58865,2.93645 0.90655,4.48752 4.28851,0.70054 9.29707,3.13814 17,8.27369 4.35974,2.90664 14,14.72838 14,17.16804 0,0.9958 0.60515,2.31278 1.34477,2.92661 1.83201,1.52043 8.28555,14.86476 9.13033,18.87925 0.3762,1.78774 0.37443,6.14113 -0.004,9.67422 -0.54609,5.09928 -1.52077,7.72809 -4.72714,12.74957 -8.57043,13.42211 -11.2035,16.92073 -16.02932,21.29852 l -4.99012,4.52684 0.6588,5.60537 c 0.91145,7.75505 2.11691,9.74462 5.45513,9.00349 1.46381,-0.32499 4.89567,-1.05153 7.62634,-1.61452 2.73068,-0.563 5.40818,-1.46695 5.95,-2.00877 0.54183,-0.54183 2.01157,-0.98514 3.26609,-0.98514 2.3913,0 3.83828,3.06533 3.14538,6.66327 -0.35171,1.82631 -7.91473,6.16698 -10.93801,6.2777 -0.88643,0.0325 -4.59893,1.41351 -8.25,3.06899 -6.17485,2.7998 -8.07336,4.9851 -5.63832,6.49004 1.16908,0.72253 1.36183,4.5 0.22962,4.5 -1.50696,0 -12.22625,10.58101 -15.69931,15.4968 -3.92767,5.55924 -4.30905,7.5816 -1.88655,10.0041 1.99506,1.99506 4.41253,1.52217 13.33064,-2.60766 9.18701,-4.25434 12.75582,-7.26076 14.15241,-11.92217 0.73162,-2.44192 2.48059,-4.95971 4.53227,-6.52461 1.83751,-1.40153 3.34092,-3.42534 3.34092,-4.49735 0,-1.85675 0.36149,-2.11803 3.25,-2.34911 0.97238,-0.0778 1.388,9.11711 1.87136,41.4 0.34174,22.825 0.94653,43.12806 1.34398,45.11791 1.11333,5.574 -1.28946,9.19714 -8.19637,12.35923 -3.16969,1.45113 -6.6644,3.45336 -7.76602,4.4494 -1.10162,0.99604 -3.12795,2.08716 -4.50295,2.4247 -1.375,0.33755 -6.325,3.10061 -11,6.14014 -4.675,3.03953 -10.20787,5.99525 -12.29527,6.56826 -2.0874,0.573 -5.84843,2.3439 -8.35784,3.93533 -2.50942,1.59142 -5.97654,3.16616 -7.70473,3.49942 -1.72819,0.33326 -6.96716,1.45469 -11.64216,2.49208 -20.23013,4.48906 -36.74856,5.16442 -46.14395,1.8866 z m 72.01644,-27.30713 c 1.52525,-0.78874 3.358,-2.13874 4.07279,-3 1.10089,-1.3265 1.0133,-1.56537 -0.57284,-1.5622 -2.32269,0.005 -8.37244,3.60421 -8.37244,4.98156 0,1.40663 1.60926,1.26812 4.87249,-0.41936 z m 9.63188,-13.573 c 0.79429,-1.2852 -2.01458,-2.39487 -4.06775,-1.60699 -2.00377,0.76892 -0.90026,2.61405 1.56338,2.61405 1.03508,0 2.16205,-0.45318 2.50437,-1.00706 z m -3.50437,-23.83785 c 2.62513,-1.24138 3.58251,-2.37786 3.83008,-4.54658 0.39146,-3.42929 -1.11362,-4.62715 -4.6317,-3.68627 -3.32923,0.89037 -8.6639,7.42225 -7.83213,9.58981 0.68747,1.79153 2.61698,1.48827 8.63375,-1.35696 z m 2.39497,-18.11516 c 3.9425,-1.49893 6.60503,-4.73988 6.60503,-8.03993 0,-2.57345 -0.37423,-3 -2.63197,-3 -5.01661,0 -12.36803,6.07614 -12.36803,10.22251 0,2.03076 4.14268,2.43414 8.39497,0.81742 z m -3.58454,-95.21336 c 1.47926,-1.3375 4.62431,-3.72225 6.989,-5.29945 2.36468,-1.57719 6.12749,-5.05106 8.3618,-7.7197 6.09618,-7.28121 9.97748,-21.78756 6.58318,-24.60458 -2.21137,-1.83527 -6.17062,-2.25959 -8.74441,-0.93716 -2.2857,1.17442 -2.54659,1.99957 -3.04347,9.6261 -0.52389,8.04108 -0.67522,8.46232 -4.20114,11.69358 -5.02569,4.6057 -8.00848,5.17605 -13.39169,2.56068 -4.27884,-2.07882 -4.90498,-2.94513 -8.23666,-11.39604 -0.83117,-2.10827 -1.75307,-2.75 -3.95061,-2.75 -5.98132,0 -10.03705,9.53121 -8.07787,18.98346 0.62888,3.0341 1.73904,6.36857 2.46703,7.40995 4.11125,5.8811 19.763,7.38966 25.24484,2.43316 z m 10.18957,-51.73929 c 0,-2.03293 -5.05899,-10.48633 -9.43215,-15.7608 -4.38077,-5.28365 -21.79998,-9.60479 -20.31544,-5.0396 0.21697,0.66722 3.83723,3.80833 8.04502,6.98024 4.20779,3.17192 8.13563,6.67354 8.72853,7.78138 1.43803,2.68699 8.80303,7.9515 11.12408,7.9515 1.15515,0 1.84996,-0.71838 1.84996,-1.91272 z m -95.91533,-5.40262 c -0.77956,-0.77955 -1.08467,-0.37204 -1.08467,1.44867 0,3.29727 1.40143,4.70756 1.83467,1.84627 0.18406,-1.21565 -0.15344,-2.69837 -0.75,-3.29494 z"
             id="path3010"
             inkscape:connector-curvature="0" />
          <path
             style="fill:#c0bdbb"
             d="m 228.42856,960.12095 c -11.47121,-1.41016 -19.27051,-5.80012 -21.8767,-12.31363 -0.89281,-2.23137 -1.6233,-5.14637 -1.6233,-6.47778 0,-1.33141 -0.37365,-2.65167 -0.83033,-2.93392 -1.32968,-0.82178 -9.88066,-15.70243 -12.74363,-22.17681 -1.44176,-3.26043 -3.87891,-8.62805 -5.41589,-11.92805 -5.51749,-11.84643 -9.70603,-22.43799 -12.457,-31.5 -5.83814,-19.23151 -7.46911,-25.00843 -8.04627,-28.5 -0.36366,-2.2 -1.58896,-6.25 -2.72289,-9 -1.13393,-2.75 -2.20266,-7.25 -2.37495,-10 -0.36564,-5.8361 1.09986,-22.27375 2.7872,-31.26229 0.91308,-4.86405 0.9023,-7.32849 -0.0483,-11.03753 -1.01182,-3.94792 -0.95996,-5.89489 0.29932,-11.23771 0.83774,-3.55436 1.52983,-8.9389 1.53795,-11.96565 0.016,-5.97033 3.02232,-17.83318 5.46343,-21.55878 0.83654,-1.27673 2.14221,-4.03509 2.90148,-6.12968 0.75926,-2.0946 1.71424,-4.59586 2.12217,-5.55836 0.43232,-1.02006 0.30806,-1.75 -0.29792,-1.75 -0.57178,0 -1.32525,0.9 -1.67437,2 -0.44468,1.40104 -1.51304,2 -3.56739,2 -2.37621,0 -2.93156,-0.42689 -2.92704,-2.25 0.0188,-7.57706 9.69085,-28.99392 18.24394,-40.39759 5.6329,-7.51023 14.14268,-16.35241 15.73768,-16.35241 0.53657,0 6.72146,-5.78043 13.74419,-12.84541 12.39108,-12.46559 21.61299,-19.72922 28.92939,-22.78621 1.95547,-0.81705 3.8162,-1.22475 4.13495,-0.906 0.31875,0.31876 -1.2078,2.48262 -3.39234,4.80858 -8.20201,8.73305 -7.87228,7.93623 -10.02635,24.22904 -0.81022,6.12826 2.32835,9.89351 12.62297,15.14341 9.96556,5.08209 9.80213,5.15822 13.18808,-6.14341 2.68074,-8.94775 5.46664,-14.5 7.27554,-14.5 1.73697,0 4.53638,3.80693 4.53638,6.16905 0,3.14372 13.77878,10.85238 26.5,14.82568 5.74171,1.79334 19.21237,8.64321 24.6604,12.53988 2.56322,1.83332 6.44522,4.24387 8.62666,5.35676 4.42881,2.2594 5.21984,3.62005 5.19763,8.94042 -0.026,6.22904 -1.24116,7.0654 -6.21767,4.27946 -21.88142,-12.24957 -31.95174,-15.91047 -40.31591,-14.65619 -4.35019,0.65235 -9.88348,4.03634 -8.98283,5.49362 0.26804,0.43369 3.75982,1.10986 7.75953,1.50261 7.82898,0.76875 15.57894,3.5727 18.35587,6.64118 0.94946,1.04914 2.22902,1.90753 2.84346,1.90753 1.9043,0 8.58925,6.0657 11.14252,10.11035 1.33669,2.11745 2.43034,5.17852 2.43034,6.80239 0,2.11719 0.59165,3.14027 2.09129,3.61623 1.15021,0.36507 2.7499,2.08289 3.55487,3.81739 0.80498,1.7345 2.55649,4.95364 3.89226,7.15364 1.91519,3.1543 2.43216,5.39558 2.44513,10.60078 0.0197,7.887 -1.32281,12.35683 -4.92532,16.39922 -1.47045,1.65 -4.43166,5.925 -6.58048,9.5 -2.14881,3.575 -6.51036,8.91097 -9.69234,11.85771 l -5.78541,5.35772 0.0997,6.14228 c 0.15595,9.60989 0.83128,11.08826 5.2328,11.45522 2.06441,0.17211 6.32164,-0.56504 9.4605,-1.63811 9.53307,-3.25902 12.11295,-3.58354 12.86699,-1.61853 1.10395,2.87684 -0.81523,4.42651 -9.15997,7.39634 -17.5806,6.25681 -20.03759,7.31223 -22.30797,9.58262 -1.52837,1.52836 -2.15016,3.0213 -1.76447,4.23652 0.37275,1.17444 -0.36362,3.15821 -1.96823,5.30236 -1.4101,1.88423 -4.3403,6.43872 -6.51157,10.1211 -3.19708,5.42211 -3.94776,7.65898 -3.94776,11.76356 0,2.78759 0.5625,5.96982 1.25,7.07162 1.06202,1.702 0.8388,2.79027 -1.48423,7.23643 -3.14411,6.01763 -4.47834,12.17473 -2.85558,13.17766 1.52444,0.94215 1.35831,4.72716 -0.31216,7.11208 -0.77108,1.10088 -1.90022,3.85196 -2.5092,6.11352 -0.64688,2.40235 -2.11653,4.77325 -3.53482,5.70255 -2.96408,1.94214 -28.34013,8.87623 -38.28678,10.46198 -4.48089,0.71437 -12.85134,0.93898 -22,0.59032 -8.12198,-0.30952 -15.32657,-0.16966 -16.0102,0.31081 -0.97123,0.6826 -0.82605,2.06402 0.66408,6.31891 1.04888,2.99493 2.20942,7.24533 2.57898,9.44533 1.81629,10.8125 5.94667,15.54462 15.32313,17.55551 5.61193,1.20354 30.99902,-0.27391 35.7252,-2.0791 1.62337,-0.62006 5.42658,-1.58196 8.45158,-2.13757 11.00464,-2.02123 24.83964,-7.62521 41.5,-16.80991 3.3,-1.81926 9.375,-5.10477 13.5,-7.30114 4.125,-2.19637 8.21043,-4.60864 9.07874,-5.3606 2.22862,-1.92999 3.68098,-1.6996 4.44417,0.70498 1.45691,4.59032 -0.16914,6.26358 -13.24184,13.62632 -16.90799,9.52283 -41.50253,22.06526 -46.65674,23.79344 -9.2829,3.11252 -19.87506,5.38556 -27.76331,5.9579 -4.59858,0.33366 -10.38604,0.75122 -12.86104,0.9279 -2.475,0.17669 -5.85,0.1553 -7.5,-0.0475 z m 62.96469,-173.23331 c 6.12911,-2.15421 10.3997,-5.0818 19.03531,-13.04916 8.76454,-8.08631 10.56761,-11.09486 11.60614,-19.3657 0.49102,-3.91055 0.64874,-7.87897 0.35047,-8.81872 -0.31678,-0.99809 -3.02779,-2.54799 -6.5192,-3.72706 -4.81388,-1.62567 -6.576,-1.80959 -9.05572,-0.94515 -2.83934,0.9898 -3.01561,1.31579 -2.26626,4.19109 0.44691,1.7148 0.82877,5.9654 0.84857,9.44578 0.0344,6.04935 -0.12847,6.47864 -3.69931,9.75 -8.69405,7.96489 -19.26481,1.241 -18.72754,-11.91227 0.11606,-2.84113 0.15517,-5.70409 0.0869,-6.36212 -0.0888,-0.85584 -2.54037,-1.09576 -8.61186,-0.84277 -8.02343,0.33432 -8.68426,0.53655 -12.079,3.69643 -3.30128,3.07289 -3.54614,3.68501 -3.03284,7.5819 0.30711,2.33153 0.0927,5.46396 -0.47646,6.96097 -1.67812,4.41379 -1.08455,5.69844 8.12176,17.57797 2.14428,2.76691 6.74824,5.25799 12.45432,6.73871 4.7157,1.22372 6.18771,1.11054 11.96469,-0.9199 z M 216.7189,738.90712 c -0.57395,-9.68949 -3.61655,-17.13167 -6.98411,-17.08309 -3.38177,0.0488 -7.20576,3.53983 -6.25936,5.71439 0.72589,1.66789 0.78282,1.668 1.18121,0.002 0.23021,-0.9625 0.83557,-1.75 1.34524,-1.75 1.23786,0 1.18175,2.34493 -0.0865,3.61313 -1.79596,1.7963 0.83741,7.38721 3.47929,7.38721 1.89651,0 2.35974,0.66533 2.81227,4.03922 0.29798,2.22157 1.08322,4.69161 1.74498,5.48899 2.30637,2.77901 3.22485,0.31867 2.76693,-7.41185 z m 92.20966,-8.47875 c 0,-1.63907 -0.62177,-3.69056 -1.38172,-4.55887 -0.75995,-0.86831 -1.69027,-2.59124 -2.06739,-3.82874 -0.76479,-2.50965 0.39303,-2.88557 3.6005,-1.16898 3.00972,1.61076 3.33305,0.43889 0.94499,-3.42507 -1.67201,-2.70537 -2.93668,-3.55007 -5.86407,-3.91672 -2.05277,-0.25711 -7.33231,-2.09812 -11.73231,-4.09114 -8.60982,-3.8999 -14.76568,-4.6521 -18.05887,-2.20666 -2.68802,1.99605 -1.17178,4.2236 5.64313,8.29048 5.34388,3.18902 9.40488,6.71844 15.56333,13.52612 1.73118,1.91367 4.88118,4.34932 7,5.41254 3.39379,1.703 4.00122,1.7554 5.10241,0.44015 0.6875,-0.82114 1.25,-2.83404 1.25,-4.47311 z m -73.5,206.85613 c -0.55,-0.1916 -3.475,-1.03928 -6.5,-1.88372 -3.20848,-0.89567 -6.94438,-2.85983 -8.96673,-4.71428 -1.9067,-1.7484 -4.9442,-3.79623 -6.75,-4.55074 -1.8058,-0.75451 -3.27986,-1.7033 -3.27569,-2.10842 0.009,-0.83289 14.15382,-5.054 20.99242,-6.26437 7.14116,-1.26393 40.61592,-3.33357 42.4617,-2.62528 1.11308,0.42713 1.56625,1.53021 1.35527,3.29889 -0.26463,2.21843 -1.09936,2.88429 -5.05516,4.0325 -3.3735,0.9792 -5.14538,2.16274 -6.15196,4.10926 -1.74378,3.3721 -6.9858,6.36446 -15.96519,9.11359 -6.43638,1.97056 -9.79525,2.41102 -12.14466,1.59257 z"
             id="path3008"
             inkscape:connector-curvature="0" />
          <path
             style="fill:#b2b0ad"
             d="m 224.57932,958.69238 c -8.2719,-1.2084 -14.73652,-5.36771 -16.60647,-10.68452 -0.80065,-2.27646 -1.24321,-4.35151 -0.98349,-4.61123 0.25972,-0.25973 3.77344,1.16642 7.80826,3.16922 6.51294,3.23288 8.36236,3.68205 16.48349,4.00332 12.30027,0.48661 34.27522,-3.00979 45.64745,-7.26289 18.04509,-6.7487 24.34969,-9.47282 29,-12.53045 0.825,-0.54245 2.625,-1.44668 4,-2.00941 1.375,-0.56273 4.3,-2.10654 6.5,-3.43069 2.2,-1.32414 5.38137,-3.0566 7.06971,-3.84989 1.68834,-0.7933 4.9014,-2.59866 7.14014,-4.01192 4.50534,-2.84409 5.29015,-2.63852 5.29015,1.38568 0,2.04995 -0.6892,3.01213 -2.75,3.83928 -1.5125,0.60707 -5,2.51253 -7.75,4.23436 -10.16448,6.36417 -41.90334,22.61674 -49.5,25.34755 -8.17689,2.93938 -19.53348,5.38796 -29.94492,6.45638 -11.46117,1.17614 -13.0698,1.17277 -21.40432,-0.0448 z m -30.16705,-49.05006 c -5.59505,-4.91253 -8.71019,-12.85156 -5.04273,-12.85156 2.59272,0 2.82619,-2.12484 0.41743,-3.79919 -6.46169,-4.49159 -9.69021,-8.66538 -9.9848,-12.90821 -0.16068,-2.31407 0.027,-4.52657 0.41712,-4.91667 1.41344,-1.41343 0.65916,-3.44448 -1.59788,-4.30261 -2.65469,-1.00931 -7.27961,-9.29079 -8.28264,-14.83107 -0.37263,-2.05824 -1.29236,-4.9574 -2.04386,-6.44259 -0.75149,-1.48519 -1.36635,-3.88476 -1.36635,-5.33239 0,-1.44762 -1.31196,-5.63247 -2.91547,-9.29966 -2.67662,-6.12136 -2.88636,-7.44591 -2.56017,-16.16761 0.19542,-5.225 0.85706,-12.875 1.47032,-17 0.61326,-4.125 1.30461,-15.15 1.53633,-24.5 0.49718,-20.06109 2.91333,-32.56214 8.13365,-42.08305 2.06815,-3.77192 3.33534,-7.47622 3.33534,-9.75 0,-4.44399 -1.15984,-4.73114 -2.6939,-0.66695 -0.79108,2.09581 -1.80333,3 -3.35853,3 -2.08485,0 -2.18841,-0.31863 -1.63161,-5.01995 0.32699,-2.76097 1.27282,-6.24847 2.10184,-7.75 0.82902,-1.50153 2.86126,-6.00936 4.51609,-10.0174 2.72314,-6.59552 5.09809,-10.56162 12.68152,-21.1778 3.18248,-4.45521 13.13928,-14.03485 14.58742,-14.03485 0.6115,0 6.32853,-5.10321 12.7045,-11.34047 10.72805,-10.49466 18.50625,-16.57929 19.6859,-15.39963 0.26842,0.26842 -0.43524,2.05287 -1.56368,3.96545 -2.12394,3.5998 -2.28015,4.94089 -2.11482,18.15567 l 0.0986,7.88102 5.02513,4.86898 c 2.90538,2.81511 5.96083,4.87666 7.24333,4.88718 2.2005,0.0181 9.63292,4.38228 12.94032,7.5984 1.41092,1.37198 1.99821,1.44544 3.25,0.40655 1.82425,-1.51399 1.94718,-4.00879 0.3683,-7.47406 -1.43227,-3.1435 0.16422,-11.44336 3.72706,-19.37626 2.97915,-6.6333 5.45265,-6.77958 6.71484,-0.39711 0.53519,2.7063 1.67795,4.80736 3.13337,5.76099 1.26002,0.82559 8.91643,3.7535 17.01425,6.50647 16.98867,5.77552 24.47485,9.3238 33.579,15.91564 3.57992,2.59203 7.5071,5.24699 8.72708,5.8999 1.21999,0.65291 2.71966,2.12419 3.33261,3.2695 1.34088,2.50545 0.34562,8.87178 -1.38694,8.87178 -0.67523,0 -6.01014,-2.65953 -11.85534,-5.91006 -15.596,-8.67297 -21.07973,-10.4486 -30.56331,-9.8964 -5.79957,0.33769 -8.83584,1.06592 -12.00466,2.87924 -2.33289,1.33497 -4.0968,2.87722 -3.91979,3.42722 0.177,0.55 4.62844,1.28356 9.89208,1.63013 7.07591,0.4659 10.78004,1.23433 14.21192,2.9483 6.43778,3.21518 7.39592,4.5824 4.2241,6.02758 -2.17318,0.99017 -3.83728,0.63536 -11.60866,-2.47508 -12.36068,-4.94727 -21.05802,-4.98666 -21.05802,-0.0954 0,2.93238 1.59717,4.51504 8.59944,8.52133 3.08473,1.76491 7.02429,4.76059 8.75458,6.65708 5.79294,6.34938 10.32363,10.77309 12.63025,12.33204 2.03952,1.37842 2.14167,1.77946 0.94243,3.69976 -1.14648,1.8358 -1.10221,2.66298 0.29992,5.60327 3.01298,6.31829 3.19775,10.14288 0.73571,15.22877 -4.04351,8.35279 -13.54011,9.44224 -18.03599,2.0691 -2.35019,-3.85427 -2.57348,-12.4948 -0.43001,-16.63982 0.82299,-1.59147 1.16049,-3.08008 0.75,-3.30801 -0.41048,-0.22794 -5.47133,-0.33377 -11.24633,-0.23518 -13.19716,0.22529 -18.51142,2.41483 -19.57113,8.06355 -0.81388,4.33838 1.05877,17.59058 3.09083,21.87283 2.27658,4.79752 9.9936,12.32802 14.94478,14.58354 10.12562,4.61275 22.79142,1.16131 34.28175,-9.34181 3.16457,-2.89268 7.21587,-6.27586 9.00287,-7.51817 l 3.24911,-2.25875 1.00089,2.63255 c 1.27749,3.36005 1.27786,6.21316 9e-4,7.00236 -0.55,0.33992 -1.00308,1.82898 -1.00684,3.30902 -0.005,2.04222 -1.57224,4.09648 -6.5,8.52088 l -6.49316,5.8299 0,8.59136 c 0,6.7635 -0.37232,9.01138 -1.75,10.56557 -1.70585,1.9244 -1.67431,1.95758 1.25,1.31501 1.65,-0.36256 6.15,-1.14174 10,-1.73151 3.85,-0.58977 7.45598,-1.45029 8.0133,-1.91227 0.55731,-0.46198 3.19061,-1.38821 5.85177,-2.0583 3.91591,-0.98604 4.99211,-0.96977 5.64418,0.0853 1.31894,2.13408 0.0607,3.74933 -3.43091,4.40435 -1.80571,0.33876 -7.82636,2.40799 -13.37921,4.5983 -5.55285,2.19032 -10.49953,3.98239 -10.99262,3.98239 -0.49309,0 -1.71102,0.9 -2.70651,2 -0.99549,1.1 -2.30273,2.00689 -2.90499,2.01531 -2.64691,0.037 -3.82195,1.69213 -2.69555,3.79683 0.74717,1.39609 0.77344,2.27199 0.081,2.69995 -0.56373,0.3484 -2.61075,3.84217 -4.54893,7.76393 -1.93819,3.92175 -3.98677,7.6881 -4.5524,8.36965 -0.56564,0.68155 -1.33234,3.40259 -1.70377,6.04676 -0.59597,4.24253 -1.09414,5.01245 -4.23864,6.55073 -1.95982,0.95874 -7.11851,2.65243 -11.46376,3.76376 -11.42231,2.92133 -12.02495,4.401 -1.47294,3.61648 4.675,-0.34758 10.17953,-0.91262 12.23228,-1.25565 5.00454,-0.83629 5.62085,1.03528 2.67854,8.13412 -3.36982,8.1303 -4.62959,9.11346 -12.69598,9.9083 -7.70152,0.75889 -13.46498,3.49916 -7.4834,3.55803 1.77729,0.0175 6.39392,-0.5105 10.25917,-1.17332 6.09563,-1.04529 7.23342,-0.99942 8.57863,0.34579 1.40121,1.40121 1.29594,2.08939 -1.09058,7.12981 -2.95249,6.23575 -5.71355,8.07344 -14.65483,9.75383 -2.92811,0.5503 -7.34883,1.66152 -9.82383,2.46939 -8.30739,2.71162 -25.88628,4.5063 -44.13929,4.5063 l -17.79114,0 -3.58588,-3.14844 z m 21.51629,-13.85156 c 1.02799,-0.66434 -1.42932,-0.97419 -7.80902,-0.98469 -5.95501,-0.01 -9.08634,0.34499 -8.69098,0.98469 0.79182,1.28119 14.5175,1.28119 16.5,0 z m -5,-19.75762 c 2.56126,-0.47724 0.68377,-0.83527 -7,-1.33484 -10.63359,-0.69137 -15,-0.36205 -15,1.13132 0,0.45212 1.0125,1.01312 2.25,1.24666 2.70212,0.50994 14.86178,-0.1323 19.75,-1.04314 z m -21.5227,-81.49238 c 5.58283,-5.26234 17.87378,-30.93911 13.5227,-28.25 -0.55,0.33992 -1,1.32969 -1,2.19949 0,3.51066 -4.2806,10.06389 -7.61125,11.65217 -3.12544,1.49042 -3.6558,1.48864 -6.82565,-0.023 -3.18663,-1.5196 -3.52657,-2.14067 -4.66819,-8.52875 -0.6772,-3.78939 -1.56498,-7.09604 -1.97285,-7.34812 -1.57682,-0.97449 -3.92206,0.87146 -3.92206,3.0871 0,1.4154 -1.11642,3.11988 -2.85378,4.35699 -2.43172,1.73154 -2.94793,2.93289 -3.49042,8.12314 -1.10468,10.56902 3.44332,17.98098 11.0332,17.98098 3.52289,0 4.98976,-0.61211 7.7883,-3.25 z m 27.97155,-54.77368 c -0.087,-14.4222 -5.57595,-22.69531 -12.38785,-18.67142 -2.49038,1.4711 -2.98236,1.49478 -4.06066,0.19551 -0.67482,-0.81311 -1.60581,-1.24424 -2.06885,-0.95807 -1.30731,0.80796 7.58779,16.83432 9.95988,17.94479 1.15975,0.54292 2.10863,1.80277 2.10863,2.79966 0,3.1969 2.99017,7.86249 4.80784,7.50172 1.43505,-0.28484 1.68439,-1.62378 1.64101,-8.81219 z m 106.94499,28.502 c -1.41025,-2.15231 -1.56804,-4.10028 -1.0001,-12.34641 0.37089,-5.38501 0.38775,-10.53775 0.0375,-11.45056 -0.35028,-0.9128 -2.46241,-2.15121 -4.69364,-2.75201 -6.74544,-1.81635 -8.7376,-3.63181 -8.7376,-7.96256 0,-2.09176 0.27314,-4.51501 0.60699,-5.38499 1.01525,-2.6457 4.88409,-1.77808 8.73101,1.958 3.02169,2.93462 3.97781,3.36156 5.59271,2.49729 1.42371,-0.76195 2.166,-0.70537 2.75832,0.21022 5.15966,7.97561 8.29149,15.05977 8.29038,18.7527 -10e-4,4.62416 -2.55248,12.87077 -4.72378,15.27003 -3.33634,3.68661 -5.04123,3.98682 -6.86179,1.20829 z m -8.31661,-46.517 c -2.03044,-2.22128 -4.4789,-5.37128 -5.44101,-7 -1.71019,-2.89512 -1.70258,-2.96132 0.34058,-2.96132 3.57433,0 13.25268,11.43719 11.31665,13.37322 -1.26969,1.26969 -2.60856,0.53482 -6.21622,-3.4119 z"
             id="path3006"
             inkscape:connector-curvature="0" />
          <path
             style="fill:#918f8c"
             d="m 216.17856,954.83243 c -4.66155,-2.20528 -6.25,-3.47584 -6.25,-4.99921 0,-2.58135 0.83977,-2.5406 9.96489,0.48358 4.69588,1.55628 9.74978,2.47396 13.62467,2.47396 10.35855,0 30.02943,-3.88522 43.91044,-8.6728 7.15,-2.46605 14.8,-5.02233 17,-5.68063 2.2,-0.6583 5.97534,-2.46839 8.38965,-4.02244 2.41431,-1.55404 5.78931,-3.30224 7.5,-3.88488 1.71069,-0.58264 4.18354,-1.88732 5.49521,-2.8993 1.31167,-1.01197 2.85124,-1.83995 3.42126,-1.83995 0.57002,0 1.74683,-0.62177 2.61514,-1.38172 0.86831,-0.75995 2.59124,-1.69027 3.82874,-2.06739 3.52071,-1.0729 2.69118,1.20605 -1.1616,3.19124 -1.87638,0.96683 -7.49358,4.12037 -12.48266,7.00787 -4.98907,2.8875 -9.60592,5.25 -10.25965,5.25 -0.65374,0 -1.89904,0.63528 -2.76735,1.41174 -2.12203,1.89756 -21.63345,11.58826 -23.33199,11.58826 -0.74071,0 -1.79006,0.44331 -2.33189,0.98514 -0.54182,0.54182 -3.21932,1.42525 -5.95,1.96317 -2.73067,0.53792 -8.11486,1.6618 -11.96486,2.4975 -4.21536,0.91501 -12.17148,1.52606 -20,1.53604 -12.3435,0.0157 -13.31563,-0.13274 -19.25,-2.94018 z m 114.75,-34.93468 c 0,-0.49116 0.7118,-1.16616 1.58179,-1.5 2.23506,-0.85768 2.41821,-0.79004 2.41821,0.89301 0,0.83333 -0.88889,1.5 -2,1.5 -1.1,0 -2,-0.40186 -2,-0.89301 z m -128.79189,-9.83351 c -2.46336,-0.30415 -4.03616,-1.43388 -6.24903,-4.48867 -4.32417,-5.96933 -3.14805,-6.77787 9.91337,-6.8151 9.67529,-0.0276 19.70457,-0.82439 50.12755,-3.98258 5.775,-0.5995 12.81926,-1.74185 15.65391,-2.53856 10.44013,-2.93433 13.09139,-1.72429 9.87023,4.50475 -1.21828,2.35589 -2.91993,3.29644 -9.75,5.38908 -18.12558,5.55342 -22.65206,6.63251 -31.98473,7.62496 -9.29303,0.98824 -30.64786,1.16218 -37.5813,0.30612 z m -2.20491,-17.95009 c -4.73022,-0.48651 -10.13406,-3.83086 -12.08739,-7.4807 -2.06879,-3.86557 0.35218,-4.59641 17.58419,-5.30832 8.8,-0.36355 20.95,-1.3213 27,-2.12833 6.05,-0.80703 16.175,-1.92128 22.5,-2.47612 6.325,-0.55484 13.975,-1.47547 17,-2.04584 9.33184,-1.75954 14.00189,-2.18254 13.95663,-1.26413 -0.0829,1.68156 -4.55382,8.72228 -6.00093,9.45011 -0.80063,0.40268 -4.1557,1.48388 -7.4557,2.40267 -3.3,0.91879 -8.7344,2.55082 -12.07645,3.62675 -10.17262,3.27494 -47.76694,6.52532 -60.42035,5.22391 z m -5.5032,-20.39527 c -6.037,-0.69774 -7.37832,-1.23211 -9.75,-3.88436 -1.5125,-1.69142 -2.75,-3.91326 -2.75,-4.93741 0,-1.02416 -0.71289,-3.56828 -1.5842,-5.65362 -0.8713,-2.08533 -1.37301,-4.89623 -1.1149,-6.24643 0.53264,-2.78636 -4.67934,-9.3164 -9.37334,-11.74376 -4.83949,-2.50259 -6.78623,-8.51733 -6.46114,-19.96254 0.37171,-13.08651 2.14127,-29.97656 3.37081,-32.17363 0.81044,-1.44818 1.16242,-1.04137 2.09475,2.42101 1.27443,4.73288 5.31831,10.01708 8.62915,11.27586 7.27946,2.76765 17.82605,-6.93445 25.02699,-23.02298 2.47368,-5.52678 2.90937,-7.77218 2.91052,-15 0.002,-9.61038 -1.66637,-14.30762 -5.26248,-14.8204 -3.22709,-0.46016 -3.70432,1.98215 -1.30594,6.68335 2.72494,5.34133 2.61386,11.42636 -0.32375,17.7352 -2.40658,5.16838 -3.95411,6.40159 -8.03327,6.40159 -4.08147,0 -6.00642,-3.44718 -6.41221,-11.48296 -0.32837,-6.50274 -0.0722,-7.81246 2.33006,-11.91155 2.27199,-3.87687 2.43609,-4.60549 1.03725,-4.60549 -0.91396,0 -3.1715,1.15155 -5.01676,2.559 -1.84527,1.40745 -4.99828,3.01272 -7.0067,3.56728 -2.59329,0.71604 -4.28253,2.07565 -5.82826,4.691 l -2.17658,3.68272 -0.31208,-4.3437 c -0.17164,-2.38903 0.36975,-6.34474 1.20309,-8.79046 0.83334,-2.44572 1.26644,-5.09493 0.96245,-5.88713 -0.304,-0.7922 1.23174,-4.93649 3.41275,-9.20954 4.3373,-8.49766 6.41828,-18.26917 3.89068,-18.26917 -1.74457,0 -3.32265,1.85874 -3.81077,4.48852 -0.203,1.09368 -1.15142,2.13918 -2.1076,2.32332 -2.37371,0.45714 -2.31636,-3.91713 0.12122,-9.24612 1.02286,-2.23614 3.31709,-7.43109 5.09828,-11.54431 4.54868,-10.50406 9.29485,-17.27904 18.57906,-26.52095 9.23521,-9.19313 23.17052,-20.50046 25.26505,-20.50046 1.07229,0 1.26634,0.80419 0.78421,3.25 -0.35235,1.7875 -0.91293,5.725 -1.24571,8.75 -0.595,5.40851 -0.57245,5.47089 1.35589,3.75 4.24618,-3.78938 7.12514,-0.58841 7.96455,8.85539 0.71735,8.07058 1.66893,9.82355 4.50786,8.3042 1.31567,-0.70412 2.35644,-0.71846 3.16951,-0.0437 0.66583,0.55259 3.44956,1.75258 6.18608,2.66665 3.63103,1.21287 6.56967,3.3131 10.87517,7.77246 5.09092,5.27284 6.41707,6.12347 9.67385,6.20519 2.92384,0.0734 4.74885,0.98421 8.10031,4.04288 2.37938,2.17151 7.25115,5.65154 10.82615,7.7334 5.13784,2.99195 7.48208,5.22108 11.18632,10.63708 l 4.68633,6.8519 -2.68633,0.43387 c -1.47747,0.23865 -6.96132,0.26819 -12.18632,0.0657 -21.90789,-0.84917 -27.4829,0.0336 -28.75045,4.5527 -1.46757,5.23219 -0.82091,21.40625 1.07435,26.87137 2.4743,7.13482 8.62562,14.51716 15.17741,18.21477 4.67623,2.6391 6.48944,3.08617 12.51679,3.08617 8.63992,0 14.09601,-2.45989 24.81011,-11.18569 6.71856,-5.47179 10.17179,-6.76051 10.17179,-3.79608 0,2.20925 -3.25687,7.26836 -6.52813,10.14057 -1.85691,1.63038 -3.65304,3.83661 -3.99142,4.90274 -0.33837,1.06612 -1.4849,1.93841 -2.54784,1.93841 -1.73118,0 -1.93403,0.75564 -1.94626,7.25 -0.008,3.9875 -0.28367,8.25741 -0.61368,9.4887 -1.13963,4.252 -8.70469,7.41939 -24.37267,10.2045 -2.475,0.43995 -8.325,1.93622 -13,3.32504 -4.675,1.38882 -10.975,2.83424 -14,3.21204 -3.025,0.37781 -9.27145,1.3243 -13.88099,2.10332 -13.65121,2.30707 -49.59126,1.62461 -61.36901,-1.16533 -4.28096,-1.01408 -3.23558,0.82806 2.00313,3.52989 4.49914,2.3204 5.81673,2.46666 25.24687,2.8026 11.275,0.19495 23.875,-0.0886 28,-0.63016 15.3283,-2.01231 23.64754,-3.23441 29,-4.26011 3.025,-0.57968 9.325,-1.63066 14,-2.33551 7.82376,-1.17958 11.39985,-2.07778 24,-6.02804 2.475,-0.77594 6.3,-1.68922 8.5,-2.02951 2.2,-0.3403 5.18414,-1.06718 6.63142,-1.61528 1.44728,-0.54811 4.14728,-0.8483 6,-0.6671 3.75849,0.36758 5.28469,-0.5589 -14.71045,8.93006 -3.34346,1.58669 -6.59013,2.88489 -7.21481,2.88489 -0.95358,0 -3.35068,3.30622 -3.62514,5 -0.0446,0.275 -1.99352,0.34697 -4.33102,0.15993 -2.60875,-0.20874 -4.25,0.0809 -4.25,0.75 0,0.59954 1.575,1.09007 3.5,1.09007 2.97098,0 3.49591,0.34008 3.47295,2.25 -0.0149,1.2375 -1.36488,5.38702 -3,9.22115 -1.63512,3.83414 -2.97984,7.88414 -2.98826,9 -0.0262,3.46435 -1.49864,4.64998 -8.10015,6.52216 -3.5115,0.99586 -10.93613,3.15546 -16.49919,4.79913 -6.87475,2.03122 -14.4022,3.36205 -23.5,4.15474 -7.36194,0.64145 -16.98535,1.56648 -21.38535,2.05563 -9.31621,1.03568 -12.48586,1.02491 -22,-0.0747 z m 24.15018,-122.17112 c 1.20816,-1.95484 0.41114,-14.68022 -1.31143,-20.9384 -2.25622,-8.19699 -4.60148,-10.01332 -13.2548,-10.26545 -3.86624,-0.11265 -7.48291,0.0754 -8.03704,0.41786 -0.60865,0.37616 -0.0921,1.98978 1.30469,4.07584 1.27172,1.89923 3.59693,5.92815 5.16714,8.95315 1.57022,3.025 4.87529,8.5375 7.34461,12.25 4.37799,6.58209 7.07696,8.27363 8.78683,5.507 z M 327.4949,812.8981 c -0.34705,-0.56154 1.16716,-1.54643 3.41124,-2.21877 3.99223,-1.1961 6.26091,-0.67536 4.45575,1.02274 -1.52744,1.43686 -7.18643,2.2972 -7.86699,1.19603 z m -1.23798,-46.17898 c -1.32288,-1.32288 -0.51458,-23.87822 0.92022,-25.67836 2.68754,-3.37187 6.04905,0.71961 7.19969,8.76317 1.16705,8.15817 -4.68536,20.34974 -8.11991,16.91519 z m -37.62111,-1.944 c -3.18908,-2.50853 -5.10273,-8.06273 -4.28315,-12.43148 0.34223,-1.82422 1.96463,-5.16989 3.60534,-7.43482 2.44483,-3.375 3.5684,-4.1153 6.22683,-4.10275 4.05455,0.0191 4.86073,0.55292 8.11687,5.37424 7.53402,11.1555 -3.69658,26.43668 -13.66589,18.59481 z m 25.33118,-27.59337 c -1.80417,-2.05484 -2.92537,-4.24324 -2.60359,-5.08179 0.31084,-0.81002 0.56516,-1.66097 0.56516,-1.89099 0,-0.23001 0.85338,-0.41821 1.89641,-0.41821 2.45441,0 8.41263,6.75228 7.66875,8.6908 -0.31084,0.81002 -0.56516,1.66097 -0.56516,1.89099 0,0.23001 -0.85338,0.41821 -1.89641,0.41821 -1.04302,0 -3.32234,-1.62405 -5.06516,-3.60901 z m -19.17765,-30.35772 c -1.29843,-1.0817 -1.82757,-1.9817 -1.17588,-2 2.12544,-0.0597 6.3151,1.89213 6.3151,2.94198 0,1.65474 -2.59264,1.17953 -5.13922,-0.94198 z m 31.63922,-2.1822 c -21.90039,-11.40135 -25.0221,-12.40278 -36.06015,-11.56797 -5.67539,0.42922 -9.14037,1.39527 -14.84361,4.13842 -8.37115,4.02636 -9.77609,4.25578 -12.06216,1.9697 -1.27741,-1.27741 -1.47532,-2.7884 -0.96084,-7.3358 0.4946,-4.37165 0.25176,-6.49315 -1.02607,-8.96421 -1.12766,-2.18064 -1.45464,-4.27409 -1.00186,-6.4142 0.77768,-3.67579 4.33534,-12.57408 5.78705,-14.47434 1.43981,-1.88469 2.63312,0.35962 2.65233,4.98831 0.008,2.03004 0.57235,4.03526 1.25319,4.45604 0.68083,0.42077 6.64333,2.16334 13.25,3.87236 20.04922,5.18636 28.35459,8.93406 44.27957,19.98062 6.99025,4.84887 9.10016,7.79666 7.87178,10.99776 -0.82636,2.15347 -2.37596,1.87427 -9.13923,-1.64669 z"
             id="path3004"
             inkscape:connector-curvature="0" />
          <path
             style="fill:#83817c"
             d="m 222.92856,956.14826 c -0.825,-0.26653 -3.525,-1.45391 -6,-2.63863 -5.82597,-2.78873 -2.79165,-3.67708 3.85885,-1.12975 3.63514,1.39236 7.18131,1.73515 16.35993,1.58141 6.44532,-0.10796 12.91136,-0.64971 14.36897,-1.20389 1.45762,-0.55419 5.77313,-1.45052 9.59003,-1.99185 3.81691,-0.54134 8.18404,-1.62765 9.70473,-2.41403 3.51141,-1.81582 7.54284,-2.35937 7.86749,-1.06076 0.1375,0.55 -0.9875,1.3704 -2.5,1.82312 -1.5125,0.45272 -3.65,1.21863 -4.75,1.70203 -1.1,0.48339 -7.80938,2.02549 -14.90973,3.42688 -12.03866,2.37605 -29.13226,3.34572 -33.59027,1.90547 z m 59.75,-12.01978 c 0.6875,-0.27741 1.8125,-0.27741 2.5,0 0.6875,0.27741 0.125,0.50439 -1.25,0.50439 -1.375,0 -1.9375,-0.22698 -1.25,-0.50439 z m -78.75,-36.67937 c -3.44964,-1.31619 -5.04205,-3.89629 -3.13296,-5.07617 0.53777,-0.33237 4.50019,-0.82617 8.80536,-1.09734 9.48368,-0.59735 26.1297,-2.09243 40.3276,-3.62207 11.61287,-1.25114 14.5,-1.03313 14.5,1.09487 0,2.30182 -5.58469,4.92334 -15.11733,7.09627 -11.50114,2.62163 -40.06953,3.63163 -45.38267,1.60444 z m -5.5,-18.60371 c -3.02546,-1.23829 -5.8582,-4.71523 -4.51696,-5.54416 0.61234,-0.37844 8.17915,-1.06788 16.81515,-1.53208 8.636,-0.4642 16.37681,-1.08171 17.20181,-1.37225 2.45861,-0.86583 25.49299,-3.60738 30.17006,-3.59084 8.9538,0.0317 8.73015,3.45771 -0.48824,7.4792 -5.33066,2.32549 -8.66019,2.88709 -24.18182,4.07882 -20.0995,1.5432 -32.00551,1.70693 -35,0.48131 z m -1.5,-20.23497 c -6.01976,-1.71986 -6.32999,-2.35308 -5.67814,-11.58986 0.32238,-4.56827 0.33077,-8.97147 0.0186,-9.7849 -0.51448,-1.3407 -10.01464,-6.29652 -17.99171,-9.38547 -7.33293,-2.83953 -9.93494,-9.99065 -3.09961,-8.51864 1.78796,0.38504 4.46927,1.32258 5.95848,2.08342 8.47581,4.3303 47.25504,4.30698 71.29235,-0.0429 4.4,-0.79623 14.075,-2.41297 21.5,-3.59274 7.425,-1.17978 16.2,-2.96929 19.5,-3.97668 3.3,-1.0074 8.12701,-2.1232 10.72669,-2.47956 2.59968,-0.35636 4.98874,-1.07193 5.30902,-1.59015 0.32028,-0.51819 1.70732,-0.94219 3.08232,-0.94219 1.41203,0 2.23104,0.43519 1.88197,1 -0.33992,0.55 -1.64673,1 -2.90403,1 -1.2573,0 -3.0774,0.87449 -4.04467,1.94332 -0.96728,1.06883 -3.17452,2.24237 -4.90499,2.60787 -1.73047,0.36551 -4.49631,1.46747 -6.14631,2.44881 -1.65,0.98134 -4.575,2.10634 -6.5,2.5 -1.925,0.39366 -4.85,1.51866 -6.5,2.5 -1.65,0.98134 -4.575,2.09139 -6.5,2.46678 -6.40151,1.24835 -6.73785,1.49236 -7.35213,5.33389 -0.3293,2.05928 -1.72023,5.26427 -3.09096,7.12219 -2.38278,3.22968 -2.42074,3.49907 -0.86439,6.13376 1.37775,2.33235 1.43373,3.22438 0.36434,5.8061 -1.9805,4.78135 -7.99411,6.21499 -36.05686,8.59588 -20.05001,1.70109 -23.16896,1.74131 -28,0.36107 z m 36.87307,-51.52405 c -1.44481,-0.22259 -3.67866,-1.52422 -4.9641,-2.89252 -1.95342,-2.07932 -2.14147,-2.80116 -1.14531,-4.39626 0.95898,-1.53557 0.88668,-2.21364 -0.37001,-3.47033 -0.85903,-0.85903 -2.00287,-3.15905 -2.54187,-5.11115 -1.06527,-3.85807 -2.76882,-4.08722 -4.34991,-0.58513 -1.3468,2.98317 -4.08851,2.33983 -3.7138,-0.87144 1.59826,-13.69746 1.52261,-14.91297 -1.16993,-18.79832 -1.43998,-2.07788 -2.61814,-4.26814 -2.61814,-4.86723 0,-2.1297 -2.96086,-2.2449 -4.07739,-0.15864 -0.75622,1.41302 -1.43307,1.74494 -2.13234,1.04567 -0.69927,-0.69927 -0.65223,-3.16192 0.14819,-7.75831 0.71069,-4.08104 0.90292,-9.82599 0.48797,-14.5829 -0.50004,-5.7324 -0.36793,-7.84906 0.4899,-7.84906 1.28809,0 5.00521,3.60013 6.58367,6.37645 1.34625,2.3679 4.15249,1.19624 6.08485,-2.54053 2.0907,-4.04297 1.62151,-11.74483 -1.30944,-21.49486 -3.38119,-11.24779 -4.89031,-12.49376 -15.45075,-12.75656 -7.99099,-0.19886 -11.82466,0.55033 -11.82466,2.3108 0,0.45372 1.60647,2.5283 3.56994,4.61018 3.55098,3.76514 9.43006,14.80607 9.43006,17.70969 0,1.95534 -6.35128,2.86277 -14.62951,2.09018 -4.54304,-0.42399 -6.96321,-0.15615 -9.35065,1.03487 -4.92699,2.4579 -9.63515,3.10465 -10.2844,1.41273 -0.29912,-0.77948 1.04223,-4.30527 2.98076,-7.83509 1.93853,-3.52982 3.94952,-8.44286 4.46887,-10.91786 1.4598,-6.95676 2.08059,-12 1.47713,-12 -0.30134,0 -2.1486,0.94445 -4.10504,2.09878 -2.50592,1.47853 -3.55716,2.8084 -3.55716,4.5 0,1.32067 -0.50248,2.40122 -1.11663,2.40122 -0.61415,0 -0.86414,-0.7875 -0.55553,-1.75 2.12491,-6.62732 4.79907,-13.70794 5.53006,-14.64246 0.47648,-0.60915 1.17328,-2.39018 1.54844,-3.95786 0.37517,-1.56767 1.49182,-4.04267 2.48145,-5.5 0.98963,-1.45732 3.02913,-4.52351 4.53222,-6.81374 4.95591,-7.55127 13.58701,-16.20936 21.79583,-21.86399 4.49807,-3.09849 8.7244,-5.32513 9.52464,-5.01804 1.17186,0.44968 1.30962,2.09994 0.74306,8.9014 -0.58417,7.0129 -0.45013,8.44353 0.83737,8.93759 1.71725,0.65897 3.09744,-0.69404 4.12409,-4.0429 0.79756,-2.60158 3.06051,-2.981 3.95027,-0.66233 0.67797,1.76675 -1.11184,33.14472 -1.96976,34.53286 -0.29895,0.48371 -1.41699,0.87947 -2.48453,0.87947 -2.50638,0 -2.51084,2.62466 -0.007,3.96482 2.7027,1.44645 4.06572,1.29062 4.06572,-0.46482 0,-2.00848 4.87685,-1.9845 5.64903,0.0278 1.18338,3.08383 4.16711,3.69402 9.46256,1.93515 3.02995,-1.00638 6.30471,-1.41981 8.29251,-1.0469 2.39071,0.4485 3.93998,0.1048 5.6905,-1.26242 1.32297,-1.03329 4.34174,-2.86188 6.70839,-4.06352 l 4.30299,-2.1848 5.87143,3.79735 c 3.22929,2.08855 8.39347,5.29557 11.47595,7.12671 5.60252,3.32817 7.74713,5.68956 9.0099,9.92065 0.59914,2.00749 0.32343,2.25 -2.55798,2.25 -1.77622,0 -5.60442,-0.74863 -8.5071,-1.66362 -5.24128,-1.65217 -5.31846,-1.64528 -11.21294,1 -3.26443,1.46499 -7.09539,2.66362 -8.51323,2.66362 -3.43309,0 -7.41296,1.88802 -8.19039,3.88545 -0.34562,0.888 -0.87105,5.43955 -1.16761,10.11455 -1.12624,17.75408 5.84048,32.36654 18.99315,39.83747 3.07656,1.74754 5.43499,2.16253 12.28984,2.16253 10.04173,0 12.98614,-1.21793 24.71101,-10.22152 4.2944,-3.29769 8.04285,-5.76095 8.3299,-5.47391 1.60915,1.60916 -8.63851,12.3317 -15.5226,16.24193 -5.52381,3.13758 -9.30031,3.85435 -18.87542,3.58249 -9.58417,-0.27212 -11.10369,0.25904 -8.61337,3.01082 1.6767,1.85273 1.67346,2.08761 -0.071,5.15072 -2.49026,4.3726 -9.55078,11.69547 -12.32683,12.78487 -1.55929,0.6119 -3.52008,0.39168 -6.25462,-0.70246 -4.36217,-1.7454 -9.88908,-1.24629 -13.39548,1.20969 -1.11296,0.77955 -2.48595,1.34995 -3.05107,1.26754 -0.56512,-0.0824 -2.20961,-0.33196 -3.65442,-0.55455 z m -60.07228,-8.63768 c -0.73813,-0.73814 -2.2923,-1.85062 -3.45371,-2.47219 -1.47333,-0.7885 -2.32105,-2.52651 -2.80438,-5.74958 -0.78778,-5.25331 -0.067,-6.94538 1.35988,-3.1924 0.94063,2.47404 4.88896,5.81443 8.34742,7.06212 2.18175,0.7871 2.29693,4.27026 0.16821,5.08712 -2.09697,0.80469 -2.07273,0.80961 -3.61742,-0.73507 z m 48.69921,-0.65794 c -0.33992,-0.55 0.0835,-1 0.94098,-1 0.85746,0 1.55902,0.45 1.55902,1 0,0.55 -0.42344,1 -0.94098,1 -0.51754,0 -1.2191,-0.45 -1.55902,-1 z m -38.5,-3.43261 c 0,-0.78794 0.7875,-1.68699 1.75,-1.99789 2.45821,-0.79404 13.8619,-11.88469 16.25364,-15.80747 3.13384,-5.1399 2.34288,-2.68501 -1.90933,5.92598 -2.84334,5.75795 -4.96596,8.64404 -7.80375,10.61063 -4.24162,2.93945 -8.29056,3.55908 -8.29056,1.26875 z m 3.56617,-28.49428 c -5.99469,-6.62405 -2.06183,-23.07311 5.51662,-23.07311 5.76565,0 8.52634,8.742 5.4684,17.3162 -2.62449,7.35882 -7.31209,9.81546 -10.98502,5.75691 z m 101.21732,-11.82311 c -4.26653,-4.89124 -4.94708,-10.82939 -1.82749,-15.94567 4.50316,-7.38539 10.35292,-7.93745 14.76306,-1.39325 3.84115,5.69988 2.71249,13.57551 -2.55649,17.83892 -2.30089,1.86177 -8.58294,1.55914 -10.37908,-0.5 z m 38.21651,-0.61766 c 0,-0.83287 0.40046,-1.7618 0.8899,-2.0643 0.48945,-0.30249 0.68868,-4.26655 0.44274,-8.80901 -0.2565,-4.73741 -0.0141,-8.89506 0.56845,-9.75067 3.14812,-4.62362 5.4353,9.25388 2.80845,17.04031 -1.44017,4.26891 -4.70954,6.7567 -4.70954,3.58367 z m -7.60461,-63.59729 c -6.58353,-3.28072 -14.41112,-6.48846 -17.39464,-7.12831 -7.06103,-1.51432 -17.91227,-0.63967 -25.73345,2.0742 -9.4277,3.27133 -10.64573,2.78796 -11.34413,-4.50184 -0.31726,-3.31149 -1.33997,-7.18558 -2.27269,-8.60909 -0.93272,-1.42351 -1.49823,-3.21411 -1.25669,-3.97911 0.24154,-0.76499 0.71032,-2.6284 1.04174,-4.1409 0.71185,-3.24871 2.55602,-3.52181 5.06447,-0.75 0.99549,1.1 2.81861,2 4.0514,2 4.2884,0 24.98934,4.89321 31.26557,7.39044 8.79671,3.50009 14.37716,6.75228 23.89066,13.92307 7.93629,5.98197 10.41264,9.68649 6.4751,9.68649 -0.9995,0 -7.2038,-2.68423 -13.78734,-5.96495 z"
             id="path3002"
             inkscape:connector-curvature="0" />
          <path
             style="fill:#807e79"
             d="m 231.65626,955.06903 c 1.77523,-0.22091 4.92523,-0.22454 7,-0.008 2.07476,0.21648 0.6223,0.39722 -3.2277,0.40166 -3.85,0.004 -5.54754,-0.17268 -3.7723,-0.39359 z m 41.7723,-7.27827 c 0.33992,-0.55 1.26648,-1 2.05902,-1 0.79254,0 1.44098,0.45 1.44098,1 0,0.55 -0.92656,1 -2.05902,1 -1.13246,0 -1.7809,-0.45 -1.44098,-1 z m -65.08729,-40.94278 c -8.83442,-2.112 -6.59542,-3.63445 6.57018,-4.46753 6.07372,-0.38433 13.39978,-1.08065 16.28012,-1.54739 2.88034,-0.46674 10.29949,-1.17509 16.48699,-1.57411 9.55426,-0.61614 11.25,-0.5042 11.25,0.74264 0,1.9872 -3.91956,3.63199 -11.33123,4.75501 -3.39282,0.51408 -8.86877,1.40446 -12.16877,1.97863 -6.73646,1.17208 -22.38369,1.23721 -27.08729,0.11275 z m -8.91271,-19.45895 c -1.9875,-1.58828 -1.9877,-1.60776 -0.0322,-3.11776 1.56806,-1.21083 3.70097,-1.39472 10.5,-0.90526 6.58147,0.47379 10.81855,0.14382 18.53222,-1.44325 23.37262,-4.80886 35.76789,-4.91892 30.16367,-0.26783 -3.10294,2.57521 -10.72935,4.17159 -24.50263,5.12896 -33.58927,2.33476 -32.52002,2.3161 -34.66104,0.60514 z m -0.25,-20.19345 c -0.6875,-0.31432 -1.25,-1.62969 -1.25,-2.92305 0,-1.29337 -0.47507,-3.6011 -1.05571,-5.12831 -0.77574,-2.04033 -0.72865,-3.38787 0.17756,-5.08114 1.01373,-1.89416 0.94182,-2.91559 -0.40392,-5.73763 -1.30464,-2.73585 -2.61024,-3.72892 -6.42756,-4.88893 -7.67586,-2.33253 -19.31104,-7.35449 -21.38238,-9.22903 -1.04939,-0.94969 -1.90799,-2.38204 -1.90799,-3.18301 0,-1.81167 5.1502,-1.02884 10.14934,1.54271 2.95893,1.52206 6.74111,1.71221 32.35066,1.62643 18.24706,-0.0611 30.85395,-0.53025 34,-1.26523 2.75,-0.64246 7.925,-1.63008 11.5,-2.19472 3.575,-0.56464 10.325,-1.748 15,-2.6297 4.675,-0.88169 10.75,-1.94133 13.5,-2.35476 2.75,-0.41342 6.98165,-1.49481 9.40367,-2.40308 4.34935,-1.63104 7.76467,-1.44578 6.64824,0.36063 -0.31616,0.51157 -2.03218,1.23829 -3.81338,1.61494 -1.78119,0.37664 -4.64165,1.53626 -6.35656,2.57693 -1.71492,1.04067 -3.98227,1.89213 -5.03856,1.89213 -1.05629,0 -3.67807,0.89605 -5.82617,1.99121 -2.14811,1.09517 -6.62753,2.48478 -9.95426,3.08804 -3.32674,0.60325 -7.4428,1.67935 -9.1468,2.39133 -1.70401,0.71197 -6.43224,1.59595 -10.50719,1.96439 -9.75782,0.88225 -12.90899,1.52779 -12.90899,2.64449 0,0.50629 4.24844,0.92054 9.44098,0.92054 5.19254,0 9.70726,0.43084 10.0327,0.95741 0.32544,0.52658 -0.773,1.66313 -2.44098,2.52568 -3.5941,1.85858 -3.62145,2.03894 -0.96905,6.38959 3.2072,5.2607 2.07946,6.47456 -5.32644,5.73322 -3.43047,-0.34339 -12.65055,-0.68918 -20.48907,-0.76843 -12.47098,-0.12608 -14.50154,0.0819 -16.25,1.66421 -3.06599,2.77468 -2.47132,3.37349 3.67286,3.69842 5.54771,0.29338 8.02293,1.9359 4.788,3.17726 -2.31366,0.88783 -17.71279,1.71151 -19.209,1.02746 z m 18.50632,-15.15482 c 0.28819,-0.87787 -0.95414,-1.25 -4.17299,-1.25 -4.34375,0 -6.05507,1.21211 -3.33333,2.36096 2.17214,0.91686 7.07904,0.19062 7.50632,-1.11096 z m 1.61868,-6.26531 c 1.73851,-0.0125 1.85219,-0.19162 0.625,-0.98469 -1.73356,-1.12031 -8.02015,-1.31323 -10.5951,-0.32513 -1.63311,0.62668 -1.6211,0.73143 0.16821,1.46719 1.05979,0.43578 3.22064,0.58209 4.80189,0.32513 1.58125,-0.25695 3.83125,-0.47408 5,-0.4825 z m 24.625,17.21977 c 0,-1.17322 5.81225,-2.72554 6.73817,-1.79962 0.90622,0.90621 -0.0689,1.51131 -3.56109,2.20974 -1.94881,0.38977 -3.17708,0.23121 -3.17708,-0.41012 z m 7.49521,-58.84299 c -1.10264,-1.38257 -3.55248,-2.8303 -5.44409,-3.21718 -2.78434,-0.56946 -3.59659,-1.31038 -4.26521,-3.89069 -0.67025,-2.58656 -1.54533,-3.381 -4.64297,-4.21511 -2.51376,-0.67689 -4.20681,-1.88324 -4.95856,-3.53316 -1.38042,-3.0297 -4.68871,-3.30002 -6.18438,-0.50533 -0.5887,1.1 -1.67705,2 -2.41855,2 -2.15576,0 -2.54504,-3.77258 -0.64369,-6.23811 2.81868,-3.65508 3.15564,-6.66849 0.98803,-8.8361 -2.23205,-2.23205 -4.15555,-2.42376 -6.93057,-0.69073 -1.69685,1.0597 -2.20393,0.91198 -3.57144,-1.04041 -1.03636,-1.47961 -2.21823,-2.07728 -3.37916,-1.70881 -1.64626,0.5225 -1.78536,-0.37036 -1.78536,-11.4596 0,-9.5798 0.28176,-12.02624 1.38507,-12.02624 1.12871,0 4.51166,4.32453 5.6017,7.16083 0.13968,0.36345 2.05397,0.79141 4.25397,0.95102 3.10951,0.2256 3.90585,-0.0328 3.57706,-1.16082 -0.23261,-0.79807 -0.30734,-6.44055 -0.16607,-12.53886 0.22573,-9.74391 0.005,-11.5014 -1.82333,-14.5 -1.1441,-1.87669 -2.08187,-4.45123 -2.08392,-5.72119 -0.008,-5.21512 3.01769,0.67703 5.93657,11.55902 0.62698,2.3375 1.71999,4.25 2.42889,4.25 0.70891,0 2.35522,-2.3625 3.65847,-5.25 2.49628,-5.53079 5.65625,-9.75 7.30225,-9.75 0.53971,0 2.45625,1.125 4.25897,2.5 1.80271,1.375 3.52355,2.5 3.82406,2.5 0.30052,0 1.4783,-1.82667 2.61729,-4.05928 2.43577,-4.77451 6.95772,-9.19706 12.30337,-12.03294 l 3.83362,-2.03374 6.2361,4.06298 c 3.42986,2.23464 6.55188,4.06298 6.93783,4.06298 1.11174,0 9.03229,5.34223 10.37704,6.99908 0.67,0.8255 1.2325,2.51342 1.25,3.75092 0.0391,2.7629 -1.79134,2.87887 -8.94949,0.56705 -4.42473,-1.42903 -5.68683,-1.48768 -8.36484,-0.38874 -5.96156,2.44637 -11.16045,4.05319 -14.91144,4.60869 -5.2137,0.77211 -6.70631,3.51697 -7.39521,13.59955 -0.62732,9.18141 0.75732,16.32862 5.03902,26.01029 2.65497,6.00336 12.87889,16.37963 17.21028,17.46674 1.37313,0.34463 6.42946,0.43857 11.2363,0.20876 7.958,-0.38048 9.27312,-0.74672 14.70344,-4.09467 3.28006,-2.02224 7.48722,-5.03825 9.34925,-6.70224 3.58609,-3.20468 5.11449,-3.76335 5.11449,-1.8695 0,1.48299 -10.10684,10.82979 -11.71921,10.83792 -0.67056,0.003 -2.99156,0.92996 -5.15778,2.05905 -3.44218,1.79417 -5.24205,1.99507 -14.28079,1.59406 -5.68822,-0.25236 -11.91722,-0.76405 -13.84222,-1.13709 -1.925,-0.37304 -3.01121,-0.30287 -2.4138,0.15594 1.39838,1.07395 3.43111,6.98355 2.66548,7.74918 -0.32176,0.32175 -2.05287,0.58501 -3.84692,0.58501 -3.05031,0 -3.86998,0.50876 -7.19419,4.4653 -1.79327,2.13439 -3.37669,1.82858 -5.71536,-1.10383 z m -11.1446,-75.12872 c -0.32113,-1.22801 -1.20639,-2.23275 -1.96724,-2.23275 -1.66571,0 -1.76458,1.41919 -0.29073,4.1731 1.36693,2.55413 3.05415,1.10425 2.25797,-1.94035 z m -47.29475,69.20779 c 1.32248,-1.40771 2.56846,-2.06758 2.76886,-1.46638 0.50629,1.51887 -1.74887,4.02584 -3.62148,4.02584 -1.18041,0 -0.97632,-0.61264 0.85262,-2.55946 z m -4.3197,-21.69054 c -4.35135,-3.30428 -5.01673,-13.4012 -1.24858,-18.94654 3.06854,-4.51575 5.96335,-5.61034 8.57847,-3.24368 4.57576,4.141 4.20922,16.25585 -0.63849,21.10357 -2.63445,2.63445 -4.29749,2.90452 -6.6914,1.08665 z m 99.80472,-13.48934 c -4.81632,-5.19419 -4.60275,-12.04495 0.5357,-17.1834 4.24316,-4.24315 7.81393,-4.10493 11.81983,0.45754 2.42835,2.76573 3.10359,4.45787 3.10359,7.77749 0,9.99307 -9.42937,15.45118 -15.45912,8.94837 z m 40.93225,-5.30414 c -1.10259,-1.78402 -0.75471,-13.07494 0.43963,-14.26928 1.46428,-1.46428 2.48096,1.74224 2.53903,8.0079 0.0493,5.32234 -1.52009,8.62139 -2.97866,6.26138 z M 170.92856,744.75092 c 0,-1.42843 3.91306,-9.09537 5.65672,-11.08334 1.26741,-1.44498 2.24896,-5.25071 3.99992,-15.50871 0.64453,-3.77596 -1.06992,-5.20906 -3.54839,-2.96607 -0.97115,0.87888 -2.0678,1.59796 -2.43699,1.59796 -1.20253,0 -0.707,-5.12506 0.75858,-7.84571 0.78641,-1.45986 1.88871,-4.11884 2.44956,-5.90884 2.74925,-8.77442 18.22852,-26.63078 29.28702,-33.78448 3.79277,-2.45354 7.38514,-4.46097 7.98304,-4.46097 0.75117,0 0.87304,2.56964 0.39439,8.31579 -0.575,6.90287 -0.42735,8.536 0.86899,9.61187 2.11353,1.75408 4.39084,0.70274 5.16577,-2.38484 0.65723,-2.61862 1.85341,-3.27084 2.89824,-1.58027 0.32719,0.5294 0.13658,4.61763 -0.42358,9.08496 -0.73365,5.85102 -1.65253,8.92033 -3.28587,10.97575 -1.24707,1.56934 -3.52949,4.88974 -5.07205,7.37866 -2.24259,3.61842 -2.5933,4.92024 -1.75,6.49596 1.67204,3.12424 1.3601,3.32767 -4.19535,2.73606 -5.57377,-0.59357 -6.19895,-0.60868 -11.87795,-0.28695 -3.54878,0.20105 -6.87205,2.02683 -6.87205,3.77545 0,0.48266 1.75242,2.62998 3.89427,4.77183 4.06636,4.06636 9.10573,12.96599 9.10573,16.0809 0,2.60063 -2.35836,3.16145 -10.40407,2.47409 -5.66271,-0.48377 -8.38461,-0.1864 -13.4762,1.47226 -7.15554,2.33104 -9.11973,2.55474 -9.11973,1.03864 z m 148.23822,-45.47399 c -6.11347,-3.03261 -14.35663,-6.2458 -18.31814,-7.14042 -6.6526,-1.50235 -7.86029,-1.50223 -15.81142,0.002 -4.73476,0.8955 -10.51882,2.17603 -12.85346,2.84562 -5.3367,1.5306 -6.51457,0.54293 -6.88673,-5.77473 -0.14977,-2.54239 -0.96894,-5.68573 -1.82039,-6.9852 -1.80358,-2.75261 -1.97854,-5.7602 -0.49622,-8.52995 1.04293,-1.94872 1.0761,-1.94816 3.90437,0.0657 1.56888,1.11715 4.13394,2.03117 5.70012,2.03117 4.74442,0 22.49729,3.76655 28.17632,5.97805 9.59076,3.73479 16.78366,7.82096 24.28739,13.79728 4.05897,3.23275 7.99754,6.63079 8.75238,7.5512 2.76545,3.37201 -3.30737,1.77836 -14.63422,-3.84036 z"
             id="path3000"
             inkscape:connector-curvature="0" />
          <path
             style="fill:#6e6d68"
             d="m 203.19939,886.18659 c 0.3323,-0.33229 1.19479,-0.36781 1.91667,-0.0789 0.79773,0.31922 0.56078,0.55618 -0.60417,0.60416 -1.05416,0.0434 -1.64479,-0.19293 -1.3125,-0.52522 z m -9.05926,-43.57869 c -3.35068,-0.37557 -7.05437,-1.19783 -8.23042,-1.82723 -1.17606,-0.62941 -4.24043,-1.79207 -6.80972,-2.58369 -2.56929,-0.79162 -6.02143,-2.59621 -7.67143,-4.01019 l -3,-2.57087 3.5,0.63418 c 25.1731,4.56126 58.06074,4.55841 77.5,-0.007 3.3,-0.77497 10.05,-1.83527 15,-2.35622 4.95,-0.52094 10.26679,-1.43074 11.8151,-2.02178 3.43676,-1.31193 12.02307,-1.43081 11.23492,-0.15555 -0.31241,0.50548 -2.89577,1.41828 -5.74081,2.02843 -2.84504,0.61015 -5.7139,1.55844 -6.37525,2.10731 -0.66135,0.54887 -4.81513,1.63312 -9.23061,2.40944 -4.41548,0.77632 -9.75507,1.86512 -11.86575,2.41956 -2.11068,0.55444 -6.7626,1.27435 -10.3376,1.59982 -3.575,0.32546 -10.325,1.23619 -15,2.02384 -12.28649,2.07006 -27.7606,3.09741 -34.78843,2.30967 z m 99.78843,-18.81714 c 1.95837,-1.2656 3.28218,-1.2656 2.5,0 -0.33992,0.55 -1.37898,0.99311 -2.30902,0.98469 -1.45727,-0.0132 -1.48367,-0.14929 -0.19098,-0.98469 z m -45.68209,-34.25 c -0.50985,-0.6875 -1.4553,-2.4875 -2.10101,-4 -0.93344,-2.18647 -0.90937,-2.75 0.11745,-2.75 1.59818,0 6.66565,5.17319 6.66565,6.80472 0,1.57912 -3.5008,1.5382 -4.68209,-0.0547 z m 10.08179,-1.51531 c -0.60516,-0.40408 -1.63349,-1.74719 -2.28518,-2.98469 -0.65169,-1.2375 -1.80953,-2.25 -2.57298,-2.25 -0.76345,0 -2.67345,-1.08156 -4.24443,-2.40346 -1.94469,-1.63634 -3.66424,-2.24902 -5.38755,-1.91958 -3.35649,0.64163 -5.46585,-1.76902 -3.97895,-4.5473 1.51876,-2.83784 1.43327,-2.96786 -2.18061,-3.3163 -2.68921,-0.25929 -3.30365,-0.77801 -3.5609,-3.00618 -0.24783,-2.14645 0.31015,-3.01399 2.75,-4.27568 3.39164,-1.75389 4.14464,-5.38718 1.5609,-7.5315 -2.28636,-1.89751 -1.94449,-6 0.5,-6 1.11111,0 2,-0.66667 2,-1.5 0,-0.825 -0.45,-1.5 -1,-1.5 -1.83492,0 -1.0307,-2.12315 1.92308,-5.07692 4.48636,-4.48637 5.69173,-3.88249 6.43446,3.22361 0.35335,3.38068 0.64246,8.03962 0.64246,10.3532 0,6.58639 6.44157,22.95761 11.13911,28.30998 2.80747,3.19884 3.02159,5.20657 0.55187,5.17482 -0.65504,-0.008 -1.68611,-0.34592 -2.29128,-0.75 z m 42.1003,-0.23469 c 0.33992,-0.55 1.06803,-1 1.61803,-1 0.55,0 0.72189,0.45 0.38197,1 -0.33992,0.55 -1.06803,1 -1.61803,1 -0.55,0 -0.72189,-0.45 -0.38197,-1 z m 5,-4 c 0.33992,-0.55 1.04148,-1 1.55902,-1 0.51754,0 0.94098,0.45 0.94098,1 0,0.55 -0.70156,1 -1.55902,1 -0.85746,0 -1.2809,-0.45 -0.94098,-1 z m -118.18738,-9.64564 c -4.40269,-6.71934 -0.55538,-20.35436 5.74326,-20.35436 4.20816,0 6.37124,4.57268 5.61754,11.8753 -0.99866,9.67607 -7.43096,14.47677 -11.3608,8.47906 z m 24.49211,-4.65953 c -2.23697,-2.07315 -2.49799,-3.12731 -2.59338,-10.47351 -0.0583,-4.4926 0.32389,-8.43408 0.84939,-8.75886 0.5255,-0.32477 1.79872,1.37677 2.82939,3.78121 1.03066,2.40445 3.05202,5.14363 4.4919,6.08708 3.13068,2.0513 3.2814,4.06888 0.62893,8.41925 -2.35792,3.86728 -2.95481,3.95815 -6.20623,0.94483 z m 77.8542,-5.74848 c -1.43594,-1.1295 -3.12968,-3.78555 -3.76388,-5.90232 -0.98331,-3.28199 -0.87642,-4.40572 0.72593,-7.63182 2.68178,-5.39938 6.61675,-8.06637 10.09607,-6.84276 3.4322,1.20704 7.28295,6.82649 7.28295,10.62809 0,5.76656 -4.90322,11.80246 -9.58765,11.80246 -1.17845,0 -3.31749,-0.92414 -4.75342,-2.05365 z m 39.83229,-8.974 c -0.35902,-1.13118 -0.32875,-3.95022 0.0673,-6.26452 0.58555,-3.42195 0.86766,-3.8343 1.51048,-2.20783 1.11178,2.813 1.11374,9.26904 0.003,9.9555 -0.51041,0.31545 -1.22175,-0.35197 -1.58078,-1.48315 z M 171.92856,743.7411 c 0,-1.34813 2.78264,-6.73145 5.14333,-9.95034 1.00841,-1.375 2.3581,-4.975 2.9993,-8 2.16301,-10.20439 1.10481,-14.4205 -2.97925,-11.86996 -3.15254,1.96879 -3.64236,0.40148 -1.28686,-4.11765 1.16791,-2.24069 2.12348,-4.78876 2.12348,-5.66237 0,-2.16415 6.24848,-12.29538 9.422,-15.27674 1.4179,-1.33205 2.578,-2.95295 2.578,-3.602 0,-2.84977 20.48961,-18.47128 24.22744,-18.47128 0.607,0 0.71306,2.61364 0.28076,6.91838 -0.93367,9.29702 -0.27997,11.08162 4.05919,11.08162 3.41161,0 3.43261,0.0281 3.43261,4.59023 0,3.93509 -0.45427,4.96984 -3.18286,7.25 -9.64682,8.06141 -12.32319,11.03616 -11.06714,12.30101 0.6875,0.69232 1.25,2.06849 1.25,3.05816 0,1.35711 -0.79885,1.80697 -3.25,1.83021 -9.62189,0.0912 -12.65183,0.58286 -14.63858,2.37538 -2.86875,2.58827 -2.65244,4.50832 0.63858,5.66852 5.09418,1.79587 13.59859,17.3952 10.5,19.25976 -1.62389,0.97717 -8.7535,-0.91092 -8.88465,-2.35286 -0.0741,-0.81423 -0.18656,-2.04291 -0.25,-2.73041 -0.12186,-1.32057 -6.11535,-1.80135 -6.11535,-0.49055 0,0.4177 0.98462,1.37436 2.18805,2.12591 2.11943,1.32361 2.12911,1.40956 0.30887,2.74055 -1.03355,0.75575 -3.15762,1.37409 -4.72017,1.37409 -1.56254,0 -4.45649,0.675 -6.43099,1.5 -4.21322,1.7604 -6.34576,1.91174 -6.34576,0.45034 z m 77.50291,-8.78076 c -1.82953,-1.82954 1.61056,-11.12009 6.11743,-16.52118 5.36674,-6.43156 9.40269,-7.10467 15.87966,-2.6484 2.39819,1.65 4.80963,3 5.35875,3 0.54911,0 1.6381,0.6397 2.41996,1.42157 0.78186,0.78186 3.1765,2.2452 5.32143,3.25188 3.01777,1.41633 3.97451,2.4838 4.22989,4.71944 0.31659,2.77152 0.19714,2.86254 -2.93438,2.23624 -4.24083,-0.84817 -6.81529,-3.22044 -6.17054,-5.68595 0.75808,-2.89891 -2.33608,-2.46654 -4.35056,0.60793 -0.91935,1.40311 -2.91975,3.19658 -4.44533,3.98549 -3.42755,1.77245 -20.73635,6.32294 -21.42631,5.63298 z m 72.16721,-35.20558 c -4.30643,-2.21747 -11.28143,-5.19589 -15.5,-6.61872 -6.67506,-2.25134 -8.7802,-2.51646 -16.22686,-2.04357 -4.7062,0.29886 -11.38298,1.27573 -14.83729,2.17083 -7.39261,1.91562 -9.10597,1.13762 -9.10597,-4.13482 0,-1.87957 -0.81005,-5.08697 -1.8001,-7.12756 -1.71505,-3.53486 -1.89812,-8.21016 -0.32148,-8.21016 0.40663,0 1.61283,0.66069 2.68045,1.4682 1.06762,0.80751 3.74113,1.49036 5.94113,1.51746 6.19398,0.0763 20.37957,2.67447 26.75367,4.90013 12.34597,4.31085 31.74633,16.97863 31.74633,20.72926 0,2.00022 -0.66248,1.81198 -9.32988,-2.65105 z"
             id="path2998"
             inkscape:connector-curvature="0" />
        </g>
        <flowRoot
           xml:space="preserve"
           id="flowRoot3031"
           style="font-size:36px;font-style:normal;font-weight:normal;line-height:125%;letter-spacing:0px;word-spacing:0px;fill:#6e6d68;fill-opacity:1;stroke:#000000;stroke-opacity:1;font-family:Sans"
           transform="translate(-216.17265,29.294424)"><flowRegion
             id="flowRegion3033"><rect
               id="rect3035"
               width="1163.6957"
               height="262.63968"
               x="-80.812202"
               y="427.07776"
               style="fill:#6e6d68;fill-opacity:1;stroke:#000000;stroke-opacity:1" /></flowRegion><flowPara
             id="flowPara3037"
             style="font-size:144px;font-style:normal;font-variant:normal;font-weight:normal;font-stretch:normal;fill:#6e6d68;fill-opacity:1;stroke:#000000;stroke-opacity:1;font-family:Agency FB;-inkscape-font-specification:Agency FB">RobotShop.com</flowPara></flowRoot>      </g>
      <flowRoot
         transform="translate(12.121831,4.5351726e-8)"
         style="font-size:36px;font-style:normal;font-weight:normal;line-height:125%;letter-spacing:0px;word-spacing:0px;fill:#6e6d68;fill-opacity:1;stroke:#000000;stroke-width:1;stroke-miterlimit:5.5999999;stroke-opacity:1;stroke-dasharray:none;filter:url(#filter3833);font-family:Sans"
         id="flowRoot3039"
         xml:space="preserve"><flowRegion
           id="flowRegion3041"><rect
             style="fill:#6e6d68;fill-opacity:1;stroke:#000000;stroke-width:1;stroke-miterlimit:5.5999999;stroke-opacity:1;stroke-dasharray:none"
             y="628.09808"
             x="-265.6701"
             height="72.73098"
             width="744.48242"
             id="rect3043" /></flowRegion><flowPara
           id="flowPara3045"><flowSpan
             id="flowSpan3055"
             style="font-size:48px;fill:#6e6d68;fill-opacity:1;stroke:#000000;stroke-width:1;stroke-miterlimit:5.5999999;stroke-opacity:1;stroke-dasharray:none"><flowSpan
               id="flowSpan3057"
               style="font-size:56px;fill:#6e6d68;fill-opacity:1;stroke:#000000;stroke-width:1;stroke-miterlimit:5.5999999;stroke-opacity:1;stroke-dasharray:none">Robotics at your service! </flowSpan></flowSpan></flowPara></flowRoot>      <flowRoot
         style="fill:black;stroke:none;stroke-opacity:1;stroke-width:1px;stroke-linejoin:miter;stroke-linecap:butt;fill-opacity:1;font-family:Sans;font-style:normal;font-weight:normal;font-size:36px;line-height:125%;letter-spacing:0px;word-spacing:0px"
         id="flowRoot3008"
         xml:space="preserve"><flowRegion
           id="flowRegion3010"><rect
             y="306.8299"
             x="675.79205"
             height="47.477169"
             width="73.741135"
             id="rect3012" /></flowRegion><flowPara
           id="flowPara3014"></flowPara></flowRoot>      <text
         sodipodi:linespacing="125%"
         id="text3016"
         y="660.32068"
         x="360.11197"
         style="font-size:36px;font-style:normal;font-weight:normal;line-height:125%;letter-spacing:0px;word-spacing:0px;fill:#6e6d68;fill-opacity:1;stroke:#000000;stroke-opacity:1;font-family:Sans"
         xml:space="preserve"><tspan
           y="660.32068"
           x="360.11197"
           id="tspan3018"
           sodipodi:role="line"></tspan></text>
    </g>
  </g>
</svg>
