<?xml version="1.0" encoding="UTF-8" standalone="no"?>
<!-- Created with Inkscape (http://www.inkscape.org/) -->

<svg
   xmlns:dc="http://purl.org/dc/elements/1.1/"
   xmlns:cc="http://creativecommons.org/ns#"
   xmlns:rdf="http://www.w3.org/1999/02/22-rdf-syntax-ns#"
   xmlns:svg="http://www.w3.org/2000/svg"
   xmlns="http://www.w3.org/2000/svg"
   xmlns:sodipodi="http://sodipodi.sourceforge.net/DTD/sodipodi-0.dtd"
   xmlns:inkscape="http://www.inkscape.org/namespaces/inkscape"
   width="807.0639"
   height="337.97479"
   id="svg2"
   version="1.1"
   inkscape:version="0.48.4 r9939"
   sodipodi:docname="VEX Robotics.svg"
   inkscape:export-filename="C:\Users\Steve.EDWARDSHOME\SkyDrive\dprg\sponsors\VEX Robotics.png"
   inkscape:export-xdpi="300"
   inkscape:export-ydpi="300">
  <defs
     id="defs4" />
  <sodipodi:namedview
     id="base"
     pagecolor="#ffffff"
     bordercolor="#666666"
     borderopacity="1.0"
     inkscape:pageopacity="0.0"
     inkscape:pageshadow="2"
     inkscape:zoom="0.49497475"
     inkscape:cx="844.83609"
     inkscape:cy="130.99101"
     inkscape:document-units="px"
     inkscape:current-layer="layer1"
     showgrid="false"
     fit-margin-top="0"
     fit-margin-left="0"
     fit-margin-right="0"
     fit-margin-bottom="0"
     inkscape:window-width="1536"
     inkscape:window-height="803"
     inkscape:window-x="-8"
     inkscape:window-y="-8"
     inkscape:window-maximized="1" />
  <metadata
     id="metadata7">
    <rdf:RDF>
      <cc:Work
         rdf:about="">
        <dc:format>image/svg+xml</dc:format>
        <dc:type
           rdf:resource="http://purl.org/dc/dcmitype/StillImage" />
        <dc:title></dc:title>
      </cc:Work>
    </rdf:RDF>
  </metadata>
  <g
     inkscape:label="Layer 1"
     inkscape:groupmode="layer"
     id="layer1"
     transform="translate(47.591723,-312.61969)">
    <g
       id="g3865">
      <path
         style="fill:#f6a19c"
         d="m 72.408277,649.96012 c -11.384,-3.71055 -12.51031,-6.00064 -12.4692,-25.35319 0.0354,-16.69054 1.16951,-20.72747 6.64042,-23.63819 2.90146,-1.54367 6.3037,-1.77685 26.50282,-1.81642 21.901513,-0.0429 23.329223,0.0683 26.000003,2.02569 5.38698,3.94801 6.32269,7.41667 6.32441,23.44452 0.002,17.1772 -0.99616,20.12541 -8.03433,23.7344 -4.12754,2.1165 -5.5472,2.24532 -23.926013,2.17105 -10.74596,-0.0434 -20.21311,-0.29896 -21.03811,-0.56786 z m 41.842783,-5.27298 c 5.41287,-2.76144 6.15722,-5.2372 6.15722,-20.47938 0,-12.1615 -0.19435,-13.59346 -2.26124,-16.66051 -1.24368,-1.8455 -3.38118,-3.66719 -4.75,-4.04821 -1.36882,-0.38101 -10.81376,-0.73097 -20.988763,-0.77769 -19.92615,-0.0915 -21.74148,0.27665 -25.35325,5.14148 -1.8563,2.5003 -2.02963,4.05597 -1.86892,16.77366 0.0987,7.80996 0.65822,14.91669 1.26347,16.04762 0.59749,1.11641 2.52012,2.90408 4.27252,3.97259 2.84759,1.7363 5.12984,1.94315 21.47602,1.94649 16.066313,0.003 18.747323,-0.22965 22.052943,-1.91605 z m 180.55829,4.05172 c -2.25441,-1.04438 -5.17941,-3.41381 -6.5,-5.2654 -2.28786,-3.2078 -2.40107,-4.10082 -2.40107,-18.9398 0,-14.96986 0.0969,-15.71493 2.5,-19.22939 3.98628,-5.82972 5.83565,-6.19734 31.17667,-6.19734 21.36063,0 22.84052,0.12019 25.5,2.07108 5.36677,3.93686 6.32006,7.43812 6.32178,23.21876 0.001,12.34159 -0.27246,14.82695 -2.00826,18.22939 -3.51586,6.89165 -5.6206,7.4445 -29.49019,7.74618 -18.86391,0.23841 -21.41694,0.0723 -25.09893,-1.63348 z m 45.5284,-4.09595 c 5.13952,-2.62198 6.07053,-5.72263 6.07053,-20.21732 0,-21.09765 -0.94249,-21.82591 -28.21788,-21.80392 -19.71672,0.0159 -21.54896,0.40288 -25.18572,5.31934 -1.90107,2.57002 -2.08188,4.06078 -1.94056,16 0.0857,7.24126 0.63699,14.40321 1.22507,15.91546 0.58808,1.51225 2.54296,3.64807 4.34416,4.74626 2.95728,1.80305 5.04893,1.99709 21.56477,2.00046 16.20925,0.003 18.72778,-0.21968 22.13963,-1.96028 z m 228.81105,4.53471 c -8.53273,-3.04481 -9.741,-6.12021 -9.73897,-24.78857 0.002,-15.76296 0.95662,-19.27554 6.30693,-23.19995 2.53349,-1.85829 4.54786,-2.09612 20.57217,-2.4289 22.06204,-0.45817 28.37004,0.58915 31.20755,5.18136 2.10543,3.40742 2.19733,8.75348 0.16196,9.42164 -0.72477,0.23792 -2.07762,-1.52084 -3.22022,-4.18642 -1.34107,-3.1286 -2.84911,-4.9308 -4.72174,-5.64277 -1.66918,-0.63462 -9.93276,-0.92433 -21.00951,-0.73657 l -18.25815,0.30949 -2.77027,2.76988 c -2.72685,2.72646 -2.7754,2.99063 -3.0977,16.85595 -0.38157,16.41511 0.33743,19.07338 5.93074,21.92688 3.32851,1.69808 5.94013,1.94729 20.40651,1.94729 19.52953,0 21.54403,-0.6269 24.55014,-7.63988 2.25141,-5.25233 4.30148,-5.32646 4.74214,-0.17146 0.39038,4.56681 -3.2133,9.01875 -8.60889,10.63531 -5.61338,1.68181 -37.56402,1.49118 -42.45269,-0.25328 z m 108.75948,-0.13293 c -5.6135,-2.10725 -7.73296,-4.55374 -7.87754,-9.09308 -0.16208,-5.08869 2.24576,-5.15301 4.61409,-0.12325 2.85609,6.06563 5.37972,6.77909 23.96379,6.77483 18.62018,-0.004 21.63427,-0.93507 23.74582,-7.33311 1.5035,-4.55565 -0.66489,-10.22551 -4.46289,-11.66951 -1.43741,-0.5465 -9.7025,-0.99364 -18.36687,-0.99364 -25.11036,0 -29.6164,-2.14257 -29.6164,-14.08226 0,-8.88464 2.2214,-11.48613 11.04116,-12.93039 7.38415,-1.20916 23.6473,-1.21956 32.95489,-0.0211 6.01187,0.77412 7.39174,1.34371 9.80885,4.04892 3.05858,3.42314 3.33746,7.48479 0.51392,7.48479 -0.92465,0 -2.72465,-1.5469 -4,-3.43755 -3.15654,-4.67943 -6.30247,-5.29242 -25.12899,-4.89648 l -15.88232,0.33403 -2.39879,3 c -3.01762,3.77393 -3.24207,9.66665 -0.47365,12.43507 3.14458,3.14458 8.65946,4.05015 25.06493,4.1158 9.23942,0.037 16.89969,0.5441 18.96537,1.25557 9.95999,3.43046 10.60942,18.59518 1.03463,24.15954 -3.12036,1.81339 -5.45246,2.05785 -21.5,2.25368 -13.98864,0.1707 -18.89141,-0.11497 -22,-1.2819 z m -724.323797,-0.66155 c -0.83399,-0.83399 -1.176206,-7.9242 -1.176206,-24.36922 0,-20.2265 0.202319,-23.27065 1.581787,-23.8 0.869984,-0.33385 11.917331,-0.60699 24.54966,-0.60699 28.7516132,0 29.7205822,0.34666 31.2938722,11.19578 0.7843698,5.40884 -0.75974,12.33484 -2.936177,13.17001 -2.120096,0.81356 -1.841673,5.37058 0.510857,8.36134 1.51012,1.91981 1.99625,4.04042 1.98469,8.65773 -0.0293,11.68058 -3.674639,11.5494 -4.962044,-0.17856 -0.421589,-3.84058 -1.104087,-7.52906 -1.516663,-8.19662 -1.93075696,-3.12403 -7.412701,-4.00968 -24.8188762,-4.00968 -21.046884,0 -20.687106,-0.19489 -20.687106,11.2063 0,7.88816 -1.39008,11.00362 -3.823794,8.56991 z M 1.1564682,623.07075 c 3.247686,-2.27477 4.787209,-8.31151 3.282436,-12.87102 -2.168882,-6.57177 -4.01105196,-7.0928 -25.0776442,-7.0928 -14.322666,0 -19.019342,0.31762 -20.294219,1.37244 -1.297902,1.07388 -1.658764,3.15146 -1.658764,9.55 0,5.02699 0.462324,8.63988 1.2,9.37756 0.851607,0.85161 6.883888,1.2 20.777494,1.2 15.9886782,0 19.97953624,-0.2816 21.7706972,-1.53618 z M 177.80183,648.43469 c -0.9183,-1.48583 -0.8806,-46.23068 0.0402,-47.72057 0.47025,-0.76088 8.35316,-1.10719 25.20219,-1.10719 l 24.51791,0 2.92307,2.92308 c 2.57623,2.57623 2.92308,3.62962 2.92308,8.87755 0,4.07292 -0.47399,6.34785 -1.5,7.19937 -2.21617,1.83926 -1.83356,4.45014 1.17635,8.02721 5.76548,6.85188 3.5487,18.30951 -4.16613,21.53297 -4.51811,1.88778 -49.96828,2.12571 -51.11667,0.26758 z m 48.34196,-4.11984 c 3.68014,-1.984 4.76221,-4.96046 3.96476,-10.9059 -0.96243,-7.17547 -1.24343,-7.26453 -23.98375,-7.6023 -22.89099,-0.34 -23.50774,-0.17519 -24.40602,6.52203 -0.87066,6.4912 0.36607,11.02929 3.48311,12.78105 4.10622,2.30768 36.34805,1.68171 40.9419,-0.79488 z m 0.35477,-25.5687 c 2.2681,-2.80381 2.5203,-9.74952 0.45306,-12.47758 -2.09963,-2.77082 -7.5638,-3.61151 -23.64412,-3.63778 -18.44409,-0.0301 -20.4647,0.59285 -21.36354,6.58679 -0.82956,5.53188 0.0805,10.05185 2.29247,11.38535 1.01083,0.6094 9.31866,0.90829 21.01213,0.75596 18.97661,-0.24722 19.37618,-0.29635 21.25,-2.61274 z m 197.9449,28.92652 c -0.61431,-1.14786 -1.03518,-10.04248 -1.03518,-21.87755 0,-17.33314 -0.21648,-20.12292 -1.65406,-21.31575 -1.14664,-0.9514 -4.83413,-1.40416 -12.02005,-1.47582 -5.70129,-0.0569 -10.62702,-0.36442 -10.94607,-0.68347 -2.25292,-2.25292 2.43228,-2.71315 27.62018,-2.71315 25.01927,0 29.86781,0.46552 27.67608,2.65726 -0.28831,0.2883 -5.39587,0.6041 -11.35014,0.70177 -5.95427,0.0977 -11.38844,0.5334 -12.07594,0.96829 -0.93366,0.5906 -1.25,5.98044 -1.25,21.29744 0,19.44222 -0.60714,24.37524 -3,24.37524 -0.5113,0 -1.39547,-0.87042 -1.96482,-1.93426 z m 79.08668,0.65612 c -0.76465,-0.76465 -1.12186,-8.50673 -1.12186,-24.31487 0,-19.49074 0.23482,-23.28312 1.47106,-23.75751 3.64526,-1.39882 4.03829,1.23397 3.74353,25.07687 -0.22495,18.19597 -0.56986,23.196 -1.62814,23.6021 -0.73851,0.28339 -1.84757,0.0104 -2.46459,-0.60659 z M 68.669547,556.07738 c -1.20106,-0.84126 -7.68819,-8.15376 -14.41584,-16.25 -20.89872,-25.15012 -47.6078498,-57.40722 -61.8454304,-74.69185 -4.1249996,-5.00781 -14.0249996,-16.89186 -21.9999996,-26.40901 -17.53728,-20.92851 -17.851668,-21.38847 -16.079189,-23.52417 1.99203,-2.40025 46.9741102,-2.3838 50.9248962,0.0186 1.459861,0.88772 9.8542928,10.6279 18.6542928,21.64483 26.89144,33.66605 63.41584,79.08419 65.93572,81.99113 3.10235,3.5789 6.5841,3.56704 9.244609,-0.0315 1.131054,-1.52982 6.728174,-8.41602 12.438064,-15.30267 13.34254,-16.09233 32.16515,-38.97468 53.80987,-65.41584 9.45483,-11.55 18.40136,-21.7896 19.88117,-22.75467 2.4052,-1.56857 5.22461,-1.72766 26.58226,-1.5 20.75792,0.22127 24.02564,0.46717 24.91294,1.87477 0.83005,1.31677 -3.46301,6.93345 -22.93027,30 -13.17334,15.60894 -30.73076,36.52233 -39.01649,46.47419 -8.28574,9.95187 -16.22241,19.40187 -17.63706,21 -1.41465,1.59814 -5.19305,6.0947 -8.39645,9.99236 -14.60087,17.76525 -20.96273,25.25648 -25.19133,29.66335 l -4.55785,4.75 -24.065083,0 c -19.97939,0 -24.43584,-0.25968 -26.24883,-1.52955 z m 381.070603,-0.048 c -0.33295,-0.86765 0.0187,-2.1903 0.78139,-2.93924 0.76271,-0.74893 23.43372,-16.04061 50.38003,-33.9815 26.94632,-17.9409 49.36126,-33.27733 49.81099,-34.08095 1.61095,-2.87861 -0.58523,-5.04851 -14.09757,-13.92885 -44.12718,-29.00048 -79.1249,-53.15421 -79.16368,-54.63493 -0.0237,-0.90366 0.66877,-1.91616 1.53876,-2.25 0.86998,-0.33384 13.93443,-0.60698 29.03212,-0.60698 20.78283,0 28.23193,0.32777 30.66821,1.34945 1.76983,0.7422 8.25264,4.9047 14.40623,9.25 6.15359,4.3453 14.92859,10.45232 19.5,13.57115 4.57141,3.11883 13.48665,9.24173 19.81165,13.60643 6.325,4.36471 12.43927,8.23252 13.58726,8.59514 1.38327,0.43693 3.23832,-0.13123 5.5,-1.68455 1.87701,-1.28911 7.01274,-4.81191 11.41274,-7.82843 4.4,-3.01652 10.925,-7.53269 14.5,-10.03593 8.21617,-5.75301 22.45252,-15.56234 31.40297,-21.63769 l 6.90297,-4.68557 29.09703,-0.25879 c 16.23633,-0.14441 29.71393,0.14248 30.49275,0.64908 0.76764,0.49932 1.14825,1.55275 0.84578,2.34096 -0.30246,0.7882 -13.98053,10.41663 -30.39571,21.39651 -56.47425,37.77481 -63.49241,42.59074 -64.00206,43.91888 -0.2811,0.73253 -0.13594,1.98973 0.32259,2.79378 0.45852,0.80404 23.33368,16.51099 50.83368,34.90433 36.82026,24.62719 50,33.94497 50,35.34885 0,1.82723 -1.25292,1.91739 -30.16939,2.17094 l -30.16938,0.26455 -8.20308,-5.61793 c -4.5117,-3.08986 -12.31048,-8.47607 -17.33062,-11.96936 -5.02014,-3.49329 -14.07753,-9.77492 -20.12753,-13.95918 -6.05,-4.18426 -14.825,-10.27824 -19.5,-13.54218 -4.675,-3.26394 -9.4,-5.93287 -10.5,-5.93096 -1.1,0.002 -8.62809,4.61307 -16.7291,10.247 -22.39201,15.57278 -27.91418,19.37869 -44.22786,30.48209 l -15.04304,10.23857 -30.28138,0.0114 c -26.66264,0.0101 -30.35373,-0.17709 -30.88675,-1.56611 z M 285.3615,511.66181 c -7.35371,-2.23262 -17.04333,-11.38438 -21.64398,-20.44254 -5.17202,-10.18313 -7.43252,-19.37418 -8.02085,-32.61234 -0.68826,-15.48654 0.8271,-27.51284 4.76666,-37.82948 l 2.97562,-7.79237 -2.59993,-6.93907 c -3.96389,-10.57943 -4.42051,-12.95436 -5.0834,-26.43908 -0.96359,-19.60183 1.3193,-32.0581 8.33888,-45.5 6.27996,-12.0256 14.28057,-18.59234 24.9065,-20.44276 8.60162,-1.49791 124.24429,-1.33742 128.78758,0.17873 4.67716,1.56082 7.37824,4.50273 9.60948,10.46625 3.85312,10.2984 1.73607,21.60241 -5.22329,27.88977 l -3.77225,3.40801 -62.93202,0 c -36.40386,0 -63.96376,0.39227 -65.37958,0.93056 -4.77223,1.8144 -7.14787,6.75666 -7.52883,15.66287 -0.30342,7.09365 -0.0315,8.71444 2.20129,13.12063 1.61304,3.18317 3.39067,5.25305 4.84619,5.64292 1.26429,0.33864 30.46966,0.62185 64.90083,0.62936 l 62.60211,0.0137 3.39789,2.25 c 1.99803,1.32305 4.53991,4.51587 6.16996,7.75 2.3522,4.66692 2.72152,6.48455 2.43827,12 -0.44146,8.59607 -3.90225,15.84653 -8.71035,18.24845 -3.21962,1.60837 -8.49081,1.74857 -65.79966,1.75 -69.53608,0.002 -66.47389,-0.30289 -70.19053,6.98232 -2.86999,5.62565 -2.82526,17.79603 0.0845,22.97315 4.17448,7.42748 0.31865,7.04608 71.23331,7.04608 l 63.51898,0 3.0204,2.5415 c 3.70816,3.12021 7.1313,11.8704 7.138,18.24601 0.007,6.83371 -2.83603,13.82716 -7.23846,17.80448 l -3.7723,3.40801 -65.24712,-0.0859 c -35.88592,-0.0473 -66.39317,-0.4339 -67.7939,-0.85917 z"
         id="path3008"
         inkscape:connector-curvature="0" />
      <path
         style="fill:#aaa9ad"
         d="m 72.408277,649.96012 c -11.384,-3.71055 -12.51031,-6.00064 -12.4692,-25.35319 0.0354,-16.69054 1.16951,-20.72747 6.64042,-23.63819 2.90146,-1.54367 6.3037,-1.77685 26.50282,-1.81642 21.901513,-0.0429 23.329223,0.0683 26.000003,2.02569 5.38698,3.94801 6.32269,7.41667 6.32441,23.44452 0.002,17.1772 -0.99616,20.12541 -8.03433,23.7344 -4.12754,2.1165 -5.5472,2.24532 -23.926013,2.17105 -10.74596,-0.0434 -20.21311,-0.29896 -21.03811,-0.56786 z m 41.842783,-5.27298 c 5.41287,-2.76144 6.15722,-5.2372 6.15722,-20.47938 0,-12.1615 -0.19435,-13.59346 -2.26124,-16.66051 -1.24368,-1.8455 -3.38118,-3.66719 -4.75,-4.04821 -1.36882,-0.38101 -10.81376,-0.73097 -20.988763,-0.77769 -19.92615,-0.0915 -21.74148,0.27665 -25.35325,5.14148 -1.8563,2.5003 -2.02963,4.05597 -1.86892,16.77366 0.0987,7.80996 0.65822,14.91669 1.26347,16.04762 0.59749,1.11641 2.52012,2.90408 4.27252,3.97259 2.84759,1.7363 5.12984,1.94315 21.47602,1.94649 16.066313,0.003 18.747323,-0.22965 22.052943,-1.91605 z m 180.55829,4.05172 c -2.25441,-1.04438 -5.17941,-3.41381 -6.5,-5.2654 -2.28786,-3.2078 -2.40107,-4.10082 -2.40107,-18.9398 0,-14.96986 0.0969,-15.71493 2.5,-19.22939 3.98628,-5.82972 5.83565,-6.19734 31.17667,-6.19734 21.36063,0 22.84052,0.12019 25.5,2.07108 5.36677,3.93686 6.32006,7.43812 6.32178,23.21876 0.001,12.34159 -0.27246,14.82695 -2.00826,18.22939 -3.51586,6.89165 -5.6206,7.4445 -29.49019,7.74618 -18.86391,0.23841 -21.41694,0.0723 -25.09893,-1.63348 z m 45.5284,-4.09595 c 5.13952,-2.62198 6.07053,-5.72263 6.07053,-20.21732 0,-21.09765 -0.94249,-21.82591 -28.21788,-21.80392 -19.71672,0.0159 -21.54896,0.40288 -25.18572,5.31934 -1.90107,2.57002 -2.08188,4.06078 -1.94056,16 0.0857,7.24126 0.63699,14.40321 1.22507,15.91546 0.58808,1.51225 2.54296,3.64807 4.34416,4.74626 2.95728,1.80305 5.04893,1.99709 21.56477,2.00046 16.20925,0.003 18.72778,-0.21968 22.13963,-1.96028 z m 228.81105,4.53471 c -8.53273,-3.04481 -9.741,-6.12021 -9.73897,-24.78857 0.002,-15.76296 0.95662,-19.27554 6.30693,-23.19995 2.53349,-1.85829 4.54786,-2.09612 20.57217,-2.4289 22.06204,-0.45817 28.37004,0.58915 31.20755,5.18136 2.10543,3.40742 2.19733,8.75348 0.16196,9.42164 -0.72477,0.23792 -2.07762,-1.52084 -3.22022,-4.18642 -1.34107,-3.1286 -2.84911,-4.9308 -4.72174,-5.64277 -1.66918,-0.63462 -9.93276,-0.92433 -21.00951,-0.73657 l -18.25815,0.30949 -2.77027,2.76988 c -2.72685,2.72646 -2.7754,2.99063 -3.0977,16.85595 -0.38157,16.41511 0.33743,19.07338 5.93074,21.92688 3.32851,1.69808 5.94013,1.94729 20.40651,1.94729 19.52953,0 21.54403,-0.6269 24.55014,-7.63988 2.25141,-5.25233 4.30148,-5.32646 4.74214,-0.17146 0.39038,4.56681 -3.2133,9.01875 -8.60889,10.63531 -5.61338,1.68181 -37.56402,1.49118 -42.45269,-0.25328 z m 108.75948,-0.13293 c -5.6135,-2.10725 -7.73296,-4.55374 -7.87754,-9.09308 -0.16208,-5.08869 2.24576,-5.15301 4.61409,-0.12325 2.85609,6.06563 5.37972,6.77909 23.96379,6.77483 18.62018,-0.004 21.63427,-0.93507 23.74582,-7.33311 1.5035,-4.55565 -0.66489,-10.22551 -4.46289,-11.66951 -1.43741,-0.5465 -9.7025,-0.99364 -18.36687,-0.99364 -25.11036,0 -29.6164,-2.14257 -29.6164,-14.08226 0,-8.88464 2.2214,-11.48613 11.04116,-12.93039 7.38415,-1.20916 23.6473,-1.21956 32.95489,-0.0211 6.01187,0.77412 7.39174,1.34371 9.80885,4.04892 3.05858,3.42314 3.33746,7.48479 0.51392,7.48479 -0.92465,0 -2.72465,-1.5469 -4,-3.43755 -3.15654,-4.67943 -6.30247,-5.29242 -25.12899,-4.89648 l -15.88232,0.33403 -2.39879,3 c -3.01762,3.77393 -3.24207,9.66665 -0.47365,12.43507 3.14458,3.14458 8.65946,4.05015 25.06493,4.1158 9.23942,0.037 16.89969,0.5441 18.96537,1.25557 9.95999,3.43046 10.60942,18.59518 1.03463,24.15954 -3.12036,1.81339 -5.45246,2.05785 -21.5,2.25368 -13.98864,0.1707 -18.89141,-0.11497 -22,-1.2819 z m -724.323797,-0.66155 c -0.83399,-0.83399 -1.176206,-7.9242 -1.176206,-24.36922 0,-20.2265 0.202319,-23.27065 1.581787,-23.8 0.869984,-0.33385 11.917331,-0.60699 24.54966,-0.60699 28.7516132,0 29.7205822,0.34666 31.2938722,11.19578 0.7843698,5.40884 -0.75974,12.33484 -2.936177,13.17001 -2.120096,0.81356 -1.841673,5.37058 0.510857,8.36134 1.51012,1.91981 1.99625,4.04042 1.98469,8.65773 -0.0293,11.68058 -3.674639,11.5494 -4.962044,-0.17856 -0.421589,-3.84058 -1.104087,-7.52906 -1.516663,-8.19662 -1.93075696,-3.12403 -7.412701,-4.00968 -24.8188762,-4.00968 -21.046884,0 -20.687106,-0.19489 -20.687106,11.2063 0,7.88816 -1.39008,11.00362 -3.823794,8.56991 z M 1.1564682,623.07075 c 3.247686,-2.27477 4.787209,-8.31151 3.282436,-12.87102 -2.168882,-6.57177 -4.01105196,-7.0928 -25.0776442,-7.0928 -14.322666,0 -19.019342,0.31762 -20.294219,1.37244 -1.297902,1.07388 -1.658764,3.15146 -1.658764,9.55 0,5.02699 0.462324,8.63988 1.2,9.37756 0.851607,0.85161 6.883888,1.2 20.777494,1.2 15.9886782,0 19.97953624,-0.2816 21.7706972,-1.53618 z M 177.80183,648.43469 c -0.9183,-1.48583 -0.8806,-46.23068 0.0402,-47.72057 0.47025,-0.76088 8.35316,-1.10719 25.20219,-1.10719 l 24.51791,0 2.92307,2.92308 c 2.57623,2.57623 2.92308,3.62962 2.92308,8.87755 0,4.07292 -0.47399,6.34785 -1.5,7.19937 -2.21617,1.83926 -1.83356,4.45014 1.17635,8.02721 5.76548,6.85188 3.5487,18.30951 -4.16613,21.53297 -4.51811,1.88778 -49.96828,2.12571 -51.11667,0.26758 z m 48.34196,-4.11984 c 3.68014,-1.984 4.76221,-4.96046 3.96476,-10.9059 -0.96243,-7.17547 -1.24343,-7.26453 -23.98375,-7.6023 -22.89099,-0.34 -23.50774,-0.17519 -24.40602,6.52203 -0.87066,6.4912 0.36607,11.02929 3.48311,12.78105 4.10622,2.30768 36.34805,1.68171 40.9419,-0.79488 z m 0.35477,-25.5687 c 2.2681,-2.80381 2.5203,-9.74952 0.45306,-12.47758 -2.09963,-2.77082 -7.5638,-3.61151 -23.64412,-3.63778 -18.44409,-0.0301 -20.4647,0.59285 -21.36354,6.58679 -0.82956,5.53188 0.0805,10.05185 2.29247,11.38535 1.01083,0.6094 9.31866,0.90829 21.01213,0.75596 18.97661,-0.24722 19.37618,-0.29635 21.25,-2.61274 z m 197.9449,28.92652 c -0.61431,-1.14786 -1.03518,-10.04248 -1.03518,-21.87755 0,-17.33314 -0.21648,-20.12292 -1.65406,-21.31575 -1.14664,-0.9514 -4.83413,-1.40416 -12.02005,-1.47582 -5.70129,-0.0569 -10.62702,-0.36442 -10.94607,-0.68347 -2.25292,-2.25292 2.43228,-2.71315 27.62018,-2.71315 25.01927,0 29.86781,0.46552 27.67608,2.65726 -0.28831,0.2883 -5.39587,0.6041 -11.35014,0.70177 -5.95427,0.0977 -11.38844,0.5334 -12.07594,0.96829 -0.93366,0.5906 -1.25,5.98044 -1.25,21.29744 0,19.44222 -0.60714,24.37524 -3,24.37524 -0.5113,0 -1.39547,-0.87042 -1.96482,-1.93426 z m 79.08668,0.65612 c -0.76465,-0.76465 -1.12186,-8.50673 -1.12186,-24.31487 0,-19.49074 0.23482,-23.28312 1.47106,-23.75751 3.64526,-1.39882 4.03829,1.23397 3.74353,25.07687 -0.22495,18.19597 -0.56986,23.196 -1.62814,23.6021 -0.73851,0.28339 -1.84757,0.0104 -2.46459,-0.60659 z M 68.669547,556.07738 c -1.20106,-0.84126 -7.68819,-8.15376 -14.41584,-16.25 -20.89872,-25.15012 -47.6078498,-57.40722 -61.8454304,-74.69185 -4.1249996,-5.00781 -14.0249996,-16.89186 -21.9999996,-26.40901 -17.53728,-20.92851 -17.851668,-21.38847 -16.079189,-23.52417 1.99203,-2.40025 46.9741102,-2.3838 50.9248962,0.0186 1.459861,0.88772 9.8542928,10.6279 18.6542928,21.64483 26.89144,33.66605 63.41584,79.08419 65.93572,81.99113 3.10235,3.5789 6.5841,3.56704 9.244609,-0.0315 1.131054,-1.52982 6.728174,-8.41602 12.438064,-15.30267 13.34254,-16.09233 32.16515,-38.97468 53.80987,-65.41584 9.45483,-11.55 18.40136,-21.7896 19.88117,-22.75467 2.4052,-1.56857 5.22461,-1.72766 26.58226,-1.5 20.75792,0.22127 24.02564,0.46717 24.91294,1.87477 0.83005,1.31677 -3.46301,6.93345 -22.93027,30 -13.17334,15.60894 -30.73076,36.52233 -39.01649,46.47419 -8.28574,9.95187 -16.22241,19.40187 -17.63706,21 -1.41465,1.59814 -5.19305,6.0947 -8.39645,9.99236 -14.60087,17.76525 -20.96273,25.25648 -25.19133,29.66335 l -4.55785,4.75 -24.065083,0 c -19.97939,0 -24.43584,-0.25968 -26.24883,-1.52955 z m 381.070603,-0.048 c -0.33295,-0.86765 0.0187,-2.1903 0.78139,-2.93924 0.76271,-0.74893 23.43372,-16.04061 50.38003,-33.9815 26.94632,-17.9409 49.36126,-33.27733 49.81099,-34.08095 1.61095,-2.87861 -0.58523,-5.04851 -14.09757,-13.92885 -44.12718,-29.00048 -79.1249,-53.15421 -79.16368,-54.63493 -0.0237,-0.90366 0.66877,-1.91616 1.53876,-2.25 0.86998,-0.33384 13.93443,-0.60698 29.03212,-0.60698 20.78283,0 28.23193,0.32777 30.66821,1.34945 1.76983,0.7422 8.25264,4.9047 14.40623,9.25 6.15359,4.3453 14.92859,10.45232 19.5,13.57115 4.57141,3.11883 13.48665,9.24173 19.81165,13.60643 6.325,4.36471 12.43927,8.23252 13.58726,8.59514 1.38327,0.43693 3.23832,-0.13123 5.5,-1.68455 1.87701,-1.28911 7.01274,-4.81191 11.41274,-7.82843 4.4,-3.01652 10.925,-7.53269 14.5,-10.03593 8.21617,-5.75301 22.45252,-15.56234 31.40297,-21.63769 l 6.90297,-4.68557 29.09703,-0.25879 c 16.23633,-0.14441 29.71393,0.14248 30.49275,0.64908 0.76764,0.49932 1.14825,1.55275 0.84578,2.34096 -0.30246,0.7882 -13.98053,10.41663 -30.39571,21.39651 -56.47425,37.77481 -63.49241,42.59074 -64.00206,43.91888 -0.2811,0.73253 -0.13594,1.98973 0.32259,2.79378 0.45852,0.80404 23.33368,16.51099 50.83368,34.90433 36.82026,24.62719 50,33.94497 50,35.34885 0,1.82723 -1.25292,1.91739 -30.16939,2.17094 l -30.16938,0.26455 -8.20308,-5.61793 c -4.5117,-3.08986 -12.31048,-8.47607 -17.33062,-11.96936 -5.02014,-3.49329 -14.07753,-9.77492 -20.12753,-13.95918 -6.05,-4.18426 -14.825,-10.27824 -19.5,-13.54218 -4.675,-3.26394 -9.4,-5.93287 -10.5,-5.93096 -1.1,0.002 -8.62809,4.61307 -16.7291,10.247 -22.39201,15.57278 -27.91418,19.37869 -44.22786,30.48209 l -15.04304,10.23857 -30.28138,0.0114 c -26.66264,0.0101 -30.35373,-0.17709 -30.88675,-1.56611 z m -166.36724,-47.2534 c -10.42511,-4.92171 -17.9448,-15.08226 -23.06781,-31.16905 -2.15079,-6.75371 -2.38887,-9.29109 -2.39264,-25.5 -0.004,-18.88082 0.25614,-20.43734 5.70892,-34.10834 l 2.0375,-5.10834 -2.52639,-6.39166 c -5.02021,-12.7009 -6.01167,-19.33716 -5.46549,-36.58308 0.41917,-13.23589 0.89316,-16.95283 2.91253,-22.83976 4.92352,-14.3532 12.4251,-24.69035 21.31394,-29.37053 3.93187,-2.07022 4.87712,-2.09829 70.64641,-2.09829 l 66.66122,0 3.01779,3.43708 c 4.30464,4.90271 5.94596,12.83731 4.30195,20.79682 -0.68656,3.32399 -1.95957,7.12917 -2.82892,8.45597 -3.54737,5.41396 -2.19302,5.31013 -69.2661,5.31013 -68.99908,0 -66.86665,-0.19896 -71.11507,6.63527 -2.10018,3.37845 -2.40247,5.06926 -2.40247,13.43776 0,8.8032 0.22443,9.91216 2.79084,13.79028 1.53497,2.31949 3.92676,4.64912 5.3151,5.17697 1.51363,0.57548 27.33392,0.95972 64.49128,0.95972 52.18517,0 62.52096,0.23145 65.47619,1.46623 9.49739,3.96826 11.06305,26.61322 2.34709,33.94721 l -3.07395,2.58656 -63.84655,0 -63.84655,0 -3.21902,2.70863 c -4.74649,3.9939 -6.89051,9.52979 -6.89051,17.79137 0,7.73339 2.0402,13.48088 6.1156,17.22838 l 2.42336,2.22838 64.64333,0.27162 64.64334,0.27162 3.08873,2.95961 c 3.22318,3.08844 6.05071,10.57802 6.02985,15.97189 -0.0237,6.12011 -2.8104,13.97436 -5.96729,16.8185 l -3.05239,2.75 -65.73423,-0.081 c -59.20421,-0.0729 -66.08542,-0.24675 -69.26959,-1.75 z"
         id="path3006"
         inkscape:connector-curvature="0" />
      <path
         style="fill:#a09fa3"
         d="m 178.74411,645.03971 c -0.33077,-0.86197 -0.0916,-2.07697 0.53139,-2.7 0.82633,-0.82633 1.13278,-0.83028 1.13278,-0.0146 0,0.61502 0.27314,1.83002 0.60699,2.7 0.33443,0.87151 0.0958,1.58179 -0.53139,1.58179 -0.6261,0 -1.409,-0.70525 -1.73977,-1.56722 z m -224.256886,-0.84945 c -0.04342,-1.05416 0.192928,-1.64479 0.52522,-1.3125 0.332291,0.33229 0.367818,1.19479 0.07895,1.91667 -0.319226,0.79773 -0.556183,0.56078 -0.604167,-0.60417 z m 109.000003,-3 c -0.0434,-1.05416 0.19292,-1.64479 0.52522,-1.3125 0.33229,0.33229 0.36781,1.19479 0.0789,1.91667 -0.31922,0.79773 -0.55618,0.56078 -0.60416,-0.60417 z m 283.485343,0.12354 c 0.37553,-0.98622 0.93469,-1.54122 1.24258,-1.23333 0.30789,0.30789 6.4e-4,1.11479 -0.68278,1.79313 -0.98762,0.98026 -1.10248,0.8654 -0.5598,-0.5598 z M -45.55992,629.43872 c -0.04134,-3.46858 0.941672,-5.96622 2.072982,-5.26703 1.357307,0.83886 1.072469,3.81863 -0.572982,5.99411 -1.40978,1.8639 -1.469462,1.83497 -1.5,-0.72708 z m 225.17238,-5.83179 c 0,-5.92181 0.0927,-6.2109 1.04257,-3.25 0.72343,2.25514 0.72343,4.24486 0,6.5 -0.94983,2.9609 -1.04257,2.67181 -1.04257,-3.25 z M 6.4872232,619.19026 c -0.04342,-1.05416 0.192928,-1.64479 0.52522,-1.3125 0.332291,0.33229 0.367818,1.19479 0.07895,1.91667 -0.319226,0.79773 -0.556183,0.56078 -0.604167,-0.60417 z M 230.69429,611.10693 c 0.008,-2.75 0.20172,-3.75631 0.43157,-2.23625 0.22986,1.52006 0.22371,3.77006 -0.0136,5 -0.23736,1.22994 -0.42542,-0.0138 -0.41792,-2.76375 z M 6.2327802,608.28111 c -0.372058,-1.82482 -0.232683,-2.48236 0.393454,-1.85622 0.533281,0.53328 0.792552,1.8049 0.576149,2.82582 -0.291413,1.37482 -0.542875,1.12336 -0.969603,-0.9696 z m 716.1754998,-1.2332 c 0,-0.85746 0.45,-1.2809 1,-0.94098 0.55,0.33992 1,1.04148 1,1.55902 0,0.51754 -0.45,0.94098 -1,0.94098 -0.55,0 -1,-0.70156 -1,-1.55902 z m -767.964568,-2.19098 c -0.0244,-2.23797 0.431655,-3.25 1.464565,-3.25 1.841092,0 1.841092,0.77935 0,4 l -1.429129,2.5 -0.03544,-3.25 z m 224.583798,0.20012 c -0.74098,-1.93098 0.57873,-3.89891 2.22148,-3.31262 0.64806,0.23129 0.55377,1.21941 -0.26048,2.72984 -1.14646,2.12669 -1.34581,2.18593 -1.961,0.58278 z m 246.48826,-0.24928 c -1.51607,-2.8328 -1.41345,-3.20084 0.89251,-3.20084 2.1113,0 2.55441,1.57623 1.09217,3.8851 -0.70358,1.11096 -1.09639,0.97552 -1.98468,-0.68426 z m 26.89186,-50.3022 c 3.6e-4,-0.33074 9.56315,-6.93608 21.25065,-14.67852 11.6875,-7.74245 22.825,-15.19643 24.75,-16.5644 1.925,-1.36798 14.525,-9.68448 28,-18.48113 13.475,-8.79665 25.31476,-16.73682 26.31058,-17.64482 1.08355,-0.98801 1.68586,-2.69355 1.5,-4.24747 -0.34236,-2.86224 -1.42105,-3.6317 -60.20871,-42.94885 -17.54397,-11.7334 -32.28147,-21.33345 -32.75,-21.33345 -0.46853,0 -0.85187,-0.45 -0.85187,-1 0,-0.6435 10.25924,-1 28.77771,-1 l 28.77771,0 12.97229,8.92347 c 7.13476,4.90791 19.98108,13.66954 28.54738,19.47028 8.56631,5.80074 17.25214,11.87955 19.30186,13.50846 7.23477,5.74947 8.5015,5.51476 22.3355,-4.13853 17.63018,-12.30224 27.89267,-19.38268 40.89291,-28.21341 l 14.10536,-9.58142 28.81422,0.26558 28.81423,0.26557 -47.16804,31.5 c -42.56021,28.42277 -47.1682,31.76066 -47.16959,34.16821 -0.002,3.33617 0.92154,5.83179 2.15795,5.83179 0.52004,0 4.7754,2.5875 9.45637,5.75 4.68098,3.1625 9.22287,6.2 10.09311,6.75 0.87024,0.55 5.67923,3.77597 10.68664,7.16883 23.1502,15.6858 61.47856,41.25136 64.90699,43.29387 2.09143,1.24599 3.57709,2.49094 3.30147,2.76656 -0.27562,0.27562 -13.46018,0.42454 -29.29903,0.33094 l -28.7979,-0.1702 -9.50357,-6.48141 c -5.22696,-3.56477 -14.90357,-10.28757 -21.50357,-14.93956 -6.6,-4.65198 -16.95,-11.8654 -23,-16.02982 -6.05,-4.16443 -12.52905,-8.66688 -14.39788,-10.00545 -3.72843,-2.67052 -7.43859,-3.07406 -10.74797,-1.16902 -3.2865,1.89187 -13.07411,8.57968 -20.85415,14.24951 -3.85,2.80574 -7.675,5.41965 -8.5,5.80868 -0.825,0.38903 -6.9,4.49927 -13.5,9.13387 -6.6,4.6346 -15.6,10.89737 -20,13.91725 l -8,5.49071 -29.75065,0.31762 c -16.36286,0.17469 -29.75036,0.047 -29.75,-0.28374 z M 68.883487,553.84162 c -0.56364,-0.40408 -5.02251,-5.68469 -9.9086,-11.73469 -4.88609,-6.05 -9.38137,-11.45 -9.9895,-12 -0.60814,-0.55 -5.13123,-5.95 -10.05131,-12 -4.92008,-6.05 -9.94774,-12.125 -11.17258,-13.5 -1.22484,-1.375 -4.0211,-4.75 -6.21392,-7.5 -2.19282,-2.75 -7.95872,-9.79402 -12.8131208,-15.65337 -4.854398,-5.85936 -13.728327,-16.65936 -19.7198392,-24 -5.991513,-7.34065 -11.407393,-13.79663 -12.035288,-14.34663 -0.627896,-0.55 -4.778546,-5.5 -9.223667,-11 -4.445122,-5.5 -9.041742,-10.85724 -10.214712,-11.90499 -1.17297,-1.04774 -2.132673,-2.28524 -2.132673,-2.75 0,-1.0332 48.0489592,-1.11038 49.6195392,-0.0797 0.615748,0.40408 3.51598,3.88469 6.4449598,7.73469 2.928981,3.85 5.837161,7.45 6.462611,8 0.62545,0.55 3.8219,4.375 7.10321,8.5 31.3472,39.4072 63.98389,79.83007 65.59976,81.25 3.05209,2.682 6.21762,2.15223 9.416333,-1.57587 1.56947,-1.82922 10.27859,-12.51551 19.35359,-23.74731 9.075,-11.23179 17.1813,-21.10395 18.014,-21.93813 0.8327,-0.83418 7.70587,-9.16039 15.27371,-18.50269 25.493,-31.47045 31.55119,-38.76831 32.8845,-39.61359 1.74772,-1.10801 48.82779,-1.12578 48.82779,-0.0184 0,0.46968 -1.2321,2.15718 -2.738,3.75 -1.5059,1.59281 -6.1184,6.97914 -10.25,11.96962 -4.1316,4.99048 -11.8452,14.21548 -17.14133,20.5 -17.49257,20.75712 -21.37191,25.39405 -23.88417,28.5485 -1.36758,1.71716 -8.34212,10.04216 -15.49898,18.5 -7.15687,8.45785 -14.35687,17.01324 -16,19.01198 -6.50881,7.91747 -19.02061,22.69437 -24.22948,28.61592 l -5.49778,6.25 -24.630133,-0.0153 c -13.54657,-0.008 -25.09129,-0.34592 -25.65492,-0.75 z M 283.37291,508.77598 c -10.42511,-4.92171 -17.9448,-15.08226 -23.06781,-31.16905 -2.15079,-6.75371 -2.38887,-9.29109 -2.39264,-25.5 -0.004,-18.88082 0.25614,-20.43734 5.70892,-34.10834 l 2.0375,-5.10834 -2.52639,-6.39166 c -5.02021,-12.7009 -6.01167,-19.33716 -5.46549,-36.58308 0.41917,-13.23589 0.89316,-16.95283 2.91253,-22.83976 4.92352,-14.3532 12.4251,-24.69035 21.31394,-29.37053 3.93187,-2.07022 4.87712,-2.09829 70.64641,-2.09829 l 66.66122,0 3.01779,3.43708 c 4.30464,4.90271 5.94596,12.83731 4.30195,20.79682 -0.68656,3.32399 -1.95957,7.12917 -2.82892,8.45597 -3.54737,5.41396 -2.19302,5.31013 -69.2661,5.31013 -68.99908,0 -66.86665,-0.19896 -71.11507,6.63527 -2.10018,3.37845 -2.40247,5.06926 -2.40247,13.43776 0,8.8032 0.22443,9.91216 2.79084,13.79028 1.53497,2.31949 3.92676,4.64912 5.3151,5.17697 1.51363,0.57548 27.33392,0.95972 64.49128,0.95972 52.18517,0 62.52096,0.23145 65.47619,1.46623 9.49739,3.96826 11.06305,26.61322 2.34709,33.94721 l -3.07395,2.58656 -63.84655,0 -63.84655,0 -3.21902,2.70863 c -4.74649,3.9939 -6.89051,9.52979 -6.89051,17.79137 0,7.73339 2.0402,13.48088 6.1156,17.22838 l 2.42336,2.22838 64.64333,0.27162 64.64334,0.27162 3.08873,2.95961 c 3.22318,3.08844 6.05071,10.57802 6.02985,15.97189 -0.0237,6.12011 -2.8104,13.97436 -5.96729,16.8185 l -3.05239,2.75 -65.73423,-0.081 c -59.20421,-0.0729 -66.08542,-0.24675 -69.26959,-1.75 z"
         id="path3004"
         inkscape:connector-curvature="0" />
      <path
         style="fill:#9e9ea2"
         d="m 68.305017,551.35693 c -0.64549,-1.2375 -1.78395,-2.925 -2.52992,-3.75 -3.32593,-3.67832 -6.36682,-7.87069 -6.36682,-8.77772 0,-0.54396 -0.9,-1.22437 -2,-1.51203 -1.1,-0.28766 -2,-1.24014 -2,-2.11663 0,-0.87649 -0.60277,-1.59362 -1.33948,-1.59362 -0.73672,0 -1.85207,-1.125 -2.47857,-2.5 -0.62649,-1.375 -1.59872,-2.5 -2.16051,-2.5 -0.56179,0 -1.02144,-0.59656 -1.02144,-1.32569 0,-0.72912 -1.125,-2.38256 -2.5,-3.67431 -1.375,-1.29175 -2.5,-2.83694 -2.5,-3.43377 0,-0.59682 -0.9,-1.6472 -2,-2.33416 -1.1,-0.68696 -2,-1.6952 -2,-2.24054 0,-0.54534 0.9,-0.99153 2,-0.99153 1.1,0 2,0.62325 2,1.38499 0,0.76174 1.14549,2.13555 2.54554,3.05289 1.40004,0.91735 3.06265,2.80285 3.69468,4.19001 0.63203,1.38715 2.41154,3.17491 3.95447,3.97279 1.63663,0.84633 2.80531,2.27317 2.80531,3.425 0,1.08588 0.41968,1.97432 0.93261,1.97432 0.51294,0 1.23957,0.96714 1.61475,2.14921 0.37517,1.18206 2.34236,3.76956 4.37153,5.75 2.02918,1.98043 4.56504,4.82007 5.63526,6.3103 l 1.94585,2.70951 24.22373,0.26754 c 23.133673,0.2555 24.288743,0.17865 25.668243,-1.70794 0.79448,-1.08651 1.81809,-1.60189 2.2747,-1.14529 0.4566,0.45661 0.12801,1.3559 -0.73021,1.99843 -0.85822,0.64253 -1.85589,1.95574 -2.21705,2.91824 -0.60129,1.60248 -2.76375,1.75 -25.652843,1.75 -24.90758,0 -25.00036,-0.008 -26.16983,-2.25 z m 389.964043,0.1929 c 1.29844,-1.0686 2.96357,-1.9429 3.70031,-1.9429 0.73674,0 1.69939,-0.61605 2.13922,-1.36901 0.43983,-0.75295 1.84377,-1.6933 3.11986,-2.08966 1.87304,-0.58177 2.43245,-0.29132 2.90275,1.50713 0.56188,2.14863 0.89632,2.20746 9.41167,1.65578 4.856,-0.31461 9.06318,-0.19326 9.34928,0.26966 0.2861,0.46291 4.77652,0.71763 9.97871,0.56603 11.19025,-0.32609 20.21181,-3.29213 20.73004,-6.81546 0.18334,-1.2465 1.31624,-2.35417 2.80738,-2.74487 7.0189,-1.83904 8,-1.96152 8,-0.99865 0,0.56048 -0.59656,1.01905 -1.32569,1.01905 -0.72912,0 -2.38256,1.125 -3.67431,2.5 -1.29175,1.375 -2.84518,2.5 -3.45207,2.5 -0.6069,0 -1.87405,0.9 -2.8159,2 -0.94185,1.1 -2.28361,2 -2.9817,2 -0.69808,0 -1.81449,0.87308 -2.4809,1.94019 -1.15275,1.84583 -2.58685,1.94032 -29.49055,1.94289 -28.14504,0.003 -28.26771,-0.006 -25.9181,-1.94018 z m 202.38922,1.39482 c -1.85178,-0.74721 -1.51969,-2.12302 0.81392,-3.37193 1.28368,-0.687 2.51231,-0.75555 3.25,-0.18131 0.66277,0.51591 11.49378,0.84687 24.54848,0.75011 21.11838,-0.15652 23.56772,-0.002 25.5,1.61286 2.06219,1.723 1.16743,1.7844 -25.3624,1.74033 -15.125,-0.0251 -28.0625,-0.27265 -28.75,-0.55006 z m -5.22104,-4.29866 c -0.80907,-0.51167 -1.16598,-1.23537 -0.79313,-1.60823 0.9151,-0.91509 3.76417,0.24885 3.76417,1.53779 0,1.2701 -1.03529,1.29465 -2.97104,0.0704 z m 48.47104,-1.03906 c -0.33992,-0.55 0.30852,-1 1.44098,-1 1.13246,0 2.05902,0.45 2.05902,1 0,0.55 -0.64844,1 -1.44098,1 -0.79254,0 -1.7191,-0.45 -2.05902,-1 z m -578.91447,-5.25 c 0.93422,-1.7875 2.01812,-3.925 2.40866,-4.75 0.39054,-0.825 1.67661,-1.6438 2.85794,-1.81955 1.28735,-0.19153 2.14787,-1.04391 2.14787,-2.12756 0,-0.9944 0.675,-2.3682 1.5,-3.05289 0.825,-0.68469 1.5,-1.87593 1.5,-2.6472 0,-0.77126 1.125,-1.83003 2.5,-2.3528 1.375,-0.52277 2.5,-1.41164 2.5,-1.97525 0,-0.56361 0.675,-1.02475 1.5,-1.02475 2.1297,0 1.85745,1.75982 -0.5,3.23207 -1.1,0.68696 -2,1.65661 -2,2.15477 0,0.49816 -2.03419,3.20242 -4.52041,6.00946 -6.43527,7.26563 -7.05676,8.05943 -7.7746,9.93009 -0.35322,0.92049 -1.35678,1.67361 -2.23014,1.67361 -1.42786,0 -1.4167,-0.3276 0.11068,-3.25 z m 346.41447,0.75 c 0.68469,-0.825 1.80969,-1.5 2.5,-1.5 0.69031,0 1.81531,-0.675 2.5,-1.5 0.68469,-0.825 2.10562,-1.5 3.15763,-1.5 1.60286,0 1.73933,0.32401 0.84237,2 -0.5887,1.1 -1.92798,2 -2.97617,2 -1.04819,0 -2.18391,0.45 -2.52383,1 -0.33992,0.55 -1.54658,1 -2.68146,1 -1.72078,0 -1.8567,-0.24909 -0.81854,-1.5 z m 176.63837,0 c -0.31658,-0.825 -1.18357,-1.5 -1.92665,-1.5 -0.74308,0 -2.2821,-1.0708 -3.42004,-2.37955 -1.13795,-1.30876 -2.6816,-2.60251 -3.43034,-2.875 -0.98523,-0.35857 -1.06219,-0.81532 -0.27856,-1.65323 1.28324,-1.37212 4.41722,-0.41016 4.41722,1.35584 0,0.67875 2.25,2.45869 5,3.95542 2.75,1.49674 5,3.14326 5,3.65893 0,1.55148 -4.7413,1.05413 -5.36163,-0.56241 z m 49.80276,0.0318 c -1.06762,-0.8075 -3.17863,-1.4825 -4.69113,-1.5 -3.09829,-0.0358 -3.78806,-2.41948 -1.00876,-3.486 1.10749,-0.42498 2.29038,0.009 3.25,1.19164 0.82982,1.0229 2.29626,2.16131 3.25876,2.5298 0.9625,0.3685 1.75,1.13411 1.75,1.70138 0,1.35105 -0.25196,1.30804 -2.55887,-0.43682 z m -12.24113,-5.7318 c -1.48695,-1.48695 -1.56867,-3.8 -0.13426,-3.8 2.03374,0 4.93426,2.07809 4.93426,3.53518 0,1.7659 -3.12644,1.93838 -4.8,0.26482 z m -153.95501,-1.05 c 0.48933,-1.48583 4.75501,-2.31703 4.75501,-0.92654 0,0.96982 -2.30923,2.17654 -4.16512,2.17654 -0.55085,0 -0.8163,-0.5625 -0.58989,-1.25 z m -48.24499,-0.75 c 0,-0.55 0.70156,-1 1.55902,-1 0.85746,0 1.2809,0.45 0.94098,1 -0.33992,0.55 -1.04148,1 -1.55902,1 -0.51754,0 -0.94098,-0.45 -0.94098,-1 z m 5,-3.5 c 0,-0.825 0.64047,-1.5 1.42327,-1.5 0.78281,0 2.76027,-1.125 4.39436,-2.5 1.6341,-1.375 3.36861,-2.5 3.85449,-2.5 0.48587,0 1.654,-0.9 2.59585,-2 1.90603,-2.22608 5.73203,-2.70846 5.73203,-0.72268 0,1.79291 -5.84295,6.72268 -7.96797,6.72268 -0.96927,0 -2.90648,0.9 -4.3049,2 -3.00831,2.36634 -5.72713,2.6037 -5.72713,0.5 z m 192.75,0.75074 c -1.97792,-0.44914 -2.29183,-1.79784 -0.65404,-2.81005 0.60278,-0.37254 1.77096,-0.002 2.59596,0.82266 1.66308,1.66308 0.74909,2.59846 -1.94192,1.98739 z m -142.75,-0.64375 c 0,-0.21616 0.675,-0.65203 1.5,-0.96862 0.825,-0.31658 1.5,-0.13972 1.5,0.39301 0,0.53274 -0.675,0.96862 -1.5,0.96862 -0.825,0 -1.5,-0.17686 -1.5,-0.39301 z m 93,-0.60699 c 0,-0.55 0.675,-1 1.5,-1 0.825,0 1.5,0.45 1.5,1 0,0.55 -0.675,1 -1.5,1 -0.825,0 -1.5,-0.45 -1.5,-1 z m -86.52699,-3.04367 c -0.93102,-1.50643 0.16579,-2.56629 5.01424,-4.84533 2.48201,-1.16669 4.51275,-2.73935 4.51275,-3.4948 0,-0.75546 1.31747,-1.91927 2.92771,-2.58625 1.61023,-0.66699 3.70498,-2.07158 4.65498,-3.12133 0.95001,-1.04974 2.53098,-1.90862 3.51328,-1.90862 0.9823,0 2.06411,-0.45 2.40403,-1 0.78012,-1.26227 3.5,-1.31463 3.5,-0.0674 0,0.51294 -1.0125,1.24496 -2.25,1.62672 -1.2375,0.38176 -2.925,1.30971 -3.75,2.06213 -3.57224,3.25792 -7.86378,6.37854 -8.77191,6.37854 -0.54076,0 -1.5434,0.675 -2.22809,1.5 -0.68469,0.825 -2.13192,1.5 -3.21606,1.5 -1.10664,0 -2.19263,0.84685 -2.4761,1.93083 -0.57562,2.20116 -2.95089,3.45574 -3.83483,2.0255 z m 128.33369,-0.79763 c -0.71868,-1.01272 -2.3192,-2.37855 -3.5567,-3.03518 -1.2375,-0.65664 -2.25,-1.62805 -2.25,-2.1587 0,-1.61315 2.80278,-1.07805 4.1933,0.80058 0.71868,0.97096 2.56957,2.32288 4.11309,3.00425 1.54351,0.68137 2.52945,1.68694 2.19098,2.2346 -0.97384,1.57572 -3.26555,1.16261 -4.69067,-0.84555 z m -581.806703,-0.1587 c -1.09674,-0.70877 -0.34157,-0.97349 2.80902,-0.98469 2.62138,-0.009 4.066959,0.37634 3.69098,0.98469 -0.78398,1.2685 -4.53713,1.2685 -6.5,0 z m 535.000003,0 c 0,-0.55 0.42344,-1 0.94098,-1 0.51754,0 1.2191,0.45 1.55902,1 0.33992,0.55 -0.0835,1 -0.94098,1 -0.85746,0 -1.55902,-0.45 -1.55902,-1 z m -526,-4 c 0,-0.55 0.19844,-1 0.44098,-1 0.24254,0 0.7191,0.45 1.05902,1 0.33992,0.55 0.14148,1 -0.44098,1 -0.58246,0 -1.05902,-0.45 -1.05902,-1 z m 520.27083,0.39583 c 0.33229,-0.33229 1.1948,-0.36781 1.91667,-0.0789 0.79773,0.31922 0.56078,0.55618 -0.60417,0.60416 -1.05416,0.0434 -1.64479,-0.19293 -1.3125,-0.52522 z M 84.991727,521.9638 c -0.83718,-2.18165 0.27438,-3.1957 1.45561,-1.32791 1.18254,1.86986 1.20771,2.97104 0.0679,2.97104 -0.49116,0 -1.17675,-0.73941 -1.52354,-1.64313 z m 58.416553,-0.92359 c 0,-1.07042 5.23757,-7.43328 6.11869,-7.43328 1.48876,0 0.98596,1.93943 -1.30675,5.04049 -1.91065,2.58429 -4.81194,4.02699 -4.81194,2.39279 z m 517.66667,-0.1 c -1.31683,-1.31677 -0.63121,-3.33328 1.13333,-3.33328 1.85479,0 4.2,1.78682 4.2,3.2 0,0.96504 -4.39183,1.07483 -5.33333,0.13333 z M 104.40966,519.4338 c 7.7e-4,-0.7298 1.73773,-3.28283 3.85993,-5.67338 2.12219,-2.39055 4.93407,-6.09094 6.24861,-8.2231 1.31454,-2.13215 2.93846,-3.88875 3.6087,-3.90354 2.40801,-0.0532 -0.1432,4.10509 -5.96862,9.72832 -0.9625,0.92909 -1.75,2.07387 -1.75,2.54394 0,0.47008 -1.35,2.20469 -3,3.85469 -1.65042,1.65041 -2.99938,2.40307 -2.99862,1.67307 z m 401.99862,0.24052 c 0,-0.51294 1.0125,-1.24496 2.25,-1.62672 1.2375,-0.38176 2.925,-1.32314 3.75,-2.09195 2.62266,-2.44405 9.21511,-6.46694 9.73904,-5.94302 0.94869,0.9487 -5.58099,6.5943 -7.62693,6.5943 -1.12296,0 -2.52341,0.9 -3.11211,2 -1.06813,1.99582 -5,2.83519 -5,1.06739 z m 108,0.11782 c 0,-0.44813 -1.575,-1.56585 -3.5,-2.48382 -1.925,-0.91797 -3.5,-2.07753 -3.5,-2.5768 0,-0.49928 -1.15697,-1.19815 -2.57104,-1.55306 -1.41407,-0.35491 -2.37989,-1.1912 -2.14626,-1.85841 0.54467,-1.5555 3.97247,-0.95284 5.01699,0.88206 0.43983,0.77265 1.81814,1.40482 3.06291,1.40482 2.04964,0 7.6374,4.61273 7.6374,6.30472 0,0.3824 -0.9,0.69528 -2,0.69528 -1.1,0 -2,-0.36665 -2,-0.81479 z M 81.137447,517.00276 c -0.40105,-0.40104 -0.72917,-1.41916 -0.72917,-2.2625 0,-1.12559 0.29583,-1.2375 1.1125,-0.42083 0.61187,0.61187 0.94,1.63 0.72917,2.2625 -0.21084,0.6325 -0.71146,0.82187 -1.1125,0.42083 z m 573.270833,-2.39583 c -1.375,-1.07554 -3.13629,-1.96553 -3.91398,-1.97776 -3.15125,-0.0496 -9.08602,-3.45567 -9.08602,-5.21469 0,-0.99415 -0.60615,-1.80755 -1.34699,-1.80755 -0.74084,0 -2.3847,-0.9 -3.65301,-2 -1.26831,-1.1 -2.92181,-2 -3.67445,-2 -0.75263,0 -1.87707,-1.11635 -2.49875,-2.48078 -0.62167,-1.36443 -1.96202,-2.74475 -2.97856,-3.06739 -1.01653,-0.32263 -1.84824,-1.03661 -1.84824,-1.58661 0,-1.33956 4.20124,-0.0397 5.61024,1.73576 0.61064,0.76946 1.54199,1.39902 2.06967,1.39902 0.52768,0 1.93759,1.125 3.13314,2.5 1.19555,1.375 3.0767,2.5 4.18034,2.5 1.10363,0 2.00661,0.47341 2.00661,1.05202 0,0.57861 1.35,1.52263 3,2.09782 1.65,0.5752 3,1.4752 3,2 0,0.52481 1.31392,1.41223 2.91983,1.97206 1.6059,0.55982 3.16678,1.66141 3.46861,2.44798 0.30183,0.78656 1.18281,1.43012 1.95773,1.43012 0.77492,0 1.96914,0.675 2.65383,1.5 1.91592,2.30855 -1.89692,1.92726 -5,-0.5 z M 34.596337,510.64742 c -2.39568,-3.24032 -2.91438,-6.44564 -0.93806,-5.79673 1.73868,0.57088 5.83531,6.80919 5.17409,7.87906 -0.92587,1.49809 -1.96746,0.98607 -4.23603,-2.08233 z m 42.47861,2.29284 c -0.36667,-0.36666 -0.66667,-1.54676 -0.66667,-2.62244 0,-1.62509 0.25363,-1.74529 1.5,-0.71089 0.825,0.68469 1.5,1.86479 1.5,2.62244 0,1.45708 -1.21652,1.82771 -2.33333,0.71089 z m 206.297963,-4.16428 c -10.42511,-4.92171 -17.9448,-15.08226 -23.06781,-31.16905 -2.15079,-6.75371 -2.38887,-9.29109 -2.39264,-25.5 -0.004,-18.88082 0.25614,-20.43734 5.70892,-34.10834 l 2.0375,-5.10834 -2.52639,-6.39166 c -5.02021,-12.7009 -6.01167,-19.33716 -5.46549,-36.58308 0.41917,-13.23589 0.89316,-16.95283 2.91253,-22.83976 4.92352,-14.3532 12.4251,-24.69035 21.31394,-29.37053 3.93187,-2.07022 4.87712,-2.09829 70.64641,-2.09829 l 66.66122,0 3.01779,3.43708 c 4.30464,4.90271 5.94596,12.83731 4.30195,20.79682 -0.68656,3.32399 -1.95957,7.12917 -2.82892,8.45597 -3.54737,5.41396 -2.19302,5.31013 -69.2661,5.31013 -68.99908,0 -66.86665,-0.19896 -71.11507,6.63527 -2.10018,3.37845 -2.40247,5.06926 -2.40247,13.43776 0,8.8032 0.22443,9.91216 2.79084,13.79028 1.53497,2.31949 3.92676,4.64912 5.3151,5.17697 1.51363,0.57548 27.33392,0.95972 64.49128,0.95972 52.18517,0 62.52096,0.23145 65.47619,1.46623 9.49739,3.96826 11.06305,26.61322 2.34709,33.94721 l -3.07395,2.58656 -63.84655,0 -63.84655,0 -3.21902,2.70863 c -4.74649,3.9939 -6.89051,9.52979 -6.89051,17.79137 0,7.73339 2.0402,13.48088 6.1156,17.22838 l 2.42336,2.22838 64.64333,0.27162 64.64334,0.27162 3.08873,2.95961 c 3.22318,3.08844 6.05071,10.57802 6.02985,15.97189 -0.0237,6.12011 -2.8104,13.97436 -5.96729,16.8185 l -3.05239,2.75 -65.73423,-0.081 c -59.20421,-0.0729 -66.08542,-0.24675 -69.26959,-1.75 z m -129.95645,-0.29661 c 0.004,-0.75484 2.04105,-3.39744 4.52568,-5.87244 2.48462,-2.475 4.9448,-5.5125 5.46707,-6.75 1.08566,-2.57248 4.58567,-3.22104 3.60606,-0.66821 -0.33385,0.86998 -0.60699,1.76998 -0.60699,2 0,0.23001 -0.675,0.41821 -1.5,0.41821 -0.825,0 -1.5169,0.5625 -1.53755,1.25 -0.0395,1.3156 -5.23423,7.43748 -8.21245,9.67823 -1.45621,1.09562 -1.74863,1.08626 -1.74182,-0.0558 z m 419.23681,-0.12244 c 0.22642,-0.6875 1.47989,-1.40572 2.78549,-1.59604 2.07253,-0.30212 2.2057,-0.14347 1.04923,1.25 -1.5661,1.88703 -4.42724,2.14522 -3.83472,0.34604 z m 25.19614,-0.2182 c -1.06762,-0.8075 -1.41543,-1.4825 -0.77292,-1.5 1.89979,-0.0517 4.33179,1.11336 4.33179,2.07519 0,1.31057 -1.35528,1.09152 -3.55887,-0.57519 z M 70.776127,504.5866 c -1.46329,-2.21118 -2.30807,-4.34868 -1.87728,-4.75 0.43078,-0.40132 1.00083,-0.11707 1.26678,0.63167 0.26595,0.74874 1.55434,2.29239 2.8631,3.43034 1.30875,1.13794 2.37955,2.66284 2.37955,3.38866 0,2.47361 -1.96684,1.32689 -4.63215,-2.70067 z m 454.632153,3.08772 c 0,-0.51294 0.84065,-1.19943 1.86812,-1.52553 1.02746,-0.32611 2.6722,-1.48143 3.65498,-2.56739 0.98278,-1.08596 2.61713,-1.97447 3.63189,-1.97447 1.01475,0 1.84501,-0.45965 1.84501,-1.02144 0,-0.56179 1.2375,-1.56736 2.75,-2.2346 1.5125,-0.66724 3.33802,-2.0076 4.0567,-2.97856 1.75796,-2.37506 4.1933,-2.23881 4.1933,0.2346 0,1.1 -0.60526,2 -1.34501,2 -0.73976,0 -2.1595,0.9 -3.15499,2 -0.99549,1.1 -2.60576,2 -3.57839,2 -0.97263,0 -3.83178,1.575 -6.35367,3.5 -4.46149,3.40554 -7.56794,4.45938 -7.56794,2.56739 z M 28.408277,503.36458 c 0,-0.77496 -1.125,-2.4659 -2.5,-3.75765 -2.55533,-2.40061 -3.31883,-5 -1.46862,-5 0.56727,0 1.30364,0.70947 1.63639,1.5766 0.33275,0.86714 1.69983,1.99286 3.03795,2.50162 1.72856,0.65719 2.3405,1.55329 2.11362,3.09506 -0.35567,2.41695 -2.81934,3.80144 -2.81934,1.58437 z m 550.270833,0.63818 c 0.33229,-0.33229 1.1948,-0.36781 1.91667,-0.0789 0.79773,0.31922 0.56078,0.55618 -0.60417,0.60416 -1.05416,0.0434 -1.64479,-0.19293 -1.3125,-0.52522 z m 6.72917,-3.27339 c 0,-0.48265 0.63494,-1.4045 1.41097,-2.04855 1.56708,-1.30056 3.16989,0.17725 2.08903,1.92611 -0.76156,1.23222 -3.5,1.32803 -3.5,0.12244 z m -466,-0.87459 c 0,-0.41368 1.9125,-2.85296 4.25,-5.42063 4.80655,-5.27985 7.53937,-8.63866 8.80251,-10.81886 0.68326,-1.17932 1.12141,-1.23444 2.09261,-0.26324 0.97119,0.97119 0.80173,1.70227 -0.80935,3.49164 -1.12076,1.24478 -2.31568,3.05074 -2.65537,4.01324 -0.3397,0.9625 -1.53175,1.75 -2.64902,1.75 -1.11726,0 -2.0456,0.5625 -2.06298,1.25 -0.0695,2.74756 -6.9684,8.68562 -6.9684,5.99785 z m -54.500003,-4.24785 c -0.33992,-0.55 -0.14148,-1 0.44098,-1 0.58246,0 1.05902,0.45 1.05902,1 0,0.55 -0.19844,1 -0.44098,1 -0.24254,0 -0.7191,-0.45 -1.05902,-1 z m -44.5,-2.5 c -0.87682,-1.05651 -0.9819,-1.9181 -0.31524,-2.58476 0.66667,-0.66667 1.43842,-0.47175 2.31524,0.58476 0.87682,1.05651 0.9819,1.9181 0.31524,2.58476 -0.66667,0.66667 -1.43842,0.47175 -2.31524,-0.58476 z m 147.841733,0.008 c -0.3041,-0.30411 0.10191,-2.54199 0.90226,-4.97308 1.16484,-3.53825 2.02482,-4.54527 4.31026,-5.04724 1.5703,-0.34489 3.13081,-1.4958 3.46781,-2.55758 0.6518,-2.05365 2.47794,-2.67171 2.47794,-0.83866 0,1.91227 -10.29,14.28483 -11.15827,13.41656 z M 60.867157,491.54 c -0.36253,-0.58659 -0.41903,-1.30665 -0.12555,-1.60014 0.71632,-0.71631 2.66667,0.54583 2.66667,1.72569 0,1.27797 -1.72641,1.19267 -2.54112,-0.12555 z m 488.541123,0.17392 c 0,-1.01369 3.04579,-2.39454 3.74326,-1.69706 0.25136,0.25135 0.16039,0.93695 -0.20214,1.52354 -0.79781,1.29088 -3.54112,1.42531 -3.54112,0.17352 z m 72,-0.10699 c 0,-0.55 0.45,-1 1,-1 0.55,0 1,0.45 1,1 0,0.55 -0.45,1 -1,1 -0.55,0 -1,-0.45 -1,-1 z M 16.074947,488.94026 c -0.36667,-0.36666 -0.66667,-1.49166 -0.66667,-2.5 0,-1.00833 -0.675,-1.83333 -1.5,-1.83333 -0.883461,0 -1.500001,-0.91365 -1.500001,-2.22286 0,-2.06121 0.21817,-1.984 3.000001,1.06172 1.65,1.80652 3,3.9318 3,4.72286 0,1.50884 -1.19945,1.90549 -2.33333,0.77161 z m 37.33333,-5.4175 c -4.7105,-5.30005 -6.46452,-8.5107 -5.10764,-9.34931 0.89606,-0.55379 11.10764,11.76236 11.10764,13.39688 0,2.00731 -1.54488,0.96514 -6,-4.04757 z m 503.000003,-1.41583 c 0,-4.68292 1.38435,-6.0151 2.52291,-2.42783 0.79754,2.51285 -0.18512,6.92783 -1.54196,6.92783 -0.53952,0 -0.98095,-2.025 -0.98095,-4.5 z m -420.77083,-2.6875 c 0.61807,-1.85422 2.77083,-2.16176 2.77083,-0.39583 0,0.87083 -0.7125,1.58333 -1.58333,1.58333 -0.87084,0 -1.40521,-0.53438 -1.1875,-1.1875 z M 4.1582762,473.63355 c -2.6125,-3.27636 -4.74999996,-6.42268 -4.74999996,-6.99182 0,-0.56914 -0.68912304,-1.0348 -1.53138504,-1.0348 -0.842261,0 -1.820385,-0.75312 -2.173609,-1.67361 -0.353223,-0.92048 -1.4641,-2.49548 -2.468615,-3.5 -1.0045146,-1.00451 -1.8263906,-2.50139 -1.8263906,-3.32639 0,-2.29209 2.7800856,-1.78487 4.1108006,0.75 0.649642,1.2375 1.790475,2.60986 2.535184,3.04969 0.744708,0.43983 1.36830304,1.56483 1.38576604,2.5 0.01746,0.93517 1.59246396,3.25365 3.49999996,5.15217 1.907537,1.89853 3.468249,3.92778 3.468249,4.50946 0,0.58167 0.9,1.61965 2,2.30661 1.9140098,1.19532 2.8153298,4.24097 1.25,4.22388 -0.4125,-0.004 -2.8875,-2.68884 -5.5,-5.96519 z m 176.2500038,3.09582 c 0,-0.48265 0.675,-1.43775 1.5,-2.12244 0.825,-0.68469 1.5,-1.86479 1.5,-2.62244 0,-0.75766 0.9,-1.37756 2,-1.37756 2.73262,0 2.51407,1.0213 -0.91019,4.25325 -3.03674,2.8662 -4.08981,3.34749 -4.08981,1.86919 z m 371.02896,-0.0834 c -0.80907,-0.51167 -1.16598,-1.23537 -0.79313,-1.60823 0.9151,-0.91509 3.76417,0.24885 3.76417,1.53779 0,1.2701 -1.03529,1.29465 -2.97104,0.0704 z M 139.40828,475.8031 c 0,-0.44211 1.575,-2.33039 3.5,-4.19617 3.06072,-2.96657 3.5,-3.13857 3.5,-1.37048 0,1.11202 -1.0415,3.00029 -2.31445,4.19617 -2.32234,2.18172 -4.68555,2.87293 -4.68555,1.37048 z m 481.60502,-0.96841 c 1.15776,-0.95027 2.38114,-2.51526 2.71862,-3.47776 0.40212,-1.14686 1.65836,-1.75 3.64498,-1.75 1.66726,0 3.03138,-0.42682 3.03138,-0.94848 0,-3.20162 14.368,-12.08352 16.34654,-10.10498 0.56107,0.56107 0.82513,1.1567 0.58679,1.32363 -5.3524,3.7488 -8.85477,5.72983 -10.13009,5.72983 -0.8741,0 -1.84828,0.675 -2.16487,1.5 -0.31658,0.825 -1.10062,1.5 -1.74231,1.5 -0.6417,0 -2.20933,1.125 -3.48364,2.5 -1.27431,1.375 -3.19026,2.5 -4.25768,2.5 -1.06742,0 -2.19978,0.675 -2.51637,1.5 -0.31658,0.825 -1.37722,1.48999 -2.35699,1.47776 -1.58704,-0.0198 -1.55173,-0.21072 0.32364,-1.75 z M 43.467207,471.35693 c -0.49037,-1.2375 -2.50423,-3.56574 -4.47525,-5.17387 -1.97102,-1.60812 -3.58368,-3.78312 -3.58368,-4.83333 0,-2.45521 2.19926,-1.77919 3.48713,1.07189 0.54292,1.20192 1.52509,2.18531 2.18261,2.18531 0.65752,0 1.48129,0.90048 1.8306,2.00106 0.34931,1.10059 1.50463,2.46642 2.56738,3.03519 1.06276,0.56876 1.93228,1.69328 1.93228,2.49893 0,2.29997 -2.95158,1.71193 -3.94107,-0.78518 z m 502.191073,1.58772 c -0.6875,-0.27741 -1.25,-0.94818 -1.25,-1.4906 0,-1.40712 4.26069,-0.5981 4.75501,0.90288 0.41398,1.25706 -1.1827,1.52479 -3.50501,0.58772 z m -7.28517,-4.8801 c -0.97409,-1.17371 -1.00165,-1.8208 -0.11531,-2.70714 1.43083,-1.43083 4.78232,1.41817 3.70979,3.15356 -0.93574,1.51405 -2.08599,1.3712 -3.59448,-0.44642 z m -349.96483,-0.39117 c 0,-2.00884 6.26523,-10.87044 8.55001,-12.09322 1.32927,-0.7114 2.67963,-2.1214 3.00081,-3.13334 0.32117,-1.01194 0.97149,-1.83989 1.44514,-1.83989 0.47365,0 1.58975,-0.72857 2.48023,-1.61905 0.89048,-0.89047 1.86802,-1.37008 2.17231,-1.06578 0.61729,0.61729 0.1421,1.25431 -5.73268,7.68483 -2.26111,2.475 -4.79392,5.5125 -5.62847,6.75 -0.83455,1.2375 -2.14062,2.25 -2.90236,2.25 -0.76174,0 -1.38499,0.9 -1.38499,2 0,1.1 -0.45,2 -1,2 -0.55,0 -1,-0.4201 -1,-0.93355 z m 402.5,-2.06645 c -0.83704,-1.35436 0.29243,-3 2.05902,-3 0.79254,0 1.44098,0.9 1.44098,2 0,2.07031 -2.41251,2.7596 -3.5,1 z m -442.5,-1.44098 c 0,-0.24254 0.45,-0.7191 1,-1.05902 0.55,-0.33992 1,-0.14148 1,0.44098 0,0.58246 -0.45,1.05902 -1,1.05902 -0.55,0 -1,-0.19844 -1,-0.44098 z m 383.5,-0.55902 c -0.36058,-0.58342 0.65628,-1 2.44098,-1 1.68246,0 3.05902,0.45 3.05902,1 0,0.55 -1.09844,1 -2.44098,1 -1.34254,0 -2.7191,-0.45 -3.05902,-1 z m 46,-0.87469 c -5.04978,-2.77172 -9.5,-6.43185 -9.5,-7.81337 0,-0.72157 0.35847,-1.31194 0.79661,-1.31194 1.06989,0 4.95944,2.91326 8.12413,6.08497 1.41859,1.42173 3.2321,2.80184 4.03001,3.06691 0.79791,0.26507 1.02291,0.73803 0.5,1.05101 -0.52291,0.31298 -2.30075,-0.17193 -3.95075,-1.07758 z m -425.5,-2.70321 c 0,-0.81668 0.63066,-1.72688 1.40146,-2.02266 0.7708,-0.29578 1.62867,-1.40666 1.90638,-2.46861 0.27771,-1.06196 1.22205,-1.93083 2.09854,-1.93083 0.95071,0 1.59362,-0.84463 1.59362,-2.09362 0,-1.24086 0.80113,-2.30312 1.96688,-2.60797 1.08179,-0.28289 2.22293,-1.25326 2.53587,-2.15638 0.31294,-0.90312 1.93095,-3.21703 3.59556,-5.14203 l 3.02657,-3.5 -0.68933,3 c -0.37914,1.65 -1.99716,4.38682 -3.5956,6.08181 -1.88208,1.99577 -2.68067,3.66969 -2.26612,4.75 0.49608,1.29276 0.0577,1.66819 -1.94779,1.66819 -1.85294,0 -2.74898,0.64165 -3.15498,2.25927 -0.70173,2.79595 -6.47106,6.50735 -6.47106,4.16283 z m 444,-0.26158 c 0,-0.46172 1.125,-1.35207 2.5,-1.97857 2.00518,-0.91362 2.5,-0.8676 2.5,0.2325 0,0.75436 -0.7118,1.64472 -1.58179,1.97856 -2.19317,0.8416 -3.41821,0.75828 -3.41821,-0.23249 z M 30.447237,455.41837 c -2.1201,-2.27566 -2.76381,-5.81144 -1.05801,-5.81144 0.53952,0 1.2633,1.125 1.60841,2.5 0.3451,1.375 1.25367,2.5 2.01905,2.5 0.76537,0 1.39159,0.675 1.39159,1.5 0,2.13296 -1.58988,1.85659 -3.96104,-0.68856 z m 617.961043,1.19483 c 0,-1.0578 7.74027,-7.00627 9.11671,-7.00627 0.44914,0 2.40194,-1.58531 4.33954,-3.52292 1.9376,-1.9376 4.84884,-3.7881 6.46941,-4.11221 1.62056,-0.32411 3.18613,-1.2138 3.47903,-1.97708 0.2929,-0.76329 1.72676,-1.38779 3.18637,-1.38779 2.24558,0 2.46232,0.23075 1.40894,1.5 -0.68469,0.825 -2.08979,1.5 -3.12244,1.5 -1.03266,0 -1.87756,0.64468 -1.87756,1.43261 0,0.78794 -0.94442,1.73236 -2.09872,2.09872 -1.1543,0.36636 -2.9543,1.52169 -4,2.56739 -1.0457,1.0457 -2.75314,1.90128 -3.79429,1.90128 -1.04116,0 -2.15203,0.675 -2.46862,1.5 -0.31658,0.825 -1.48972,1.5 -2.60699,1.5 -1.11732,0 -2.03138,0.65912 -2.03138,1.46482 0,1.45709 -2.90052,3.53518 -4.93426,3.53518 -0.58616,0 -1.06574,-0.44718 -1.06574,-0.99373 z m -128,-1.00627 c 0,-1.25292 1.06124,-1.25292 3,0 1.21296,0.78387 1.06944,0.9723 -0.75,0.98469 -1.2375,0.008 -2.25,-0.43469 -2.25,-0.98469 z m 82,0.0674 c 0,-1.07501 3.89024,-2.51048 4.6755,-1.72523 0.28862,0.28863 0.22815,1.00472 -0.13438,1.59131 -0.81061,1.31158 -4.54112,1.42159 -4.54112,0.13391 z m -613.81667,-1.28407 c -1.400795,-1.40079 -1.545004,-2.78333 -0.290322,-2.78333 0.91646,0 2.4247626,3.01556 1.8138606,3.62646 -0.1871126,0.18711 -0.8727046,-0.19229 -1.5235386,-0.84313 z m 525.81667,-3.15833 c 0,-0.75625 -1.35,-1.645 -3,-1.975 -1.65,-0.33 -3,-1.06125 -3,-1.625 0,-1.94941 3.51343,-0.93224 6.96223,2.01564 3.13223,2.6773 3.25137,2.95936 1.25,2.95936 -1.21673,0 -2.21223,-0.61875 -2.21223,-1.375 z m 48.02896,0.41406 c -0.80907,-0.51167 -1.23942,-1.16193 -0.95633,-1.44502 0.77481,-0.77481 4.92737,0.50836 4.92737,1.52259 0,1.147 -2.09956,1.10599 -3.97104,-0.0776 z m 45.47104,-0.0391 c 0.33992,-0.55 1.29303,-1 2.11803,-1 0.825,0 1.22189,0.45 0.88197,1 -0.33992,0.55 -1.29303,1 -2.11803,1 -0.825,0 -1.22189,-0.45 -0.88197,-1 z m -625.750003,-4.86111 c -3.149036,-3.21265 -3.408696,-4.13889 -1.160293,-4.13889 1.767563,0 5.325242,3.80446 5.377024,5.75 0.0515,1.9348 -1.215565,1.45068 -4.216731,-1.61111 z m 631.250003,1.4285 c 0,-0.78794 1.0125,-1.74377 2.25,-2.12408 1.2375,-0.38031 3.05503,-1.53563 4.03896,-2.56739 1.84063,-1.93011 3.71104,-2.47944 3.71104,-1.08992 0,0.93108 -7.99673,7.214 -9.18178,7.214 -0.45002,0 -0.81822,-0.64468 -0.81822,-1.43261 z M 24.877237,447.55671 c -0.95021,-1.53748 0.35135,-2.52947 1.63484,-1.24598 0.71818,0.71818 0.73543,1.27752 0.0524,1.69964 -0.55992,0.34605 -1.31919,0.1419 -1.68727,-0.45366 z m 532.224893,0.41074 c -0.35171,-0.35171 -0.4123,-1.00706 -0.13464,-1.45633 0.62351,-1.00885 3.44079,-0.024 3.44079,1.2028 0,1.0261 -2.35313,1.20654 -3.30615,0.25353 z m -348.69385,-3.70553 c 0,-0.73976 0.81801,-2.0853 1.8178,-2.9901 0.99979,-0.9048 2.83136,-3.67454 4.07015,-6.15499 1.50352,-3.01051 2.89397,-4.5099 4.1822,-4.5099 1.06142,0 1.92985,-0.64844 1.92985,-1.44098 0,-1.52312 1.79984,-3.09251 2.61349,-2.27886 0.73168,0.73168 -5.40058,9.42416 -7.11166,10.08076 -0.826,0.31697 -1.50183,1.26543 -1.50183,2.1077 0,0.84226 -0.45965,1.53138 -1.02144,1.53138 -0.56179,0 -1.53402,1.125 -2.16051,2.5 -1.22646,2.69177 -2.81805,3.34409 -2.81805,1.15499 z m 293.74549,-0.60796 c -0.75235,-1.07414 -2.57787,-2.413 -4.0567,-2.97525 -3.415,-1.29838 -3.47958,-3.07178 -0.11187,-3.07178 2.57826,0 8.42308,4.80396 8.42308,6.92308 0,1.78611 -2.79262,1.21108 -4.25451,-0.87605 z m 46.50451,1.30919 c -0.6875,-0.28759 -1.25,-1.01245 -1.25,-1.61081 0,-0.59836 -0.70431,-1.86619 -1.56514,-2.81739 -2.21831,-2.4512 -0.16177,-3.27806 2.6976,-1.08461 1.30215,0.99889 3.19246,2.11799 4.2007,2.4869 1.00823,0.36891 1.64799,1.23301 1.42167,1.92022 -0.44331,1.34611 -3.47457,1.95496 -5.50483,1.10569 z m -529.581703,-1.6095 c -0.94268,-0.6893 -1.97601,-3.0518 -2.29629,-5.25 l -0.58233,-3.99672 3.60516,3.80565 c 3.67913,3.88373 4.64322,6.69435 2.29629,6.69435 -0.71988,0 -2.08015,-0.56398 -3.02283,-1.25328 z m -43.001633,-2.41339 c -0.366667,-0.36666 -0.666667,-1.49166 -0.666667,-2.5 0,-1.00833 -0.675,-1.83333 -1.5,-1.83333 -0.825,0 -1.5,-0.675 -1.5,-1.5 0,-0.825 0.381146,-1.5 0.84699,-1.5 1.787487,0 5.15301,3.83204 5.15301,5.8673 0,2.10744 -1.039076,2.76029 -2.333333,1.46603 z m 648.333336,-0.79473 c 0,-0.72698 1.21738,-1.62733 2.70528,-2.00077 1.48791,-0.37344 3.31342,-1.54722 4.05671,-2.6084 1.26209,-1.8019 4.23801,-2.71061 4.23801,-1.2941 0,1.33744 -5.49464,5.64614 -8.18369,6.41735 -2.07534,0.5952 -2.81631,0.45995 -2.81631,-0.51408 z m -452.40344,-3.38237 c -0.34605,-0.55992 -0.1419,-1.31919 0.45366,-1.68727 1.53748,-0.95021 2.52947,0.35135 1.24598,1.63484 -0.71818,0.71818 -1.27752,0.73543 -1.69964,0.0524 z m 319.65344,0.18149 c -0.6875,-0.27741 -1.25,-1.15314 -1.25,-1.94605 0,-0.80406 -1.33602,-1.70887 -3.02081,-2.04583 -1.66144,-0.33229 -3.30642,-1.06629 -3.65549,-1.6311 -0.98686,-1.59677 5.36911,-0.0294 8.184,2.01808 3.52277,2.56246 3.34435,5.05836 -0.2577,3.6049 z m 185.75,-0.77033 c 0,-1.89315 3.89072,-3.07667 5.3423,-1.62509 0.85464,0.85464 0.76664,1.37765 -0.35066,2.08403 -2.23961,1.41593 -4.99164,1.1629 -4.99164,-0.45894 z m -138.5,-0.56739 c -0.33992,-0.55 0.30852,-1 1.44098,-1 1.13246,0 2.05902,0.45 2.05902,1 0,0.55 -0.64844,1 -1.44098,1 -0.79254,0 -1.7191,-0.45 -2.05902,-1 z M 12.502216,432.22012 c -0.81795,-0.98557 -0.86038,-1.6395 -0.13544,-2.08754 0.5806,-0.35883 1.333041,0.0705 1.672101,0.9541 0.84418,2.19989 -0.0836,2.88424 -1.536661,1.13344 z m 671.906064,0.36206 c 0,-0.56361 1.08129,-1.43586 2.40286,-1.93832 1.32157,-0.50246 2.71529,-1.41908 3.09714,-2.03693 0.38185,-0.61785 1.77557,-1.53447 3.09714,-2.03693 3.02545,-1.15027 3.10643,-3.58716 0.15286,-4.59944 -1.2375,-0.42414 -10.35,-0.82957 -20.25,-0.90096 -9.9,-0.0714 -18.3926,-0.20471 -18.87244,-0.29624 -0.47985,-0.0915 -0.31225,-0.84143 0.37244,-1.66643 1.05039,-1.26564 5.46846,-1.5 28.27743,-1.5 26.9692,0 27.0283,0.005 25.22257,2 -0.99549,1.1 -2.57049,2 -3.5,2 -0.92951,0 -2.50451,0.9 -3.5,2 -0.99549,1.1 -2.41523,2 -3.15499,2 -0.73975,0 -2.24501,0.9 -3.34501,2 -1.1,1.1 -2.675,2 -3.5,2 -0.825,0 -1.5,0.62686 -1.5,1.39301 0,0.76616 -0.7118,1.66616 -1.58179,2 -2.30129,0.88309 -3.41821,0.74658 -3.41821,-0.41776 z M 532.86716,431.5404 c -0.36253,-0.58659 -0.423,-1.30268 -0.13438,-1.59131 0.78526,-0.78525 4.6755,0.65022 4.6755,1.72523 0,1.28768 -3.73051,1.17767 -4.54112,-0.13392 z m 104.98225,-0.46527 c 2.20359,-1.66671 3.55887,-1.88576 3.55887,-0.57519 0,0.96183 -2.432,2.12691 -4.33179,2.07519 -0.64251,-0.0175 -0.2947,-0.6925 0.77292,-1.5 z M -33.365747,427.7385 c -1.774063,-2.20758 -2.865223,-4.23649 -2.424799,-4.50869 1.034989,-0.63966 6.450645,6.12166 5.995936,7.48578 -0.190062,0.57019 -1.797074,-0.7695 -3.571137,-2.97709 z m 209.774027,3.297 c 0,-0.31428 0.5625,-1.20301 1.25,-1.97495 1.18716,-1.33297 1.87635,-2.21431 6.80607,-8.70362 l 2.08909,-2.75 23.64171,0 c 22.4491,0 23.55407,0.0876 21.90459,1.73711 -1.53621,1.53621 -4.13431,1.73966 -22.46429,1.75907 -20.37241,0.0216 -20.7828,0.0635 -23.97717,2.45095 -1.7875,1.33594 -3.25,2.96761 -3.25,3.62592 0,0.65831 -1.10917,1.92368 -2.46482,2.81194 -2.60398,1.70619 -3.53518,1.98108 -3.53518,1.04358 z M 7.4486162,427.43821 c -2.450673,-5.87798 -2.629015,-5.9337 -18.6853932,-5.83742 -8.17022,0.049 -15.979946,0.0722 -17.354946,0.0517 -1.375,-0.0206 -4.532094,-0.0438 -7.015764,-0.0516 -3.415272,-0.0107 -4.818614,-0.49909 -5.758474,-2.00405 -1.227091,-1.9649 -0.953416,-1.98991 21.775552,-1.98991 22.2731222,0 23.0745932,0.0689 24.7584722,2.12942 0.957117,1.17119 2.764183,3.27428 4.015703,4.67353 2.3433198,2.61994 2.4829098,4.27758 0.41816,4.96583 -0.64974,0.21658 -1.61873,-0.65529 -2.15331,-1.9375 z M 479.8056,428.1067 c -1.83494,-1.38895 -1.82529,-1.43721 0.29366,-1.46797 2.33865,-0.0339 3.91535,1.47543 2.47265,2.36707 -0.47794,0.29538 -1.72278,-0.10921 -2.76631,-0.8991 z m 49.10268,-0.49977 c -0.33992,-0.55 0.0835,-1 0.94098,-1 0.85746,0 1.55902,0.45 1.55902,1 0,0.55 -0.42344,1 -0.94098,1 -0.51754,0 -1.2191,-0.45 -1.55902,-1 z m 113.5,-0.0314 c 0,-0.56727 0.7875,-1.31886 1.75,-1.67022 0.9625,-0.35136 2.82319,-1.46224 4.13486,-2.46862 2.59838,-1.99358 5.11514,-2.40803 5.11514,-0.8423 0,1.26764 -7.4814,6.01254 -9.48013,6.01254 -0.83593,0 -1.51987,-0.46412 -1.51987,-1.03138 z m -418,-2.9096 c 0,-0.51754 0.45,-1.2191 1,-1.55902 0.55,-0.33992 1,0.0835 1,0.94098 0,0.85746 -0.45,1.55902 -1,1.55902 -0.55,0 -1,-0.42344 -1,-0.94098 z m 248.26797,-1.059 c -0.94185,-1.1 -2.46259,-2 -3.37943,-2 -0.91683,0 -2.72932,-0.88503 -4.02776,-1.96673 -2.35908,-1.96532 -2.34096,-1.96676 25.20888,-2 l 27.56967,-0.0333 2.17372,2.5 c 1.19555,1.375 2.9642,2.51368 3.93034,2.53041 1.64689,0.0285 1.64395,0.096 -0.0472,1.07978 -1.3375,0.77811 -2.40278,0.65688 -4.1211,-0.46901 -1.8208,-1.19303 -6.14823,-1.56146 -20.19623,-1.71949 -23.75586,-0.26723 -26.36178,-0.14212 -24.1289,1.15841 0.9625,0.5606 1.75,1.44692 1.75,1.96959 0,1.67405 -2.96259,1.01687 -4.73203,-1.04969 z"
         id="path3002"
         inkscape:connector-curvature="0" />
      <path
         style="fill:#f0635a"
         d="m 283.37291,508.77598 c -10.42511,-4.92171 -17.9448,-15.08226 -23.06781,-31.16905 -2.15079,-6.75371 -2.38887,-9.29109 -2.39264,-25.5 -0.004,-18.88082 0.25614,-20.43734 5.70892,-34.10834 l 2.0375,-5.10834 -2.52639,-6.39166 c -5.02021,-12.7009 -6.01167,-19.33716 -5.46549,-36.58308 0.41917,-13.23589 0.89316,-16.95283 2.91253,-22.83976 4.92352,-14.3532 12.4251,-24.69035 21.31394,-29.37053 3.93187,-2.07022 4.87712,-2.09829 70.64641,-2.09829 l 66.66122,0 3.01779,3.43708 c 4.30464,4.90271 5.94596,12.83731 4.30195,20.79682 -0.68656,3.32399 -1.95957,7.12917 -2.82892,8.45597 -3.54737,5.41396 -2.19302,5.31013 -69.2661,5.31013 -68.99908,0 -66.86665,-0.19896 -71.11507,6.63527 -2.10018,3.37845 -2.40247,5.06926 -2.40247,13.43776 0,8.8032 0.22443,9.91216 2.79084,13.79028 1.53497,2.31949 3.92676,4.64912 5.3151,5.17697 1.51363,0.57548 27.33392,0.95972 64.49128,0.95972 52.18517,0 62.52096,0.23145 65.47619,1.46623 9.49739,3.96826 11.06305,26.61322 2.34709,33.94721 l -3.07395,2.58656 -63.84655,0 -63.84655,0 -3.21902,2.70863 c -4.74649,3.9939 -6.89051,9.52979 -6.89051,17.79137 0,7.73339 2.0402,13.48088 6.1156,17.22838 l 2.42336,2.22838 64.64333,0.27162 64.64334,0.27162 3.08873,2.95961 c 3.22318,3.08844 6.05071,10.57802 6.02985,15.97189 -0.0237,6.12011 -2.8104,13.97436 -5.96729,16.8185 l -3.05239,2.75 -65.73423,-0.081 c -59.20421,-0.0729 -66.08542,-0.24675 -69.26959,-1.75 z"
         id="path3000"
         inkscape:connector-curvature="0" />
      <path
         style="fill:#ec3023"
         d="m 284.90828,507.39417 c -1.65,-0.58018 -4.88666,-2.57861 -7.19258,-4.44096 -15.64572,-12.63606 -22.94169,-44.23258 -16.44582,-71.22158 1.24107,-5.15642 2.85139,-10.33142 3.57848,-11.5 2.34067,-3.76193 2.63759,-7.3847 0.96995,-11.83444 -5.19838,-13.87079 -6.60517,-21.12308 -6.65159,-34.29026 -0.0347,-9.85689 0.44433,-14.95185 1.98145,-21.07293 4.02104,-16.01239 12.13906,-28.61453 21.76011,-33.77965 3.95241,-2.12187 4.74949,-2.15095 67,-2.4439 34.65,-0.16307 64.4084,-0.0403 66.12977,0.27276 2.17523,0.39563 3.97407,1.78756 5.89809,4.56393 2.46562,3.55788 2.77406,4.90191 2.82076,12.2915 0.0582,9.20268 -1.85329,14.0986 -6.40336,16.40131 -1.86473,0.9437 -17.3369,1.241 -65.17109,1.25224 -58.8197,0.0138 -62.91171,0.12778 -65.71074,1.82997 -4.64748,2.8263 -6.91372,6.41511 -8.57533,13.57987 -1.37104,5.91179 -1.37285,7.29022 -0.0172,13.13554 1.66932,7.19797 4.60137,11.92273 8.72947,14.06683 2.23116,1.15884 13.37272,1.40253 64.125,1.40253 33.78356,0 62.86645,0.28836 64.62865,0.6408 8.90326,1.78065 11.89588,22.68759 4.37167,30.54118 l -2.64655,2.76239 -64.78453,0.27781 -64.78454,0.27782 -3.53259,3.42442 c -8.84259,8.57185 -9.10532,28.40419 -0.48572,36.6641 l 3.03824,2.91148 64.91643,0.5 64.91643,0.5 2.99782,3 c 6.70451,6.70936 5.9883,24.92019 -1.17747,29.9393 -1.96619,1.37717 -9.81638,1.55142 -66.75572,1.48175 -42.49179,-0.052 -65.55197,-0.43917 -67.52749,-1.13381 z"
         id="path2998"
         inkscape:connector-curvature="0" />
      <flowRoot
         transform="translate(-90.571419,289.57648)"
         style="font-size:36px;font-style:normal;font-weight:normal;line-height:125%;letter-spacing:0px;word-spacing:0px;fill:#000000;fill-opacity:1;stroke:none;font-family:Sans"
         id="flowRoot3022"
         xml:space="preserve"><flowRegion
           id="flowRegion3024"><rect
             y="516.40106"
             x="434.3656"
             height="69.700523"
             width="117.1777"
             id="rect3026" /></flowRegion><flowPara
           id="flowPara3028" /></flowRoot>      <flowRoot
         style="font-size:36px;font-style:normal;font-weight:normal;line-height:125%;letter-spacing:0px;word-spacing:0px;fill:#000000;fill-opacity:1;stroke:none;font-family:Sans"
         id="flowRoot3030"
         xml:space="preserve"><flowRegion
           id="flowRegion3032"><rect
             y="423.46701"
             x="764.68549"
             height="64.649765"
             width="81.822357"
             id="rect3034" /></flowRegion><flowPara
           id="flowPara3036" /></flowRoot>      <g
         id="g3860">
        <text
           xml:space="preserve"
           style="font-size:18.37045097000000000px;font-style:normal;font-weight:normal;line-height:125%;letter-spacing:0px;word-spacing:0px;fill:#9e9ea2;fill-opacity:1;stroke:#9e9ea2;stroke-width:0.51029027000000005;stroke-opacity:1;font-family:Sans"
           x="652.78064"
           y="630.84448"
           id="text3038"
           sodipodi:linespacing="125%"
           transform="scale(1.1343269,0.88158009)"><tspan
             sodipodi:role="line"
             id="tspan3040"
             x="652.78064"
             y="630.84448"
             style="stroke-width:0.51029027000000005;fill:#9e9ea2;fill-opacity:1;stroke:#9e9ea2;stroke-opacity:1">R</tspan></text>
        <path
           sodipodi:type="arc"
           style="fill:none;stroke:#9e9ea2;stroke-width:2.10870886;stroke-miterlimit:1;stroke-opacity:1;stroke-dasharray:none"
           id="path3042"
           sodipodi:cx="851.05353"
           sodipodi:cy="250.22586"
           sodipodi:rx="19.697975"
           sodipodi:ry="21.718279"
           d="m 870.7515,250.22586 c 0,11.99467 -8.81908,21.71828 -19.69797,21.71828 -10.87889,0 -19.69798,-9.72361 -19.69798,-21.71828 0,-11.99467 8.81909,-21.71828 19.69798,-21.71828 10.87889,0 19.69797,9.72361 19.69797,21.71828 z"
           transform="matrix(0.55019055,0,0,0.40874615,280.11867,448.27802)" />
      </g>
    </g>
  </g>
</svg>
