<?xml version="1.0" encoding="UTF-8" standalone="no"?>
<!-- Created with Inkscape (http://www.inkscape.org/) -->

<svg
   xmlns:dc="http://purl.org/dc/elements/1.1/"
   xmlns:cc="http://creativecommons.org/ns#"
   xmlns:rdf="http://www.w3.org/1999/02/22-rdf-syntax-ns#"
   xmlns:svg="http://www.w3.org/2000/svg"
   xmlns="http://www.w3.org/2000/svg"
   xmlns:sodipodi="http://sodipodi.sourceforge.net/DTD/sodipodi-0.dtd"
   xmlns:inkscape="http://www.inkscape.org/namespaces/inkscape"
   width="1919.8717"
   height="1083.0991"
   id="svg2"
   version="1.1"
   inkscape:version="0.48.4 r9939"
   sodipodi:docname="DPRG_LOGO.svg"
   inkscape:export-filename="C:\Users\steve\SkyDrive\dprg\video\stock\DPRG_LOGO.png"
   inkscape:export-xdpi="300"
   inkscape:export-ydpi="300">
  <defs
     id="defs4" />
  <sodipodi:namedview
     id="base"
     pagecolor="#ffffff"
     bordercolor="#666666"
     borderopacity="1.0"
     inkscape:pageopacity="0.0"
     inkscape:pageshadow="2"
     inkscape:zoom="0.46875"
     inkscape:cx="668.00486"
     inkscape:cy="272.04498"
     inkscape:document-units="px"
     inkscape:current-layer="layer1"
     showgrid="false"
     inkscape:window-width="1920"
     inkscape:window-height="1017"
     inkscape:window-x="1916"
     inkscape:window-y="116"
     inkscape:window-maximized="1"
     fit-margin-top="0"
     fit-margin-left="0"
     fit-margin-right="0"
     fit-margin-bottom="0"
     inkscape:showpageshadow="false"
     showborder="true" />
  <metadata
     id="metadata7">
    <rdf:RDF>
      <cc:Work
         rdf:about="">
        <dc:format>image/svg+xml</dc:format>
        <dc:type
           rdf:resource="http://purl.org/dc/dcmitype/StillImage" />
        <dc:title></dc:title>
      </cc:Work>
    </rdf:RDF>
  </metadata>
  <g
     inkscape:label="Layer 1"
     inkscape:groupmode="layer"
     id="layer1"
     transform="translate(1,731.40424)">
    <g
       id="g3810"
       transform="translate(-3.5466659e-8,-733.12831)">
      <path
         id="rect3766"
         d="M 332.22975,1.8125001 C 466.42783,10.817672 570.73397,78.638786 570.73397,161.00614 c 0,84.28616 -109.21799,153.37287 -247.92669,159.76005 l 0,0.44055 -14.05544,0 c -2.30665,0.0348 -4.62872,0.0629 -6.94946,0.0629 -1.09043,0 -2.16849,-0.0234 -3.2556,-0.0314 l -299.54678,0 0,27.43959 619.28456,0 0,-346.8652896 -286.05481,0 z"
         style="fill:#a11714;fill-opacity:1;stroke:none"
         inkscape:connector-curvature="0" />
      <path
         sodipodi:nodetypes="ssssssssssssscccccccccsssssssssssssssssssscss"
         inkscape:connector-curvature="0"
         id="path3816"
         d="m 385.76897,301.95835 c -11.79664,-1.17333 -25.91402,-7.73567 -33.25679,-15.45914 -2.91048,-3.06136 -6.15584,-9.242 -7.47128,-14.2287 -1.68021,-6.36952 -3.7755,-9.81163 -7.54978,-12.40265 -9.26479,-6.36024 -13.50496,-11.25528 -19.90243,-22.97636 -8.60493,-15.7654 -18.47695,-27.10233 -26.32567,-30.23211 -8.68754,-3.46426 -22.75776,-3.63724 -25.68971,-0.31581 -1.22324,1.38575 -4.2644,4.79664 -6.75814,7.57978 -2.49373,2.78314 -5.77304,6.49059 -7.28733,8.23876 -2.74131,3.16472 -2.80014,3.16308 -13.54598,-0.37992 -14.95926,-4.93219 -28.99031,-17.27558 -30.8565,-27.14509 -2.16268,-11.43762 -6.98001,-17.76355 -21.55503,-28.3051 -13.95137,-10.09051 -21.06371,-19.09394 -21.06371,-26.66435 l 0,-4.0592 44.43384,0 44.43384,0 0,-58.334642 0,-58.334629 39.89976,0 39.89976,0 0,26.238264 0,26.238268 8.61473,2.669784 c 4.73809,1.468381 11.29484,3.685444 14.57055,4.926809 3.27568,1.241366 9.30033,2.257026 13.3881,2.257026 4.19579,0 9.91678,1.353108 13.1376,3.107254 8.71242,4.745006 45.67852,5.343596 57.76968,0.935463 8.19073,-2.986128 8.94211,-3.010537 14.509,-0.471372 3.22902,1.472828 10.88768,3.508361 17.01925,4.523425 13.21366,2.187482 13.33564,2.437284 13.33564,27.3112 0,14.37483 0.49449,16.69111 5.38645,25.23098 5.25582,9.17504 5.38399,9.96655 5.28496,32.63605 -0.0686,15.68234 -0.78761,23.70196 -2.21261,24.67607 -1.16112,0.79373 -6.28741,2.73619 -11.39181,4.3166 -7.00573,2.16908 -9.08507,3.53268 -8.48265,5.5627 1.03883,3.50066 -20.98592,20.60195 -32.00946,24.85402 -4.43268,1.7098 -9.90284,4.55484 -12.15588,6.3223 -2.25304,1.76744 -6.96545,5.24201 -10.47203,7.72123 -4.39497,3.10735 -6.75065,6.33455 -7.58299,10.38836 -0.66407,3.23438 -2.32251,7.82274 -3.68546,10.19639 -3.44537,6.00036 -3.09293,12.93935 0.97347,19.16652 1.89831,2.90704 4.00349,7.62291 4.67815,10.47971 l 1.22667,5.19418 -9.66563,-0.23497 c -5.31612,-0.12923 -14.15437,-0.68142 -19.64058,-1.2271 z"
         style="fill:#d9dee1;fill-opacity:1;stroke:none" />
      <flowRoot
         transform="matrix(1.7096871,0,0,1.0069572,-27.339227,-441.4689)"
         style="font-size:108px;font-style:normal;font-variant:normal;font-weight:normal;font-stretch:normal;line-height:125%;letter-spacing:0px;word-spacing:0px;fill:#a11714;fill-opacity:1;stroke:none;font-family:Britannic Bold;-inkscape-font-specification:Britannic Bold"
         id="flowRoot3785"
         xml:space="preserve"><flowRegion
           id="flowRegion3787"><rect
             style="font-size:108px;font-style:normal;font-variant:normal;font-weight:normal;font-stretch:normal;fill:#a11714;fill-opacity:1;stroke:none;font-family:Britannic Bold;-inkscape-font-specification:Britannic Bold"
             y="552.33667"
             x="25.253813"
             height="127.27922"
             width="514.16766"
             id="rect3789" /></flowRegion><flowPara
           style="font-size:108px;font-style:normal;font-variant:normal;font-weight:normal;font-stretch:normal;fill:#a11714;fill-opacity:1;stroke:none;font-family:Britannic Bold;-inkscape-font-specification:Britannic Bold"
           id="flowPara3791">DPRG</flowPara></flowRoot>      <text
         transform="scale(0.82233127,1.2160549)"
         sodipodi:linespacing="125%"
         id="text3793"
         y="196.57562"
         x="29.83317"
         style="font-size:38.67058563px;font-style:normal;font-weight:normal;line-height:125%;letter-spacing:0px;word-spacing:0px;fill:#fc7a76;fill-opacity:1;stroke:none;font-family:Sans"
         xml:space="preserve"><tspan
           style="fill:#fc7a76;fill-opacity:1;stroke:none;font-family:Britannic Bold;-inkscape-font-specification:Britannic Bold"
           y="196.57562"
           x="29.83317"
           id="tspan3795"
           sodipodi:role="line">Dallas Personal Robotics Group</tspan></text>
      <path
         style="fill:#fa2c27;fill-opacity:1;stroke:none"
         d="m 431.87726,146.80546 c -0.11556,-0.36396 -1.52153,-10.11199 -2.80759,-19.46571 -0.21874,-1.591 -0.47719,-3.07924 -0.57433,-3.3072 -0.14598,-0.34254 -1.07396,0.23941 -5.34893,3.35441 -11.81743,8.61089 -14.44244,10.45951 -14.72015,10.36638 -0.72561,-0.2433 -0.78142,-0.16772 11.87026,-16.07854 2.15185,-2.70619 2.51417,-3.28117 2.1511,-3.41372 -0.24013,-0.0877 -2.30999,-0.39509 -4.59968,-0.68315 -10.25823,-1.29056 -18.8274,-2.42677 -19.23547,-2.55052 -0.57285,-0.1737 -0.57478,-0.75767 -0.003,-0.91286 0.24285,-0.066 5.60755,-0.78485 11.92156,-1.59764 6.31401,-0.81276 11.6768,-1.55261 11.91731,-1.64408 0.36226,-0.13777 -0.24392,-1.0219 -3.53231,-5.15203 -2.18329,-2.74215 -5.44561,-6.842225 -7.24962,-9.111272 -4.86076,-6.113799 -4.61225,-6.536469 1.3141,-2.234915 15.5166,11.262507 15.33311,11.135797 15.51523,10.714657 0.14909,-0.34481 1.40537,-8.946639 2.8763,-19.694194 0.19959,-1.458421 0.42507,-2.841511 0.50104,-3.07353 0.1784,-0.544803 0.78801,-0.544803 0.96098,0 0.11556,0.363956 1.52154,10.111988 2.80758,19.465704 0.21875,1.591 0.47721,3.08261 0.57434,3.31467 0.14705,0.35129 1.12709,-0.27018 5.85356,-3.71183 12.33171,-8.979538 13.93647,-10.110015 14.21688,-10.015063 0.15996,0.05416 0.27703,0.265312 0.26017,0.469228 -0.0258,0.313002 -5.30808,7.109429 -12.87994,16.572185 -1.73099,2.16327 -1.8015,2.29944 -1.27326,2.4592 0.30757,0.093 3.11384,0.50409 6.23616,0.91349 3.1223,0.40939 7.2097,0.94913 9.08308,1.1994 1.87338,0.25026 4.50893,0.58963 5.85677,0.75417 2.84189,0.3469 3.27887,0.51395 2.72171,1.0405 -0.26608,0.25146 -3.22548,0.72234 -9.96617,1.58578 -10.56504,1.35331 -14.26855,1.86318 -14.39233,1.98143 -0.0828,0.0791 0.6101,0.96504 8.97325,11.47135 5.9233,7.44122 5.94761,7.47508 5.60161,7.80566 -0.35089,0.33525 -0.65086,0.14976 -5.72137,-3.53795 -13.2669,-9.64881 -14.39994,-10.44048 -14.55392,-10.16883 -0.089,0.15693 -0.23297,0.82771 -0.32007,1.49062 -0.48449,3.68779 -2.94496,20.81506 -3.05612,21.27367 -0.15585,0.64298 -0.78812,0.72084 -0.97871,0.12053 z"
         id="path3861"
         inkscape:connector-curvature="0" />
      <path
         style="fill:#fa2c27;fill-opacity:1;stroke:none"
         d="m 432.11819,146.52708 c -0.0926,-0.14306 -0.89725,-5.37476 -1.78824,-11.626 -0.89098,-6.25125 -1.67767,-11.42103 -1.74819,-11.48842 -0.12448,-0.11892 -1.77911,1.05325 -13.80531,9.77995 -3.14639,2.28316 -5.84293,4.15118 -5.99232,4.15118 -0.6975,0 -0.91057,0.29042 8.03596,-10.95294 3.36927,-4.23425 6.17884,-7.83033 6.24349,-7.99129 0.12921,-0.32175 0.1596,-0.31599 -5.59411,-1.05858 -18.7856,-2.42452 -19.38791,-2.52059 -18.62529,-2.97091 0.23689,-0.13989 5.34939,-0.85378 16.71092,-2.33346 4.08154,-0.53157 7.4754,-1.01847 7.5419,-1.082 0.11908,-0.11378 -1.33659,-1.99369 -10.13584,-13.089759 -2.44673,-3.085411 -4.44862,-5.715989 -4.44862,-5.845741 0,-0.56121 0.876,-0.04024 4.92001,2.926206 9.38023,6.880704 15.02347,10.889154 15.15423,10.764214 0.0756,-0.0722 0.8625,-5.25716 1.74866,-11.522068 0.88616,-6.264919 1.7188,-11.493565 1.8503,-11.619206 0.15061,-0.143895 0.29878,-0.136205 0.40033,0.02081 0.0886,0.137076 0.89626,5.37153 1.79462,11.632112 0.89838,6.260582 1.68744,11.434502 1.75347,11.497592 0.066,0.0631 0.26474,0.008 0.44155,-0.12196 5.97869,-4.40173 19.17053,-13.813581 19.3614,-13.813581 0.1439,0 0.26165,0.103347 0.26165,0.22965 0,0.126303 -2.00197,2.756881 -4.44882,5.845735 -8.2035,10.355896 -10.18505,12.888736 -10.18505,13.018696 0,0.16775 -0.003,0.16726 12.99205,1.88127 6.10486,0.80519 11.20419,1.5638 11.33187,1.68579 0.39276,0.37525 -0.75293,0.61594 -6.15774,1.29371 -8.73409,1.09522 -18.02616,2.34779 -18.12621,2.44337 -0.13295,0.12702 0.29317,0.68129 7.45884,9.70183 7.10844,8.94847 7.27283,9.16821 7.03161,9.39869 -0.24216,0.23137 -0.063,0.35461 -10.23069,-7.04122 -8.33838,-6.06528 -9.84888,-7.11467 -9.85125,-6.844 -0.008,0.96005 -3.33972,23.02055 -3.49934,23.17305 -0.13524,0.12921 -0.29586,0.11189 -0.39584,-0.0427 z"
         id="path3859"
         inkscape:connector-curvature="0" />
      <path
         style="fill:#fa2c27;fill-opacity:1;stroke:none"
         d="m 432.15684,146.10469 c -0.0783,-0.12115 -0.84967,-5.26065 -1.71398,-11.4211 -0.86431,-6.16045 -1.6569,-11.2938 -1.7613,-11.40744 -0.1044,-0.11365 -4.45855,2.90019 -9.67587,6.6974 -5.21734,3.79723 -9.65588,6.96631 -9.86345,7.04241 -0.20757,0.0761 -0.37693,0.0454 -0.37637,-0.0682 5e-4,-0.11363 3.30273,-4.36483 7.33814,-9.4471 4.03541,-5.08229 7.26757,-9.30697 7.18256,-9.38819 -0.085,-0.0813 -5.40248,-0.83123 -11.81661,-1.66672 -6.41412,-0.83548 -11.83235,-1.58096 -12.04051,-1.65659 -0.82426,-0.29952 0.5882,-0.56417 8.83079,-1.65463 4.64877,-0.61501 9.89692,-1.31059 11.66255,-1.54573 1.76563,-0.23515 3.27825,-0.49251 3.36138,-0.57193 0.0831,-0.0795 -3.14951,-4.30389 -7.18364,-9.38769 -4.03412,-5.083815 -7.33496,-9.336259 -7.33522,-9.449883 -2.6e-4,-0.113623 0.16215,-0.146968 0.36088,-0.07411 0.19875,0.07289 4.63901,3.244903 9.86726,7.048964 9.41369,6.849369 9.93525,7.162689 9.95218,5.978809 0.008,-0.58695 3.04766,-21.688081 3.16989,-22.007979 0.078,-0.204168 0.21938,-0.252676 0.35137,-0.120538 0.12147,0.121618 0.92866,5.265318 1.79374,11.430469 0.86507,6.165138 1.66226,11.304738 1.77151,11.421328 0.10926,0.11661 4.20891,-2.70747 9.11034,-6.275693 10.24591,-7.459031 10.53031,-7.657007 10.7281,-7.468044 0.14579,0.139296 -1.42271,2.173612 -10.13215,13.141247 -2.70264,3.40338 -4.36732,5.69996 -4.20229,5.7974 0.15032,0.0887 5.46943,0.84381 11.82027,1.67789 6.35084,0.83407 11.71729,1.60786 11.92544,1.71954 0.33641,0.18048 0.33641,0.21834 0,0.34058 -0.20815,0.0756 -5.62639,0.82111 -12.04052,1.65659 -6.41412,0.83549 -11.7326,1.58647 -11.81882,1.66886 -0.0862,0.0824 3.14604,4.30704 7.18281,9.38816 4.03675,5.08112 7.33992,9.33136 7.34035,9.44499 5e-4,0.11362 -0.17438,0.14236 -0.38848,0.0638 -0.21411,-0.0784 -4.65616,-3.24775 -9.87125,-7.04278 -9.30828,-6.77367 -9.89689,-7.12986 -9.92172,-6.00393 -0.0225,1.02542 -3.07183,21.68904 -3.24389,21.98277 -0.12155,0.20753 -0.28512,0.27819 -0.36349,0.15703 z"
         id="path3857"
         inkscape:connector-curvature="0" />
      <path
         style="fill:#fa2c27;fill-opacity:1;stroke:none"
         d="m 432.14186,145.39835 c -0.13164,-0.41083 -3.19236,-21.62873 -3.19236,-22.13034 0,-0.54049 -1.59063,0.51217 -9.95707,6.58954 -4.96835,3.60901 -9.18852,6.61871 -9.37817,6.68823 -0.18964,0.0695 -0.34246,0.0334 -0.3396,-0.0802 0.003,-0.11363 3.18192,-4.20849 7.06461,-9.09967 3.8827,-4.89122 7.05944,-9.02816 7.05944,-9.19324 0,-0.17013 -0.46449,-0.36163 -1.0723,-0.44209 -0.58978,-0.0781 -5.78417,-0.74627 -11.5431,-1.48489 -5.75893,-0.73862 -10.64109,-1.39944 -10.84925,-1.46853 -0.58083,-0.19275 0.11254,-0.47625 1.64,-0.67055 0.69386,-0.0883 5.80309,-0.75368 11.35387,-1.4787 5.55079,-0.72502 10.17748,-1.31835 10.28155,-1.31849 0.59887,-6.9e-4 -0.47922,-1.49844 -6.87443,-9.54922 -3.88503,-4.890735 -7.06411,-8.985215 -7.06463,-9.098838 -5.1e-4,-0.113623 0.15261,-0.150296 0.34029,-0.08151 0.18769,0.0688 4.45722,3.117789 9.48784,6.775502 8.20096,5.962826 9.85095,7.049006 9.85095,6.484826 0,-0.51261 3.07633,-21.952484 3.19301,-22.253127 0.11255,-0.289951 0.1836,-0.266071 0.35862,0.120528 0.17484,0.386181 3.26068,21.282069 3.26068,22.079789 0,0.61084 1.24189,-0.1642 7.1075,-4.43563 10.32574,-7.519359 12.32417,-8.922001 12.48827,-8.765217 0.16879,0.16126 -0.0999,0.511414 -8.41874,10.972167 -3.09445,3.89117 -5.62626,7.2094 -5.62626,7.37382 0,0.3336 -0.14131,0.31171 13.37233,2.07171 10.21086,1.32986 10.51391,1.37942 10.19189,1.66685 -0.12414,0.11082 -4.1428,0.70488 -8.93035,1.32015 -14.54895,1.86974 -14.63387,1.88249 -14.63387,2.19743 0,0.16152 3.17682,4.29342 7.05959,9.18199 3.88278,4.88857 7.06186,8.98128 7.06463,9.09491 0.0118,0.4857 0.11422,0.55668 -13.58467,-9.41943 -4.79721,-3.49353 -6.09032,-4.29447 -6.09032,-3.77223 0,0.13184 -1.34244,9.68497 -2.67159,19.0116 -0.43954,3.08427 -0.69201,3.91296 -0.94836,3.11279 z"
         id="path3855"
         inkscape:connector-curvature="0" />
      <path
         style="fill:#fa2c27;fill-opacity:1;stroke:none"
         d="m 432.13791,144.8167 c -0.0818,-0.33146 -0.77763,-5.10447 -1.54628,-10.6067 -1.56884,-11.23034 -1.58583,-11.32989 -1.93301,-11.32989 -0.13793,0 -3.27961,2.20323 -6.9815,4.89607 -10.70233,7.78509 -11.93301,8.6551 -12.06489,8.5291 -0.0684,-0.0654 1.15279,-1.72974 2.71389,-3.69852 5.48157,-6.91301 8.403,-10.58778 9.89674,-12.44879 1.10823,-1.38069 1.43324,-1.9496 1.22659,-2.14703 -0.15462,-0.14773 -5.1966,-0.90247 -11.2044,-1.67721 -6.00781,-0.77473 -11.20714,-1.47875 -11.55406,-1.5645 l -0.63077,-0.15588 0.75693,-0.20572 c 0.4163,-0.11313 5.35523,-0.8006 10.97539,-1.52769 12.14812,-1.57164 11.85849,-1.52663 11.85849,-1.84255 0,-0.13747 -2.98999,-4.01063 -6.64443,-8.60702 -6.87128,-8.642432 -7.66311,-9.68292 -7.36873,-9.68292 0.0958,0 4.358,3.037373 9.47161,6.749719 5.1136,3.712351 9.41051,6.749711 9.54869,6.749711 0.34769,0 0.36435,-0.0977 1.93346,-11.329877 0.76865,-5.502222 1.46447,-10.275244 1.54628,-10.606699 0.13988,-0.566679 0.1613,-0.573873 0.35876,-0.120538 0.1155,0.265174 0.84391,5.092432 1.61869,10.727237 1.57567,11.459617 1.55364,11.329877 1.92327,11.329877 0.24063,0 2.36229,-1.5105 14.23089,-10.131551 1.94277,-1.411176 3.87294,-2.773375 4.28924,-3.027096 l 0.75692,-0.461312 -0.48516,0.723184 c -0.26684,0.397747 -3.47431,4.484095 -7.1277,9.080765 -3.6534,4.59666 -6.64254,8.46612 -6.64254,8.59879 0,0.3264 -0.0221,0.32293 11.73232,1.83869 5.68954,0.73368 10.68524,1.42646 11.10156,1.53949 l 0.75692,0.20551 -0.63077,0.15588 c -0.34692,0.0857 -5.54625,0.78977 -11.55405,1.5645 -6.0078,0.77474 -11.04486,1.52478 -11.19347,1.66676 -0.2492,0.23809 2.17278,3.41227 12.34189,16.17497 0.88281,1.10797 1.54859,2.06847 1.47953,2.13446 -0.0691,0.066 -4.32703,-2.92873 -9.46216,-6.65492 -5.13513,-3.72618 -9.44436,-6.77489 -9.57606,-6.77489 -0.35458,0 -0.39205,0.2202 -1.92794,11.32989 -0.779,5.63481 -1.512,10.46207 -1.62887,10.72724 -0.20003,0.45379 -0.22125,0.44671 -0.36127,-0.12054 z"
         id="path3853"
         inkscape:connector-curvature="0" />
      <path
         style="fill:#fa2c27;fill-opacity:1;stroke:none"
         d="m 432.14144,144.09352 c -0.0904,-0.46404 -0.79667,-5.34553 -1.56961,-10.84776 -0.8166,-5.81302 -1.53512,-10.13149 -1.7151,-10.30826 -0.24753,-0.2431 -2.08159,0.984 -9.12851,6.10744 -8.31944,6.04863 -9.70183,7.01291 -9.70183,6.76745 0,-0.0561 3.12377,-4.0412 6.9417,-8.85578 5.50915,-6.94728 6.87595,-8.81328 6.62309,-9.04207 -0.17808,-0.16113 -4.9928,-0.88677 -10.91556,-1.64516 -5.82831,-0.74628 -10.88079,-1.41997 -11.2277,-1.49708 -0.58737,-0.13055 -0.59605,-0.15261 -0.12616,-0.32049 0.27754,-0.0992 1.12907,-0.25361 1.89232,-0.3432 7.90592,-0.92817 20.1245,-2.66502 20.37941,-2.89691 0.25745,-0.23419 0.15036,-0.50374 -0.5415,-1.3628 -2.9844,-3.70564 -12.40851,-15.637786 -12.74532,-16.137207 l -0.40644,-0.602646 0.75693,0.465727 c 0.41631,0.25615 4.60832,3.271057 9.31559,6.699776 6.96114,5.0704 8.61833,6.17585 8.87828,5.92238 0.19319,-0.18837 0.87437,-4.26869 1.72214,-10.315684 0.77139,-5.502222 1.49678,-10.329481 1.61198,-10.727228 l 0.20944,-0.723185 0.16233,0.723185 c 0.0892,0.397747 0.79767,5.225006 1.57419,10.727228 0.83823,5.939394 1.54009,10.129534 1.72743,10.312914 0.25491,0.24952 1.9606,-0.88833 8.87712,-5.92177 8.57352,-6.239344 9.94925,-7.203979 9.94925,-6.976227 0,0.06714 -3.12214,4.062431 -6.93811,8.878467 -5.45779,6.88812 -6.87091,8.81699 -6.62309,9.04034 0.17327,0.15616 5.02688,0.89554 10.78581,1.64309 5.75893,0.74754 10.8114,1.44831 11.22771,1.55724 l 0.75693,0.19805 -0.63078,0.14786 c -0.56555,0.13256 -7.03949,0.98883 -17.78771,2.35267 -2.08154,0.26413 -3.92655,0.52716 -4.10001,0.58452 -0.64723,0.21404 -0.25504,0.94931 2.03293,3.81122 4.36638,5.46168 10.93369,13.78313 11.13608,14.11053 0.37647,0.609 -0.63804,-0.0889 -9.56057,-6.57697 -7.07313,-5.14327 -8.87959,-6.35148 -9.13042,-6.10667 -0.18477,0.18034 -0.88949,4.44737 -1.72252,10.42977 -0.77541,5.56852 -1.50333,10.45001 -1.61763,10.84777 l -0.20781,0.72319 -0.16428,-0.84372 z"
         id="path3851"
         inkscape:connector-curvature="0" />
      <path
         style="fill:#fa2c27;fill-opacity:1;stroke:none"
         d="m 432.13354,142.72365 c -0.0803,-0.50611 -0.72055,-5.04236 -1.42272,-10.08054 -0.70218,-5.03819 -1.38837,-9.41505 -1.52487,-9.72636 -0.15804,-0.36042 -0.38503,-0.51587 -0.62488,-0.42793 -0.20719,0.0759 -4.15001,2.88431 -8.76184,6.24075 -4.61183,3.35645 -8.55545,6.20043 -8.7636,6.31993 -0.30236,0.17359 -0.32239,0.14739 -0.0996,-0.13031 0.1534,-0.19118 2.24956,-2.84258 4.65814,-5.892 2.40858,-3.04944 5.32024,-6.72472 6.47034,-8.16731 1.15011,-1.44258 2.0911,-2.71953 2.0911,-2.83763 0,-0.43511 -1.28527,-0.68049 -8.07386,-1.54143 -12.26134,-1.55501 -13.94369,-1.78021 -14.0488,-1.88062 -0.0568,-0.0543 0.78186,-0.21749 1.86358,-0.36282 4.88538,-0.65633 16.73433,-2.204 17.98831,-2.34959 1.44044,-0.16722 2.27077,-0.45587 2.27077,-0.7894 0,-0.1066 -0.982,-1.43164 -2.18223,-2.94451 -11.59393,-14.61422 -11.0855,-13.960061 -10.85001,-13.960061 0.0647,0 4.00336,2.820415 8.75266,6.267591 4.74931,3.44718 8.73616,6.2676 8.85968,6.2676 0.47198,0 0.73397,-1.37763 2.10768,-11.082639 1.22022,-8.62057 1.63838,-11.15583 1.63838,-9.933189 0,0.152856 0.21994,1.770988 0.48876,3.59583 0.26881,1.824852 0.898,6.246805 1.3982,9.826569 0.95625,6.843629 1.16529,7.728519 1.77308,7.505679 0.34481,-0.12643 5.6859,-3.95561 13.02547,-9.338381 3.80336,-2.789335 4.71003,-3.381757 4.38925,-2.867993 -0.1958,0.313585 -2.18433,2.836606 -11.18044,14.185584 -1.01403,1.27926 -1.72686,2.40021 -1.64922,2.5935 0.18124,0.45126 -0.25532,0.37871 11.56109,1.92084 5.68954,0.74252 10.37576,1.37941 10.41382,1.41529 0.0968,0.0912 -4.07661,0.67319 -13.06306,1.82163 -9.3495,1.19484 -8.83077,1.09436 -8.83077,1.71076 0,0.27309 1.61141,2.52194 3.58092,4.99743 1.96951,2.4755 4.82553,6.07382 6.34671,7.99628 1.52119,1.92247 2.89016,3.6502 3.04217,3.83941 0.44092,0.54885 -0.18036,0.13976 -3.90335,-2.57016 -10.34409,-7.52935 -13.72651,-9.94745 -13.91441,-9.94745 -0.46014,0 -0.73953,1.47978 -2.09177,11.07897 -0.77434,5.49682 -1.44856,10.03306 -1.49827,10.08057 -0.0497,0.0475 -0.15611,-0.32775 -0.23644,-0.83389 z"
         id="path3849"
         inkscape:connector-curvature="0" />
    </g>
    <rect
       style="fill:#a11714;fill-opacity:1;stroke:none"
       id="rect3827"
       width="1304.4059"
       height="1083.9827"
       x="614.46576"
       y="-731.40424" />
    <rect
       style="fill:#a11714;fill-opacity:1;stroke:none"
       id="rect3829"
       width="621.31671"
       height="738.09564"
       x="-0.81698877"
       y="-386.40082" />
    <flowRoot
       xml:space="preserve"
       id="flowRoot3028"
       style="font-size:40px;font-style:normal;font-variant:normal;font-weight:normal;font-stretch:normal;line-height:125%;letter-spacing:0px;word-spacing:0px;fill:#000000;fill-opacity:1;stroke:none;font-family:Britannic Bold;-inkscape-font-specification:Britannic Bold"
       transform="translate(-1,-757.40424)"><flowRegion
         id="flowRegion3030"><rect
           id="rect3032"
           width="1563.7333"
           height="605.86664"
           x="247.46666"
           y="408.96579"
           style="font-style:normal;font-variant:normal;font-weight:normal;font-stretch:normal;font-family:Britannic Bold;-inkscape-font-specification:Britannic Bold" /></flowRegion><flowPara
         id="flowPara3034"
         style="font-size:124px;font-style:normal;font-variant:normal;font-weight:normal;font-stretch:normal;text-align:center;text-anchor:middle;fill:#ffffff;fill-opacity:1;font-family:Britannic Bold;-inkscape-font-specification:Britannic Bold">Steve Edwards </flowPara><flowPara
         style="font-size:124px;font-style:normal;font-variant:normal;font-weight:normal;font-stretch:normal;text-align:center;text-anchor:middle;fill:#ffffff;fill-opacity:1;font-family:Britannic Bold;-inkscape-font-specification:Britannic Bold"
         id="flowPara3806">presents</flowPara><flowPara
         id="flowPara3036"
         style="font-size:124px;font-style:normal;font-variant:normal;font-weight:normal;font-stretch:normal;text-align:center;text-anchor:middle;fill:#ffffff;fill-opacity:1;font-family:Britannic Bold;-inkscape-font-specification:Britannic Bold">3D Modeling with DesignSpark</flowPara></flowRoot>  </g>
</svg>
