<?xml version="1.0" encoding="UTF-8" standalone="no"?>
<!-- Created with Inkscape (http://www.inkscape.org/) -->

<svg
   xmlns:dc="http://purl.org/dc/elements/1.1/"
   xmlns:cc="http://creativecommons.org/ns#"
   xmlns:rdf="http://www.w3.org/1999/02/22-rdf-syntax-ns#"
   xmlns:svg="http://www.w3.org/2000/svg"
   xmlns="http://www.w3.org/2000/svg"
   xmlns:sodipodi="http://sodipodi.sourceforge.net/DTD/sodipodi-0.dtd"
   xmlns:inkscape="http://www.inkscape.org/namespaces/inkscape"
   width="679.44531"
   height="651.27533"
   id="svg2"
   version="1.1"
   inkscape:version="0.48.4 r9939"
   sodipodi:docname="New document 1">
  <defs
     id="defs4" />
  <sodipodi:namedview
     id="base"
     pagecolor="#ffffff"
     bordercolor="#666666"
     borderopacity="1.0"
     inkscape:pageopacity="0.0"
     inkscape:pageshadow="2"
     inkscape:zoom="0.98994949"
     inkscape:cx="355.80441"
     inkscape:cy="358.52094"
     inkscape:document-units="px"
     inkscape:current-layer="layer1"
     showgrid="false"
     inkscape:window-width="1536"
     inkscape:window-height="803"
     inkscape:window-x="-8"
     inkscape:window-y="-8"
     inkscape:window-maximized="1"
     fit-margin-top="0"
     fit-margin-left="0"
     fit-margin-right="0"
     fit-margin-bottom="0" />
  <metadata
     id="metadata7">
    <rdf:RDF>
      <cc:Work
         rdf:about="">
        <dc:format>image/svg+xml</dc:format>
        <dc:type
           rdf:resource="http://purl.org/dc/dcmitype/StillImage" />
        <dc:title></dc:title>
      </cc:Work>
    </rdf:RDF>
  </metadata>
  <g
     inkscape:label="Layer 1"
     inkscape:groupmode="layer"
     id="layer1"
     transform="translate(-27.507244,-8.5282012)">
    <path
       style="fill:#202020"
       d="m 485.97087,659.04677 c -18.21864,-6.57037 -46.11221,-35.94962 -52.80749,-55.62018 l -3.19767,-9.39463 -24.23568,10.5219 c -43.33578,18.81414 -79.08301,11.22302 -100.69385,-21.38292 -8.87092,-13.38424 -11.46676,-14.82388 -18.91159,-10.48846 -6.57109,3.82659 -13.99942,3.73947 -31.14406,-0.36522 -12.38311,-2.96479 -27.69201,-6.57324 -34.01977,-8.01879 -18.34969,-4.19198 -92.92119,-49.05224 -93.13349,-56.02674 -0.38659,-12.70145 -25.30945,-27.40564 -59.006761,-34.81337 -22.88565,-5.03098 -36.50388,-10.38853 -39.44871,-15.51944 -5.87542,-10.23711 3.03638,-42.46594 14.16494,-51.22654 8.0008,-6.29837 37.5719,-45.03946 37.5719,-49.22294 0,-1.133 -11.52642,-8.12587 -25.61428,-15.5397 -14.08786,-7.41382 -25.61429,-16.10107 -25.61429,-19.30499 0,-9.88482 25.48538,-39.26493 51.78507,-59.699 60.594031,-47.07974 112.817261,-76.27563 153.791271,-85.97847 38.66833,-9.15685 42.20743,-11.84764 21.97007,-16.70393 -12.8189,-3.0761 -16.40785,-6.58289 -19.85993,-19.4052 -4.59981,-17.08542 2.10219,-46.911151 13.89081,-61.817919 5.92612,-7.493617 8.89499,-7.942241 25.39021,-3.836719 l 18.6794,4.64915 8.54207,-17.876633 8.54207,-17.876634 -0.36671,19.542017 c -0.2017,10.74811 1.26789,26.381727 3.26574,34.74137 2.68502,11.234988 1.72401,17.464688 -3.68453,23.884688 -7.0617,8.38232 -7.21564,8.26868 -4.41211,-3.25701 1.87198,-7.69598 0.99311,-11.94234 -2.47172,-11.94234 -3.40068,0 -4.99125,6.94174 -4.32804,18.88887 0.79423,14.30718 -1.41299,21.35264 -9.09969,29.04622 -5.58155,5.58654 -10.14827,12.72016 -10.14827,15.85249 0,8.84565 3.72358,6.78846 11.30766,-6.2472 3.82139,-6.56829 7.0319,-9.1955 7.13445,-5.83824 0.10255,3.35725 -5.043,12.49731 -11.43456,20.31123 -10.85719,13.27333 -11.1685,15.01289 -4.73639,26.46594 3.78654,6.74233 12.21358,23.30192 18.72675,36.79908 12.44209,25.78357 39.46031,49.73973 51.31383,45.49825 3.66079,-1.30992 15.96972,0.83715 27.35318,4.77127 19.59774,6.77297 21.73682,6.71578 40.26849,-1.07656 38.31568,-16.11127 75.80519,-79.27346 60.47285,-101.88434 -3.6656,-5.40569 -6.45389,-4.57539 -17.39299,5.17932 -7.16516,6.38938 -18.26685,13.55945 -24.67042,15.93348 -9.27765,3.43955 -9.83999,4.37234 -2.76816,4.59169 4.88108,0.15138 15.51697,-4.44895 23.63532,-10.22299 l 14.76062,-10.49825 -0.86222,19.2997 c -0.91133,20.39902 -6.8227,32.52988 -6.8227,14.00103 0,-15.16395 -2.61342,-16.30795 -22.29066,-9.75753 -19.33616,6.43689 -37.1769,7.89649 -21.9522,1.79597 6.58827,-2.6399 0.82305,-3.82155 -19.69861,-4.03744 -31.07762,-0.32695 -63.13604,-9.60811 -77.87446,-22.54524 -6.68485,-5.86785 -9.5986,-15.46351 -11.02111,-36.29507 -1.80769,-26.47224 -1.29412,-28.31833 7.87783,-28.31833 5.39636,0 23.58654,8.79391 40.42262,19.54202 18.26571,11.66079 35.84668,19.54202 43.59315,19.54202 14.57374,0 42.21463,-7.78084 49.30058,-13.87799 2.91517,-2.50837 1.60869,-2.92507 -3.49286,-1.11403 -5.70814,2.02638 -8.15,0.76151 -8.15,-4.22168 0,-3.9132 -3.13153,-8.23546 -6.95896,-9.605 -3.82743,-1.36955 -5.79947,-4.23952 -4.38229,-6.37772 1.41717,-2.13819 -10.64523,-3.93054 -26.80532,-3.98299 -32.36536,-0.10506 -60.69118,-9.76178 -75.95342,-25.89372 -8.67946,-9.174051 -8.10794,-9.085741 8.38533,1.29568 38.04472,23.94663 101.13145,25.29258 125.38675,2.67511 7.11035,-6.63023 12.92791,-15.057821 12.92791,-18.727981 0,-7.591637 -24.33869,-29.604517 -60.71105,-54.909491 -29.62407,-20.610051 -44.80978,-21.841948 -77.14531,-6.25819 -17.90169,8.627527 -20.3077,9.110785 -11.1722,2.243993 6.40357,-4.813314 20.332,-11.903466 30.95206,-15.755895 17.70413,-6.4221697 20.60759,-6.4278847 34.92857,-0.06875 8.59065,3.814617 31.85202,19.63622 51.69194,35.159116 19.83991,15.522898 40.01652,28.223451 44.8369,28.223451 17.00113,0 27.0457,26.109557 21.60238,56.152577 -2.39093,13.19632 -5.98726,18.01114 -16.48037,22.06402 -11.8602,4.58094 -13.09048,6.7747 -10.57301,18.85284 3.16285,15.17423 8.47744,19.97837 22.34152,20.19563 29.96471,0.46957 129.71339,51.65436 181.35766,93.06145 l 18.35771,14.71871 -11.90808,16.67184 c -6.54943,9.16951 -22.44487,26.60881 -35.32312,38.75401 -26.48419,24.97663 -27.90281,36.4478 -6.92629,56.00786 9.61961,8.97007 11.78699,15.18603 11.78699,33.80456 0,25.53746 -9.22552,44.45465 -38.51666,78.97949 -22.45372,26.46563 -42.58333,60.39144 -46.34155,78.10241 -4.35909,20.54279 -74.76982,61.85804 -93.75299,55.01195 z m 9.62347,-9.14484 c -3.84214,-2.31533 -10.12928,-4.10226 -13.97142,-3.97093 -4.60617,0.1572 -3.81299,1.51003 2.32857,3.97093 12.8029,5.13009 20.15597,5.13009 11.64285,0 z m 23.28572,-6.77031 c 0,-1.05327 -2.09572,-1.91503 -4.65715,-1.91503 -2.56142,0 -4.65714,2.06955 -4.65714,4.59898 0,2.52943 2.09572,3.39119 4.65714,1.91503 2.56143,-1.47616 4.65715,-3.5457 4.65715,-4.59898 z m -10.58508,-10.60037 c 6.51264,-4.77694 15.22606,-8.53104 19.36314,-8.34249 4.82173,0.21974 5.43218,1.12914 1.70051,2.53321 -3.20179,1.2047 -5.82143,4.0505 -5.82143,6.32398 0,4.81606 19.31494,-3.85378 24.3631,-10.9358 1.87329,-2.62806 0.22633,-6.99896 -3.65935,-9.71321 -3.88597,-2.71421 -11.37917,-16.39363 -16.65157,-30.3987 -10.41905,-27.67592 -22.31689,-49.64124 -29.66647,-54.76906 -7.52445,-5.24981 -48.89999,3.32879 -48.89999,10.1387 0,3.75159 10.3362,2.72372 34.3475,-3.4156 5.62079,-1.43716 7.59752,-0.51947 5.54656,2.57499 -1.75262,2.64434 -8.30222,4.8079 -14.55463,4.8079 -14.56648,0 -29.99658,14.34879 -29.99658,27.89454 0,9.95874 0.68769,10.21965 12.80715,4.85888 16.36919,-7.24053 44.32221,-12.08708 41.02551,-7.11308 -1.38387,2.08792 -8.29907,5.11732 -15.36722,6.73201 -16.28895,3.72119 -43.04891,20.36912 -43.09076,26.80765 -0.0729,11.22255 12.1966,14.79053 27.06977,7.87183 7.98913,-3.71637 22.4492,-7.58508 32.13349,-8.59705 l 17.60778,-1.83999 -16.3,5.55632 c -27.14273,9.25232 -41.91429,17.12527 -41.91429,22.33952 0,16.3954 31.05397,20.55112 49.95778,6.68545 z m 55.06992,-46.43431 -7.3215,-12.19174 2.98714,17.37068 c 3.72525,21.66298 8.27961,29.04791 10.19691,16.53442 0.80238,-5.23692 -1.83575,-15.00793 -5.86255,-21.71336 z m -11.48959,6.89508 c -4.10276,-9.564 -4.48576,-9.67304 -4.75718,-1.35426 -0.16253,4.976 1.10193,10.35006 2.80956,11.94234 5.56235,5.1868 6.5084,0.0439 1.94762,-10.58808 z m -169.96207,4.24648 c 11.96615,-2.80962 22.91208,-8.4983 25.70051,-13.35671 4.38027,-7.63194 3.9056,-7.98786 -4.83548,-3.62565 -5.3309,2.66036 -23.11872,6.00609 -39.5285,7.435 -24.26207,2.11266 -28.82495,3.67342 -24.42426,8.35451 6.73797,7.16732 16.4927,7.43739 43.08773,1.19285 z m 6.5032,-22.82868 c 9.01728,-2.69207 16.93552,-8.23279 17.8088,-12.4616 1.30281,-6.30886 -0.2832,-6.95978 -9.25067,-3.79662 -5.9527,2.09977 -22.34951,5.26106 -36.43737,7.02518 -31.19087,3.90571 -34.60517,5.58554 -27.52403,13.54166 5.84351,6.56556 23.60627,5.18415 55.40327,-4.30862 z m 151.9717,-9.89169 c -3.94008,-6.77948 -7.24763,-10.95257 -7.35018,-9.2736 -0.31529,5.162 10.51937,25.32463 12.57736,23.4056 1.06509,-0.99317 -1.28714,-7.35257 -5.22718,-14.132 z m -229.39536,5.0444 c -1.47437,-3.5827 -4.80878,-6.51401 -7.4098,-6.51401 -2.72584,0 -2.27322,2.75938 1.06851,6.51401 3.1887,3.5827 6.5231,6.51401 7.40979,6.51401 0.8867,0 0.40587,-2.93131 -1.0685,-6.51401 z m 122.0043,0.1381 c 4.97207,-3.50671 6.94441,-6.37587 4.38298,-6.37587 -2.56143,0 -8.72519,2.86916 -13.69726,6.37587 -4.97207,3.50675 -6.9444,6.37591 -4.38297,6.37591 2.56142,0 8.72519,-2.86916 13.69725,-6.37591 z m 155.66882,-5.82274 c -0.0615,-6.32845 -0.69527,-6.44309 -4.58584,-0.82937 -5.89408,8.50456 -5.89408,14.25343 0,10.85668 2.56142,-1.47616 4.62505,-5.98846 4.58584,-10.02731 z m -300.7284,-9.84792 c 13.2187,-14.64874 13.78853,-16.45082 7.92846,-25.07376 -3.23827,-4.76499 -5.85987,-4.35778 -13.97875,2.17134 -5.49614,4.41997 -18.70164,9.01339 -29.34556,10.20762 -10.67236,1.19741 -20.308,4.87725 -21.48269,8.20417 -1.23051,3.485 -0.0289,4.82193 2.84498,3.16564 2.7363,-1.57691 6.67568,-0.11248 8.75418,3.25413 3.4441,5.57869 13.71747,9.61498 27.81509,10.92833 2.9741,0.27707 10.83303,-5.5088 17.46429,-12.85747 z m 288.553,-3.0433 c -6.09453,-9.02442 -20.3533,-12.44562 -20.3533,-4.88351 0,2.97265 3.51321,9.02468 7.80709,13.44904 9.93625,10.23802 20.41403,3.08464 12.54621,-8.56553 z m -202.59268,3.09298 c 12.72336,-2.54441 24.25992,-7.36374 25.63682,-10.70959 2.957,-7.18547 -12.45894,-5.19097 -52.96886,6.85312 -22.64468,6.73253 -23.8861,7.66569 -10.7078,8.04906 8.19856,0.23841 25.31649,-1.64818 38.03984,-4.19259 z m -149.2893,-9.44987 c -1.27402,-8.51085 1.1261,-10.05953 19.10883,-12.33006 15.15489,-1.91346 23.41968,-5.9224 31.41258,-15.23695 10.27691,-11.97626 14.23487,-23.49697 8.07242,-23.49697 -1.55131,0 -9.33138,5.10854 -17.28905,11.35234 -12.70992,9.97256 -17.27664,11.0422 -37.5728,8.80073 -12.70738,-1.40338 -25.36053,-4.7567 -28.1181,-7.45185 -3.70852,-3.62457 1.08717,-4.14764 18.42155,-2.00935 21.44284,2.64512 24.96186,1.75965 41.39038,-10.41451 9.87528,-7.31796 19.80254,-13.30538 22.06056,-13.30538 3.69227,0 0.91247,-19.01325 -3.96587,-27.12575 -1.07194,-1.78262 -8.31904,-0.16936 -16.10467,3.58479 -20.40449,9.8391 -59.83,15.14697 -59.83,8.05496 0,-3.02697 -2.61964,-6.43476 -5.82143,-7.57284 -3.20178,-1.13813 6.90568,-2.00627 22.46103,-1.92927 40.34313,0.19976 64.53228,-16.09507 53.20084,-35.83837 -2.55224,-4.44689 -4.64044,-12.18347 -4.64044,-17.19238 0,-5.00893 -3.6675,-10.16555 -8.15,-11.45918 -4.4825,-1.29363 -11.29357,-3.85441 -15.13571,-5.69062 -8.26953,-3.95211 -18.62858,-1.39927 -18.62858,4.59076 0,2.33039 2.07057,3.04381 4.60125,1.58537 2.53068,-1.45843 10.38961,2.53741 17.46428,8.87966 11.34781,10.17298 11.60183,10.93531 2.15642,6.47148 -8.04688,-3.8029 -14.67914,-3.83736 -26.69775,-0.13871 -8.79512,2.70665 -20.74286,4.05181 -26.55052,2.98924 l -10.55939,-1.93194 10.42619,-3.21635 c 12.04812,-3.7167 9.598,-10.91426 -3.71532,-10.91426 -4.9717,0 -9.03944,-2.16605 -9.03944,-4.81345 0,-2.96586 4.46898,-3.76754 11.64286,-2.0886 16.89525,3.95411 14.28801,-3.2686 -3.49286,-9.67609 -13.2908,-4.78945 -14.1378,-5.99281 -6.94883,-9.87245 4.50279,-2.42999 10.266,-3.21997 12.80714,-1.75551 6.38263,3.67832 5.82135,0.10014 -2.92032,-18.61709 -4.14732,-8.88004 -8.90948,-21.82982 -10.58258,-28.77729 -4.04378,-16.79157 -21.21828,-27.95625 -48.24112,-31.36025 -18.31347,-2.3069 -22.12143,-1.60604 -22.12143,4.07146 0,8.49692 20.16113,22.60531 22.59076,15.8086 2.21438,-6.19457 23.98067,37.76145 23.98067,48.42785 0,4.53977 2.14402,8.25413 4.7645,8.25413 2.71284,0 1.93522,4.20753 -1.80585,9.77101 -3.61369,5.37405 -7.97704,17.24163 -9.69632,26.37238 -2.72101,14.45072 -2.03458,16.43379 5.2987,15.30774 13.82496,-2.12288 19.9968,4.24774 17.11807,17.66944 -1.45441,6.78102 -0.26415,16.47624 2.64497,21.54497 3.02683,5.27378 3.39318,9.21588 0.85645,9.21588 -2.4381,0 -5.59581,-2.44275 -7.01712,-5.42834 -1.42133,-2.98558 -1.32894,4.34267 0.20528,16.28502 3.27331,25.47918 4.58964,28.22736 13.52045,28.22736 3.69098,0 6.71087,1.9542 6.71087,4.34267 0,2.38847 -2.11348,4.34267 -4.69661,4.34267 -8.77672,0 6.8444,17.65043 17.94627,20.27762 7.74617,1.83308 9.18713,3.5837 4.95661,6.02176 -4.83425,2.786 -4.81005,4.73443 0.1277,10.28232 8.73118,9.81005 15.09007,8.43881 13.39446,-2.8884 z M 164.93721,315.6526 c 0,-2.31351 3.14357,-3.08153 6.98571,-1.70672 3.84215,1.37481 6.98572,3.26768 6.98572,4.20638 0,0.93869 -3.14357,1.70671 -6.98572,1.70671 -3.84214,0 -6.98571,-1.89287 -6.98571,-4.20637 z m 274.77142,227.5976 c 0,-1.05327 -2.09571,-1.91503 -4.65714,-1.91503 -2.56143,0 -4.65714,2.06954 -4.65714,4.59898 0,2.52943 2.09571,3.39119 4.65714,1.91503 2.56143,-1.47616 4.65714,-3.54571 4.65714,-4.59898 z m 115.02775,-13.85737 c 31.70904,-33.43531 38.66411,-47.10599 38.50986,-75.69353 -0.0922,-17.12842 -2.70025,-30.59053 -6.9376,-35.81322 -3.73424,-4.60258 -7.51938,-7.53388 -8.41145,-6.51401 -0.89213,1.01988 -8.06785,10.64823 -15.94611,21.39634 -19.12977,26.09828 -59.16234,61.93074 -84.98531,76.06886 l -20.95714,11.47408 24.53051,-2.67565 c 19.77568,-2.15701 25.07332,-1.35665 27.33078,4.12901 2.69532,6.54961 22.92772,19.03757 31.42542,19.39658 2.26342,0.0955 9.21188,-5.20017 15.44104,-11.76846 z m 37.7399,0.21279 c 1.94403,-12.23608 -13.21949,-17.24327 -21.2409,-7.01402 -5.1699,6.59282 -4.86099,8.63292 2.01738,13.32288 10.474,7.1416 17.45031,4.8521 19.22352,-6.30886 z m -159.75336,3.04421 c 1.58305,-2.38847 0.78255,-4.34267 -1.77887,-4.34267 -2.56143,0 -5.95237,1.9542 -7.53542,4.34267 -1.58305,2.38847 -0.78256,4.34267 1.77887,4.34267 2.56143,0 5.95237,-1.9542 7.53542,-4.34267 z m -265.175,-18.45635 c -3.9972,-9.0579 -5.8078,-28.11432 -5.05445,-53.19771 0.85912,-28.60518 0.0461,-35.59109 -3.03235,-26.05603 -2.31341,7.16541 -3.19373,22.79902 -1.95626,34.74137 2.12181,20.47682 1.97376,20.84777 -2.59974,6.514 -2.66731,-8.35964 -3.85442,-23.5047 -2.638,-33.65569 2.32878,-19.43371 -2.89387,-25.3398 -7.68029,-8.68534 -7.43101,25.85634 2.02632,69.28639 18.86623,86.63779 10.57648,10.89776 11.23587,9.88353 4.09486,-6.29839 z m 454.05231,-9.0513 c -4.1782,-3.86545 -4.78116,-3.36939 -2.55002,2.09803 1.60709,3.93824 0.68339,8.45049 -2.05268,10.02732 -2.73602,1.57678 -4.97462,5.14055 -4.97462,7.91951 0,2.77896 3.38612,0.54474 7.52469,-4.96489 5.75972,-7.6679 6.24117,-11.205 2.05263,-15.07997 z M 345.10075,468.59544 c -3.31437,-59.64317 -19.10229,-135.75288 -41.05166,-197.90011 -12.17836,-34.48167 -40.11195,-85.30237 -48.54505,-88.31993 -3.79805,-1.35904 -13.22225,-0.0313 -20.94266,2.95077 -17.40462,6.72243 -15.18798,10.54537 2.48213,4.28084 9.57805,-3.39567 14.6955,-3.14988 20.07398,0.96417 9.95852,7.61735 35.31321,60.05242 46.76735,96.71777 11.55613,36.99184 25.13827,98.14506 22.37111,100.72537 -1.10784,1.03303 -7.57592,-13.69431 -14.37354,-32.72741 -6.79761,-19.0331 -16.44321,-38.99647 -21.43466,-44.36305 l -9.07538,-9.75742 -19.36736,8.14374 c -10.65205,4.47906 -27.295,13.49871 -36.98433,20.04367 -16.44695,11.10961 -17.3314,12.82841 -13.31721,25.87997 7.05872,22.95037 10.96799,23.77963 41.57517,8.81913 15.44792,-7.5508 28.08714,-12.15145 28.08714,-10.22365 0,1.92779 -7.85893,7.12504 -17.46429,11.54945 l -17.46428,8.04436 12.89925,4.48515 c 9.17329,3.18961 14.43712,9.27147 18.22331,21.05532 4.42871,13.78358 6.95857,16.15576 15.0436,14.10596 9.39098,-2.3809 9.42318,-2.24269 0.9524,4.08854 -7.92633,5.9243 -8.20508,8.34067 -2.90648,25.19521 3.22337,10.25335 6.15623,26.45928 6.51748,36.01316 0.84011,22.21819 4.19728,26.79888 22.67384,30.93731 l 15.08231,3.37817 -16.3,2.8983 c -15.33357,2.72641 -14.94778,2.93212 6.50668,3.46992 l 22.80668,0.57167 -2.83553,-51.02638 z m 39.81189,33.6557 c 2.06975,-8.35964 5.07924,-43.15703 6.68775,-77.32753 l 2.92456,-62.12819 -11.72279,2.74356 c -9.06686,2.12198 -13.82383,0.25288 -20.99646,-8.24991 l -9.27367,-10.99348 -4.91231,10.05334 c -3.62305,7.4148 -2.59294,25.31591 3.92491,68.20676 4.86047,31.98437 8.87217,66.59471 8.9149,76.91181 0.0699,16.8658 1.11749,18.61838 10.3838,17.37068 7.46413,-1.00502 11.34385,-5.57903 14.06931,-16.58704 z m 19.53477,10.54648 c 9.27534,-8.64904 9.45839,-19.23182 0.33265,-19.23182 -7.7586,0 -9.41497,-6.77279 -2.6148,-10.69175 2.404,-1.3854 6.33141,0.74772 8.72758,4.74033 3.17843,5.29602 5.88484,-3.19408 10.00721,-31.39303 7.70755,-52.72322 8.34506,-54.8743 8.88131,-29.96695 0.25712,11.94235 -2.5687,33.43857 -6.27958,47.76938 -8.69422,33.57553 -8.80562,41.60065 -0.53641,38.64173 5.7718,-2.06529 24.09007,-49.77482 33.1779,-86.41111 6.98378,-28.15411 14.55806,-89.43845 11.28692,-91.32361 -1.90292,-1.09666 -4.54668,0.64707 -5.87503,3.87495 -1.64389,3.99464 -11.63313,5.99075 -31.27979,6.25051 -15.87553,0.20988 -29.77742,1.23282 -30.89309,2.27316 -1.11568,1.04033 -2.74581,33.88056 -3.62253,72.97829 -0.87671,39.09774 -3.13526,77.43792 -5.019,85.20044 -3.78866,15.61238 1.66862,18.51467 13.70666,7.28948 z m 3.44452,-87.12875 c 0.92006,-4.45489 3.73984,-7.61126 6.2662,-7.01414 6.76871,1.59982 5.5858,10.91009 -1.67284,13.16625 -4.08056,1.26835 -5.68272,-0.87751 -4.59336,-6.15211 z m 23.99305,-53.69785 c 0,-15.52505 0.84524,-21.8762 1.87832,-14.11368 1.03308,7.76252 1.03308,20.46484 0,28.22736 -1.03308,7.76252 -1.87832,1.41137 -1.87832,-14.11368 z m -24.77635,-15.19935 c 0,-3.98078 2.61964,-6.42353 5.82143,-5.42833 6.59299,2.04926 5.86824,9.03268 -1.16429,11.21856 -2.56142,0.79616 -4.65714,-1.80944 -4.65714,-5.79023 z m 200.25714,147.6508 c 0,-12.35768 -9.67037,-14.40776 -18.92314,-4.01167 -5.04894,5.67279 -4.94723,7.52055 0.59402,10.79015 11.66652,6.88378 18.32912,4.41979 18.32912,-6.77848 z m -465.38683,-3.53958 c -7.42268,-18.20482 -10.39894,-56.93297 -5.81863,-75.71416 2.49655,-10.23686 2.68704,-18.45635 0.42773,-18.45635 -11.76308,0 -15.36273,66.87809 -4.85011,90.11042 7.20184,15.91567 16.59295,19.63881 10.24101,4.06009 z m 337.3154,-5.50577 c 24.7292,-13.41824 62.60658,-50.18642 83.51054,-81.06506 12.27045,-18.12548 19.73739,-24.9782 27.23972,-24.99897 10.68232,-0.0295 38.1087,-14.65437 38.49971,-20.52953 0.12202,-1.8296 4.82932,-10.16625 10.46116,-18.52589 5.63188,-8.35964 10.24762,-16.2521 10.25717,-17.5388 0.0591,-7.94905 -107.45193,-56.12531 -125.72544,-56.33821 -6.20951,-0.0723 -6.20951,-0.54913 0,-4.29106 5.79446,-3.49182 5.3974,-4.23236 -2.32857,-4.34267 -7.75009,-0.11065 -8.14115,-0.85111 -2.32857,-4.40917 6.20951,-3.80104 6.20951,-4.7513 0,-8.55234 -10.9,-6.67223 -15.27701,-5.191 -12.62323,4.27184 1.33897,4.77456 0.53557,9.7754 -1.78541,11.11297 -7.06382,4.07089 -4.71685,10.5861 3.93007,10.90993 6.96913,0.261 6.80045,0.846 -1.16429,4.03745 -8.62307,3.45524 -8.45025,3.79876 2.32857,4.62884 11.41508,0.87908 11.43231,0.93412 0.8795,2.81339 -12.98891,2.31312 -13.28827,3.10421 -17.72452,46.84115 -2.84901,28.08827 -4.05777,31.83064 -6.31192,19.54202 -2.46507,-13.43827 -3.17613,-11.92877 -6.13682,13.02801 -1.84179,15.52505 -8.39517,45.81517 -14.56306,67.31139 -11.11919,38.75239 -13.05356,57.77533 -2.55114,25.08839 4.10964,-12.79051 9.02553,-18.26531 19.80855,-22.06059 19.77754,-6.96112 21.99606,-2.76945 2.69118,5.0847 -8.62261,3.5081 -12.65729,6.53776 -8.96593,6.73262 5.03386,0.26577 4.56648,1.81684 -1.8698,6.20537 -6.70017,4.56845 -7.24802,6.61949 -2.49912,9.35633 4.29866,2.47732 4.96435,1.81853 2.2701,-2.24647 -2.7911,-4.21113 -1.67169,-4.98573 4.17946,-2.89204 4.74691,1.69855 6.83634,1.11659 5.14626,-1.43334 -1.56489,-2.36111 -0.80582,-4.29295 1.68687,-4.29295 2.49273,0 12.08524,-6.83971 21.31672,-15.19935 9.23148,-8.35964 18.20351,-15.19934 19.93783,-15.19934 1.73432,0 9.38852,-5.37406 17.00933,-11.94235 l 13.85598,-11.94234 -9.91059,13.43948 c -5.45081,7.39172 -19.45484,20.73217 -31.12,29.64546 -11.66517,8.91324 -20.20157,17.72647 -18.9698,19.58492 2.70039,4.07434 -13.98508,18.79008 -30.07336,26.52321 -10.64524,5.11679 -11.09519,4.97722 -5.25119,-1.62868 5.56906,-6.29513 5.25093,-7.22499 -2.47184,-7.22499 -5.60092,0 -10.83395,4.86783 -14.21665,13.22448 -5.06707,12.51775 -4.81054,13.06831 4.80041,10.30233 5.58445,-1.60718 18.53641,-7.47074 28.78212,-13.03014 z m -6.98571,-58.00974 c 0,-2.52944 2.09571,-4.59897 4.65714,-4.59897 2.56143,0 4.65715,0.86177 4.65715,1.91504 0,1.05328 -2.09572,3.1228 -4.65715,4.59896 -2.56143,1.47616 -4.65714,0.6144 -4.65714,-1.91503 z m 164.68416,58.36975 c 1.47436,-3.5827 0.65069,-6.51401 -1.83031,-6.51401 -2.48104,0 -4.511,2.93131 -4.511,6.51401 0,3.5827 0.82367,6.51401 1.83031,6.51401 1.00668,0 3.03659,-2.93131 4.511,-6.51401 z m -13.97143,-13.02801 c 1.93667,-4.70611 -0.5101,-6.51401 -8.81602,-6.51401 -11.17905,0 -14.69971,4.25109 -8.39194,10.13289 5.40159,5.03689 14.42699,3.13879 17.20796,-3.61888 z m 30.91584,-7.81681 c 0,-8.29211 -9.81027,-16.02845 -20.72429,-16.34316 -8.52024,-0.2458 -8.32753,-0.72961 1.7917,-4.49944 6.23633,-2.32333 14.09526,-3.2379 17.46428,-2.03237 4.04305,1.44672 6.12545,-1.45263 6.12545,-8.52853 0,-12.24216 -5.44867,-13.78226 -14.15436,-4.00086 -3.6125,4.05888 -7.1197,5.00089 -8.85742,2.37909 -3.26252,-4.9224 -24.21356,3.30039 -26.60905,10.44339 -2.67292,7.97045 5.75963,15.14636 18.99951,16.16815 7.20488,0.55603 14.12279,3.4968 15.37309,6.53507 2.9713,7.22025 10.59109,7.13292 10.59109,-0.12134 z m -549.54285,-7.38254 c 0,-2.38847 -2.09571,-4.34267 -4.657137,-4.34267 -2.56143,0 -4.657142,1.9542 -4.657142,4.34267 0,2.38847 2.095712,4.34267 4.657142,4.34267 2.561427,0 4.657137,-1.9542 4.657137,-4.34267 z m -53.904631,-14.9443 c -1.9972,-7.42015 0.0803,-13.5381 6.92268,-20.3866 6.72592,-6.73194 8.27511,-11.18468 4.96518,-14.27111 -7.4248,-6.92344 -20.11333,2.72714 -25.16018,19.1362 -3.64181,11.84079 -2.91258,15.22451 4.3479,20.17503 11.66847,7.95608 12.23841,7.65886 8.92442,-4.65352 z m 56.727341,-13.28306 c 5.90173,-17.58245 1.23769,-20.44942 -6.73231,-4.13833 -6.248073,12.78707 -6.887331,19.33768 -1.887097,19.33768 1.934677,0 5.813397,-6.83971 8.619407,-15.19935 z m -14.794721,-6.514 3.046278,-10.85668 -7.014958,10.85668 c -7.81806,12.09959 -9.85771,21.61547 -3.21131,14.98221 2.27353,-2.26904 5.50453,-9.01104 7.17999,-14.98221 z m -11.3137,-5.70442 c 0,-2.22442 -3.14357,-1.61163 -6.98571,1.36175 -3.84214,2.97338 -6.91906,8.58671 -6.8376,12.47406 0.12444,5.93782 1.2414,5.72012 6.98571,-1.36173 3.76069,-4.63633 6.8376,-10.24967 6.8376,-12.47408 z m 546.049991,5.70442 c -3.91005,-7.29206 -9.64541,-7.9846 -17.65262,-2.13155 -8.72744,6.37955 -8.51582,6.61918 4.84547,5.48687 7.68429,-0.65119 13.4475,-2.16109 12.80715,-3.35532 z m -11.88871,-12.12346 c 10.22652,-6.06211 -1.10123,-15.37632 -14.80101,-12.17008 -10.36158,2.425 -11.56913,4.04426 -6.91534,9.27311 6.22408,6.99313 13.22978,7.92769 21.71635,2.89697 z m 20.03871,-14.44515 c 0,-2.38847 -2.09572,-3.13491 -4.65715,-1.65875 -2.56143,1.47616 -4.65714,4.63812 -4.65714,7.02659 0,2.38847 2.09571,3.13491 4.65714,1.65875 2.56143,-1.47616 4.65715,-4.63812 4.65715,-7.02659 z M 131.23608,387.47339 c -4.66146,-8.17084 -4.94287,-8.17729 -11.15477,-0.25565 -3.50497,4.46966 -6.37267,11.75279 -6.37267,16.18473 0,7.77781 0.38794,7.7867 11.15476,0.25565 9.01492,-6.30566 10.23741,-9.41041 6.37268,-16.18473 z m 480.78683,9.55427 c 0,-2.39836 -4.70953,-3.17938 -10.47857,-1.73774 -5.76321,1.44019 -12.05036,2.64521 -13.97143,2.67782 -1.92107,0.0326 -3.49285,1.67505 -3.49285,3.64985 0,1.97481 6.28714,2.73011 13.97142,1.67845 7.68429,-1.05166 13.97143,-3.87243 13.97143,-6.26838 z M 91.587209,395.85571 c -1.72589,-6.43742 -21.01469,-5.26734 -23.40515,1.41978 -1.46074,4.08632 1.81296,5.34948 11.25477,4.34267 7.32307,-0.78088 12.79074,-3.37398 12.15038,-5.76245 z m 18.720521,-19.28007 c -4.4412,-6.63129 -4.02794,-9.31973 2.15286,-14.00529 6.62326,-5.02099 7.23948,-4.77945 4.59475,1.801 -1.68705,4.19758 -0.88211,7.59967 1.79809,7.59967 7.25618,0 2.9804,-13.59934 -5.9187,-18.82473 -5.64918,-3.31709 -9.82572,-2.95739 -15.356157,1.32254 -6.025544,4.66309 -6.347054,6.61793 -1.554657,9.45269 4.593254,2.71696 4.224524,3.58978 -1.537886,3.64033 -7.366991,0.0646 -21.202041,11.76722 -17.533891,14.83131 1.00536,0.8398 6.54329,2.87847 12.3065,4.53037 7.779744,2.2299 10.478574,1.25035 10.478574,-3.80319 0,-3.74366 2.340137,-6.80665 5.200307,-6.80665 3.02393,0 4.10751,3.89671 2.58914,9.3109 -1.99246,7.10469 -1.32116,8.108 2.83307,4.23429 4.15423,-3.87372 4.14191,-7.02119 -0.052,-13.28324 z M 348.24965,311.4248 c -3.60592,-16.81216 -10.63554,-21.2131 -18.29067,-11.45101 -4.78496,6.10196 -4.52819,11.19578 1.37929,27.36259 l 7.25878,19.86484 6.26976,-11.15825 c 3.72325,-6.62623 5.09721,-16.62509 3.38284,-24.61817 z m 342.87539,-5.45939 c 0.13422,-5.88269 -30.55891,-30.60179 -61.98126,-49.91737 -35.81902,-22.01825 -77.55139,-40.56832 -113.75658,-50.56486 l -24.45,-6.75084 0.0186,11.70827 c 0.014,9.6861 3.44139,13.02085 19.8418,19.30795 10.90335,4.17982 23.28008,7.59967 27.50378,7.59967 11.52415,0 97.0271,41.12877 115.25833,55.44174 11.54971,9.06744 14.76616,14.20169 11.7142,18.69861 -2.314,3.40948 -4.23935,11.71614 -4.27856,18.45923 l -0.0713,12.26018 15.06642,-16.60285 c 8.28654,-9.13156 15.09762,-17.96944 15.13571,-19.63973 z m -568.10212,26.92158 c 0,-2.38847 -2.09571,-4.34267 -4.65714,-4.34267 -2.56143,0 -4.65714,1.9542 -4.65714,4.34267 0,2.38846 2.09571,4.34267 4.65714,4.34267 2.56143,0 4.65714,-1.95421 4.65714,-4.34267 z m 143.0645,-30.7131 c 16.38417,-5.04214 19.70449,-11.40242 8.11704,-15.54869 -18.63716,-6.66883 -81.12454,29.16682 -75.34557,43.20966 2.52318,6.13131 6.39882,5.0143 27.44414,-7.90979 13.47832,-8.27714 31.3813,-17.16518 39.78439,-19.75118 z m -129.09307,29.0735 c 0,-0.90178 -3.6675,-4.32164 -8.15,-7.59967 -7.38649,-5.40173 -7.55121,-5.24813 -1.75832,1.63959 6.08394,7.2338 9.90832,9.53424 9.90832,5.96008 z m -80.335711,-8.13141 c -0.69595,-3.24479 2.5824,-4.84564 8.15,-3.97974 6.61012,1.02804 7.89433,0.0822 4.42334,-3.25788 -3.50871,-3.37639 -8.43404,-3.17214 -17.42795,0.72273 -14.82522,6.42015 -16.34915,11.94323 -3.29539,11.94323 5.12286,0 8.79036,-2.44276 8.15,-5.42834 z m 46.573601,-4.34267 c -1.06606,-2.98559 -5.889347,-6.14229 -10.718411,-7.01489 -7.59626,-1.37263 -7.9383,-0.6407 -2.5367,5.42834 7.387164,8.29995 16.021291,9.33339 13.255111,1.58655 z M 656.7802,307.82935 c 0.36605,-6.50405 -6.101,-12.97356 -22.4309,-22.43932 -12.61992,-7.31524 -26.99746,-13.30043 -31.95014,-13.30043 -4.95264,0 -9.00482,-1.91449 -9.00482,-4.25441 0,-4.9164 -33.68046,-21.80161 -43.48709,-21.80161 -9.62716,0 -21.19345,13.87266 -13.56291,16.26744 3.20179,1.00486 5.82143,4.35839 5.82143,7.45228 0,3.09389 6.81107,8.17586 15.13571,11.29326 8.32465,3.1174 31.90143,13.10768 52.39286,22.20064 20.49143,9.09295 39.35286,15.90003 41.91429,15.12685 2.56142,-0.77319 4.8886,-5.5183 5.17157,-10.5447 z m -547.7287,1.17295 c -3.1887,-3.58271 -8.03729,-6.51401 -10.774647,-6.51401 -2.737359,0 -0.90896,2.86915 4.063097,6.3759 11.68229,8.23939 13.96367,8.28633 6.71155,0.13811 z m 112.46772,-13.43847 c 34.43804,-21.57363 38.68892,-35.74649 11.88864,-39.63799 -10.00949,-1.45341 -35.87065,10.28035 -35.87065,16.27528 0,2.32713 -4.06775,4.23115 -9.03944,4.23115 -4.97169,0 -10.21998,1.78119 -11.66288,3.9582 -2.79048,4.21021 11.63398,30.70935 16.74147,30.7557 1.66368,0.0152 14.23796,-6.99695 27.94286,-15.58234 z M 465.65138,281.805 c -5.01587,-4.67717 -6.20663,1.16011 -3.33336,16.34062 l 2.87683,15.19935 1.55678,-14.53118 c 0.85623,-7.99214 0.36112,-15.6461 -1.10025,-17.00879 z M 78.964679,296.63716 c -5.53905,-3.77675 -6.79424,-6.88104 -3.54049,-8.75617 2.77247,-1.59778 6.3572,-0.91897 7.96608,1.50845 5.30648,8.00631 21.004081,5.00526 21.004081,-4.01554 0,-12.68467 6.55183,-14.22815 36.82296,-8.67481 26.30325,4.82541 28.34157,4.55902 43.12826,-5.63652 8.53612,-5.88573 25.40898,-15.04674 37.49525,-20.35781 18.50113,-8.12994 22.45855,-12.05975 25.03356,-24.8589 4.3444,-21.59391 -2.44606,-26.44 -27.23997,-19.44011 -10.87275,3.06963 -26.14914,6.05648 -33.94754,6.63745 -17.7433,1.32184 -63.4576,29.99395 -101.304051,63.53812 l -28.88846,25.6045 16.02583,0.15125 c 14.56562,0.13745 15.24393,-0.38189 7.44449,-5.69989 z m 6.80111,-18.03356 c 3.18869,-3.5827 6.84548,-6.514 8.12619,-6.514 1.280718,0 -0.28036,2.9313 -3.46905,6.514 -3.1887,3.58271 -6.84548,6.51401 -8.1262,6.51401 -1.28071,0 0.28036,-2.9313 3.46906,-6.51401 z M 201.76912,204.32511 c 8.23747,-3.83191 13.9935,-7.88441 12.79116,-9.00556 -2.40097,-2.23884 -30.9945,10.59625 -30.9945,13.91285 0,3.15905 2.05261,2.6057 18.20334,-4.90729 z m 177.39666,3.35305 c 0,-1.98773 -7.335,-5.71322 -16.3,-8.27886 -20.49225,-5.86457 -21.1741,-2.69126 -1.16429,5.41856 18.34782,7.43624 17.46429,7.29153 17.46429,2.8603 z m 68.28368,-7.42569 c 11.11112,-6.07185 20.20203,-13.08527 20.20203,-15.58538 0,-2.5001 -6.34884,0.43582 -14.10852,6.52427 -7.75969,6.08845 -20.8579,12.08629 -29.10715,13.32853 -8.24924,1.24224 -20.2379,3.00807 -26.64147,3.92407 -6.40358,0.91601 -2.39627,1.93159 8.90511,2.25686 14.45408,0.41598 26.53929,-2.68266 40.75,-10.44835 z M 337.63092,186.32186 c -2.39616,-4.17982 -5.92621,-11.50808 -7.84456,-16.28502 -3.35595,-8.35672 -3.55662,-8.32029 -5.30376,0.96285 -0.99871,5.30651 0.9418,12.56044 4.31224,16.11984 8.46614,8.94077 14.12591,8.42984 8.83608,-0.79767 z m 41.53486,-13.17737 c 0,-1.8735 -6.28715,-6.86949 -13.97143,-11.1022 -13.50663,-7.43981 -13.97143,-7.4228 -13.97143,0.51125 0,4.51389 1.39714,9.50988 3.10476,11.10219 4.34512,4.05172 24.8381,3.62991 24.8381,-0.51124 z m 74.51428,-5.53528 c 0,-2.52942 -2.09572,-3.3912 -4.65714,-1.91504 -2.56143,1.47616 -4.65715,3.54569 -4.65715,4.59896 0,1.05328 2.09572,1.91505 4.65715,1.91505 2.56142,0 4.65714,-2.06954 4.65714,-4.59897 z M 275.45571,151.82806 c -4.53124,-1.10105 -10.81838,-1.02864 -13.97142,0.1609 -3.15304,1.18956 0.55435,2.09042 8.23863,2.00192 7.68429,-0.0885 10.26405,-1.06178 5.73279,-2.16283 z m -20.25582,-8.07279 c 1.59039,-3.86465 0.80964,-5.60779 -1.83031,-4.08638 -2.53209,1.45925 -4.6038,4.49204 -4.6038,6.73955 0,6.24664 3.33808,4.87014 6.43411,-2.65317 z m 243.03137,1.93164 c 2.14439,-3.23541 -0.0503,-3.84987 -6.71085,-1.8787 -7.49446,2.21804 -9.89749,1.1009 -9.89749,-4.6012 0,-4.14173 -1.30676,-6.31191 -2.90391,-4.8226 -4.77119,4.44901 2.08259,16.11041 9.46861,16.11041 3.77136,0 8.29102,-2.16356 10.04364,-4.80791 z m -25.79604,-17.3438 c 5.09024,-17.62727 2.7053,-30.142728 -2.72442,-14.29688 -1.54939,4.52168 -4.74229,12.71014 -7.09534,18.19658 -5.3606,12.49897 -5.34038,13.90934 0.19938,13.90934 2.4627,0 6.79187,-8.01407 9.62038,-17.80904 z m -219.0123,2.35341 c 0,-1.05328 -2.09571,-1.91505 -4.65714,-1.91505 -2.56143,0 -4.65714,2.06954 -4.65714,4.59896 0,2.52943 2.09571,3.3912 4.65714,1.91505 2.56143,-1.47616 4.65714,-3.54569 4.65714,-4.59896 z m 207.24285,-6.25772 c 3.64274,-5.49607 -2.52244,-5.49607 -11.64285,0 -6.02023,3.62786 -5.89731,4.21887 0.88943,4.27617 4.33133,0.0366 9.17037,-1.8877 10.75342,-4.27617 z M 290.68006,107.22091 c 0,-12.578291 -2.42736,-18.429251 -9.00812,-21.713351 -11.248,-5.613268 -28.24902,-5.859467 -28.24902,-0.40909 0,6.71313 8.33302,9.42534 10.87742,3.54036 1.29727,-3.00047 2.52412,2.52426 2.72634,12.277171 0.41156,19.84956 2.77192,23.5228 15.11529,23.5228 6.84372,0 8.53809,-3.41687 8.53809,-17.21789 z m -37.25714,1.15001 c 0,-8.06493 -1.50149,-10.325108 -4.80982,-7.24017 -2.64539,2.46676 -3.46903,7.74311 -1.8303,11.72521 4.31388,10.48269 6.64012,8.91145 6.64012,-4.48504 z m 251.48571,1.22371 c 0,-23.771661 -15.44881,-34.773308 -17.26422,-12.294448 -1.30698,16.183508 1.6321,22.795948 10.13236,22.795948 4.43821,0 7.13186,-3.96629 7.13186,-10.5015 z M 347.91437,248.86424 c -10.7847,-2.7511 -22.21148,-7.44954 -25.39283,-10.44097 -7.54875,-7.0981 -27.33838,-58.1267 -24.31276,-62.6917 4.21485,-6.35926 11.09985,-3.68582 11.09985,4.31006 0,14.58626 65.52372,64.02564 90.69009,68.42807 13.51482,2.3642 24.08999,0.74974 56.00991,-8.55076 5.12286,-1.49265 0.93143,1.17547 -9.31429,5.92916 -21.27747,9.87206 -66.49173,11.25263 -98.77997,3.01614 z m 12.62283,-11.51601 c -9.02907,-5.44102 -13.97142,-5.44102 -13.97142,0 0,2.38847 4.71535,4.31275 10.47857,4.27618 8.47338,-0.0538 9.14178,-0.87207 3.49285,-4.27618 z m -19.45137,-7.08081 c -0.82817,-3.89444 -6.22113,-9.99541 -11.98434,-13.55769 -9.93896,-6.14335 -10.47857,-5.90917 -10.47857,4.54759 0,6.06345 2.61964,12.01014 5.82143,13.21485 11.61356,4.36974 18.11553,2.72691 16.64148,-4.20475 z m 11.56108,-94.6025 c -13.85181,-11.11725 -12.62096,-19.53228 1.71957,-11.75624 6.50224,3.52579 6.85788,4.6624 1.51358,4.8373 -4.74334,0.15525 -3.24843,2.95456 4.65714,8.72083 6.40358,4.67072 10.18794,8.53567 8.4097,8.58878 -1.77823,0.0531 -9.11323,-4.62269 -16.29999,-10.39067 z m -4.02673,-61.028721 c -7.59466,-5.356428 -7.82817,-6.397974 -1.46036,-6.514006 4.16887,-0.07596 10.18869,2.793192 13.37738,6.375896 7.43082,8.348996 -0.15056,8.436862 -11.91702,0.138097 z m -34.34776,-2.309446 c 0.013,-3.582703 3.18015,-11.39951 7.03837,-17.370682 l 7.01496,-10.856676 -3.08619,10.856676 c -1.6974,5.971172 -4.86466,13.787979 -7.03836,17.370682 -3.51306,5.790226 -3.94959,5.790226 -3.92878,0 z m 53.2505,-6.531441 -13.97143,-6.139703 13.97143,2.553578 c 7.68428,1.404467 15.96236,4.255474 18.39571,6.335569 6.63779,5.674155 -2.24987,4.345793 -18.39571,-2.749444 z"
       id="path3020"
       inkscape:connector-curvature="0" />
  </g>
</svg>
