<?xml version="1.0" encoding="UTF-8" standalone="no"?>
<!-- Created with Inkscape (http://www.inkscape.org/) -->

<svg
   xmlns:dc="http://purl.org/dc/elements/1.1/"
   xmlns:cc="http://creativecommons.org/ns#"
   xmlns:rdf="http://www.w3.org/1999/02/22-rdf-syntax-ns#"
   xmlns:svg="http://www.w3.org/2000/svg"
   xmlns="http://www.w3.org/2000/svg"
   xmlns:sodipodi="http://sodipodi.sourceforge.net/DTD/sodipodi-0.dtd"
   xmlns:inkscape="http://www.inkscape.org/namespaces/inkscape"
   width="300"
   height="300"
   id="svg2"
   version="1.1"
   inkscape:version="0.48.4 r9939"
   sodipodi:docname="dprg_icon.png">
  <defs
     id="defs4" />
  <sodipodi:namedview
     id="base"
     pagecolor="#ffffff"
     bordercolor="#666666"
     borderopacity="1.0"
     inkscape:pageopacity="0.0"
     inkscape:pageshadow="2"
     inkscape:zoom="1.979899"
     inkscape:cx="144.19154"
     inkscape:cy="14.918856"
     inkscape:document-units="px"
     inkscape:current-layer="layer1"
     showgrid="false"
     fit-margin-top="0"
     fit-margin-left="0"
     fit-margin-right="0"
     fit-margin-bottom="0"
     inkscape:window-width="1280"
     inkscape:window-height="660"
     inkscape:window-x="-8"
     inkscape:window-y="-8"
     inkscape:window-maximized="1" />
  <metadata
     id="metadata7">
    <rdf:RDF>
      <cc:Work
         rdf:about="">
        <dc:format>image/svg+xml</dc:format>
        <dc:type
           rdf:resource="http://purl.org/dc/dcmitype/StillImage" />
        <dc:title></dc:title>
      </cc:Work>
    </rdf:RDF>
  </metadata>
  <g
     inkscape:label="Layer 1"
     inkscape:groupmode="layer"
     id="layer1"
     transform="translate(-0.42856729,-645.53055)">
    <path
       inkscape:connector-curvature="0"
       id="path3008"
       d="m 0.4285891,783.56235 0,-137.87863 150.5866509,0 150.58664,0 0,135.34099 c -0.47923,48.85478 -0.27658,166.52616 -0.27658,166.52616 0,0 -17.41264,-0.16922 -151.59749,-0.16922 l -149.29925371,0 c 0.15720221,-54.55454 0.0961028,-110.46177 0,-163.819 z M 135.62309,928.78887 c -5.39899,-0.0631 -5.36341,-0.0717 -9.41803,-0.0631 0.28721,-31.13791 0.023,-65.17423 -0.3654,-95.86611 l 16.3229,-0.18879 18.16088,0.18879 c 0,0 0.34826,66.98255 0.89619,96.17883 -5.42414,0.009 -3.99037,-0.009 -7.92142,-0.0311 l -0.16193,14.55467 c 0,0 28.3343,-0.10462 47.31337,-0.18878 0.0671,-4.93372 0.13257,-10.84526 0.083,-13.86174 -4.47271,0.003 -4.48682,0.0148 -8.31368,-0.001 -0.79666,-18.6946 1.25724,-37.84534 2.05663,-56.14396 0.54298,-13.18161 1.58556,-31.70436 2.31677,-41.16157 1.10461,-14.28586 0.76763,-17.76499 -1.99172,-20.56427 -2.95264,-2.99537 -3.0424,-6.53973 -0.809,-31.93536 1.90669,-21.68091 3.21132,-28.74448 5.41289,-29.30601 4.74409,-1.2101 47.59495,13.41165 54.96243,18.75447 4.38106,3.17715 8.57655,4.82172 12.30069,4.82172 7.12911,0 17.24352,-3.41618 18.97029,-6.40726 2.28935,-3.96556 1.30002,-11.11205 -1.93136,-13.95186 -2.33274,-2.05006 -3.11397,-6.94396 -3.11397,-19.50726 l 0,-16.77064 6.30612,-1.5822 c 7.70768,-1.93383 9.54923,-4.66415 5.79553,-8.59257 -1.56264,-1.63539 -5.03565,-6.62126 -7.71774,-11.07979 -2.68213,-4.4585 -5.67459,-8.10636 -6.64997,-8.10636 -0.97538,0 -2.05755,3.96508 -2.40483,8.81129 -0.55407,7.73151 -1.15128,8.81125 -4.87331,8.81125 -3.65275,0 -4.38917,-1.17485 -5.30236,-8.45878 -0.58325,-4.65235 -2.01097,-8.45883 -3.17271,-8.45883 -1.16171,0 -4.05049,3.63307 -6.4195,8.07352 -2.36901,4.44048 -5.4748,8.84963 -6.90176,9.79814 -4.79251,3.18562 -2.87846,6.68313 4.82881,8.82371 l 7.4233,2.06167 0,14.21422 c 0,11.40321 -0.6361,14.37645 -3.2165,15.03462 -4.12813,1.05298 -42.94585,-14.12743 -49.20623,-19.24297 -2.58591,-2.11304 -7.63033,-4.64823 -11.20985,-5.63378 -5.53493,-1.52393 -7.71624,-1.42984 -14.58601,0.62933 -4.44278,1.33165 -10.85144,2.21096 -14.24144,1.95392 -5.2783,-0.4002 -6.16363,-1.07485 -6.16363,-4.69674 0,-3.92348 0.66502,-4.28842 9.19426,-5.045 5.05688,-0.44861 10.05295,-1.7174 11.10245,-2.8196 1.0495,-1.10221 1.92279,-11.60109 1.94066,-23.33087 0.028,-18.20018 -0.48529,-21.61052 -3.4993,-23.26174 -2.68856,-1.47293 -11.59545,-1.90613 -37.30567,-1.81452 -35.9843,0.12803 -37.53465,0.42836 -37.6048,7.28109 -0.0178,1.74464 -1.06955,3.17208 -2.33706,3.17208 -0.67005,0 -3.04029,0.0207 -3.86641,-0.0521 -0.0809,-7.99675 -0.14371,-15.01556 -0.22183,-23.20934 0,0 -0.160494,-0.0267 -0.95929,-0.0389 0.153738,14.93991 0.383922,29.87567 0.274609,44.67546 5.242321,1.66328 6.102741,2.81063 6.682921,8.91116 0.81964,8.6185 2.81791,10.32229 12.75142,10.8719 7.09975,0.39286 7.79206,0.80697 7.79206,4.66058 0,3.71253 -0.81608,4.28211 -6.67795,4.6605 -3.67288,0.2371 -10.23179,-0.55589 -14.57534,-1.76223 -15.361504,-4.26636 -24.157353,-1.78056 -30.945338,8.74557 -9.027209,13.99843 -27.059233,32.37763 -34.709869,35.37812 -12.030048,4.71801 -14.905171,12.31214 -6.720977,17.75225 7.528473,5.00422 8.057088,7.03416 6.484738,24.90244 l -1.450854,16.48762 -6.074496,0.80758 c -5.112484,0.67962 -6.07449,1.49732 -6.07449,5.16326 0,4.76932 8.298635,18.86459 10.316794,17.52308 0.690335,-0.45887 1.753338,-4.12602 2.362227,-8.14928 l 1.107079,-7.31493 8.483752,0 8.483761,0 0.645859,7.49329 c 0.822247,9.53962 4.104372,9.00688 9.840794,-1.59731 4.691463,-8.6725 3.468311,-12.45639 -4.351169,-13.46055 -6.413603,-0.82363 -7.12915,-2.79741 -7.163479,-19.76018 -0.02709,-13.27829 0.659783,-16.80458 3.980602,-20.44214 2.207199,-2.41768 4.641668,-6.37468 5.409937,-8.79326 1.462387,-4.60375 19.196871,-19.56918 23.190096,-19.56918 3.148624,0 4.982586,7.6349 7.592797,31.60931 1.939712,17.81589 1.804057,20.63161 -1.096397,22.76199 -2.777777,2.04025 -3.107875,5.23132 -2.053245,19.84847 0.518413,31.99464 2.332015,66.31664 2.174119,96.50232 l -10.749523,0.0945 0.246504,14.75062 51.316648,-0.0119 c 0.0253,-6.7341 -0.0589,-6.86139 0.006,-14.52888 z m -5.69507,-242.22142 c -19.57735,-9.41089 -18.96801,-12.51986 1.8925,-9.65587 9.54223,1.31011 16.04781,1.36808 26.03247,0.23206 13.22586,-1.5047 18.32961,-0.74112 15.48635,2.31685 -3.32648,3.57771 -23.01797,12.74344 -27.28668,12.70112 -2.51991,-0.0238 -9.77603,-2.54242 -16.12464,-5.59428 z m 145.31682,-2.48822 c 0.81408,-0.37052 33.25636,21.16773 3.47108,-1.21112 -0.66546,-0.49997 -0.41436,-1.3457 -0.13109,-2.02396 0.27185,-0.65095 13.69028,-1.60158 13.6943,-2.2863 0.005,-0.81129 -13.45696,-1.35698 -13.79816,-2.11665 -0.30129,-0.67079 8.36643,-8.49907 7.81926,-9.05081 -0.64393,-0.6493 -10.54795,6.00801 -11.49861,5.63506 -0.90053,-0.35323 -0.63083,-11.88647 -1.77469,-11.88647 -0.95614,0 -3.21991,11.48994 -4.14714,11.76858 -0.97246,0.29221 -11.57958,-9.01512 -12.4192,-8.50469 -0.81051,0.4927 8.14017,10.79733 7.54818,11.41056 -0.76946,0.79702 -13.87835,0.0616 -14.09787,0.90431 -0.1875,0.71953 12.42619,3.02276 12.77803,3.6547 0.6591,1.18379 0.42652,0.4601 1.51738,1.23939 0.94762,0.67695 -39.278,24.64214 2.72782,2.80689 0.68131,-0.35415 2.75709,-0.0341 2.75891,0.69631 0.0942,37.99212 2.76826,-0.15441 3.68476,-0.39461 0.67483,-0.17693 1.3363,-0.39959 1.86704,-0.64119 z"
       style="fill:#5cb1d6"
       sodipodi:nodetypes="ccccccsccccccccccccccssssssssscssssssssssscsssssssssssscsccccssssssssscsssscccsssssssssccccccssssssssssssscssssssssss" />
    <rect
       style="fill:#ffffff;fill-opacity:1;stroke:none"
       id="rect3022"
       width="44.47707"
       height="38.925201"
       x="155.05862"
       y="806.66382" />
    <rect
       style="fill:#ffffff;fill-opacity:1;stroke:none"
       id="rect3022-1"
       width="44.47707"
       height="38.925201"
       x="88.920631"
       y="806.93048" />
    <rect
       style="fill:#ffffff;fill-opacity:1;stroke:none"
       id="rect3812"
       width="9.3863945"
       height="25.461403"
       x="97.44059"
       y="673.89124" />
    <path
       sodipodi:type="arc"
       style="fill:#ffffff;fill-opacity:1;stroke:none"
       id="path3814"
       sodipodi:cx="248.21342"
       sodipodi:cy="151.59021"
       sodipodi:rx="3.0620248"
       sodipodi:ry="2.8094869"
       d="m 251.27545,151.59021 a 3.0620248,2.8094869 0 1 1 -6.12405,0 3.0620248,2.8094869 0 1 1 6.12405,0 z"
       transform="matrix(0.404337,0,0,0.37325616,-0.79132929,593.84808)" />
  </g>
</svg>
