<?xml version="1.0" encoding="UTF-8" standalone="no"?>
<!-- Created with Inkscape (http://www.inkscape.org/) -->

<svg
   xmlns:dc="http://purl.org/dc/elements/1.1/"
   xmlns:cc="http://creativecommons.org/ns#"
   xmlns:rdf="http://www.w3.org/1999/02/22-rdf-syntax-ns#"
   xmlns:svg="http://www.w3.org/2000/svg"
   xmlns="http://www.w3.org/2000/svg"
   xmlns:sodipodi="http://sodipodi.sourceforge.net/DTD/sodipodi-0.dtd"
   xmlns:inkscape="http://www.inkscape.org/namespaces/inkscape"
   width="1346"
   height="284"
   id="svg3022"
   version="1.1"
   inkscape:version="0.48.4 r9939"
   sodipodi:docname="DFRobot.svg"
   inkscape:export-filename="C:\Users\Steve.EDWARDSHOME\SkyDrive\dprg\sponsors\DFRobot.png"
   inkscape:export-xdpi="300"
   inkscape:export-ydpi="300">
  <defs
     id="defs3024" />
  <sodipodi:namedview
     id="base"
     pagecolor="#ffffff"
     bordercolor="#666666"
     borderopacity="1.0"
     inkscape:pageopacity="0.0"
     inkscape:pageshadow="2"
     inkscape:zoom="0.7"
     inkscape:cx="632.99713"
     inkscape:cy="-9.3229884"
     inkscape:document-units="px"
     inkscape:current-layer="layer1"
     showgrid="false"
     fit-margin-top="0"
     fit-margin-left="0"
     fit-margin-right="0"
     fit-margin-bottom="0"
     inkscape:window-width="1536"
     inkscape:window-height="803"
     inkscape:window-x="-8"
     inkscape:window-y="-8"
     inkscape:window-maximized="1" />
  <metadata
     id="metadata3027">
    <rdf:RDF>
      <cc:Work
         rdf:about="">
        <dc:format>image/svg+xml</dc:format>
        <dc:type
           rdf:resource="http://purl.org/dc/dcmitype/StillImage" />
        <dc:title></dc:title>
      </cc:Work>
    </rdf:RDF>
  </metadata>
  <g
     inkscape:label="Layer 1"
     inkscape:groupmode="layer"
     id="layer1"
     transform="translate(364.42857,-241.79073)">
    <path
       inkscape:connector-curvature="0"
       id="path3906"
       d="m -364.42857,383.79073 0,-142 673,0 673,0 0,142 0,142 -673,0 -673,0 0,-142 z m 98.61664,108.43821 c 6.12719,-4.57752 6.59243,-6.02261 6.44721,-20.02568 -0.15322,-14.77563 -1.33154,-18.10622 -7.11323,-20.10609 -2.37712,-0.82223 -13.34233,-1.21111 -35.24607,-1.25 l -31.79546,-0.0564 -2.5213,2.5213 c -3.55835,3.55835 -2.87793,6.65363 1.79842,8.18117 2.18778,0.71464 14.52121,1.52928 30.34097,2.00406 25.82284,0.77498 26.71068,0.86899 28.446,3.01202 2.67406,3.30233 3.4607,8.97031 1.63226,11.76088 -1.4026,2.14063 -2.45453,2.36816 -14.0379,3.03626 -17.21607,0.99299 -37.91133,0.2738 -39.91249,-1.38701 -0.8647,-0.71763 -1.94256,-3.17767 -2.39524,-5.46674 -0.6961,-3.51992 -1.19928,-4.16194 -3.2619,-4.16194 -3.55807,0 -4.96852,3.69091 -4.96785,13 6.1e-4,8.6711 0.42741,9.99798 3.46994,10.78786 1.1,0.28557 16.48029,0.45013 34.17843,0.36568 30.81397,-0.14703 32.29545,-0.24097 34.93821,-2.21533 z m 26.82666,0.33928 c 0.96341,-1.37546 1.5567,-4.37776 1.5567,-7.87755 0,-8.2351 0.18168,-8.30943 18.26971,-7.47459 17.39599,0.80289 18.62017,1.28508 28.09287,11.06532 6.56629,6.77947 14.20831,8.73242 16.97541,4.33814 0.83412,-1.32462 0.28604,-2.65479 -2.64282,-6.41411 -4.62485,-5.9362 -4.69254,-7.97113 -0.32586,-9.79565 4.84236,-2.02326 6.63069,-5.11774 6.63069,-11.47352 0,-7.06229 -2.7492,-11.69877 -7.81965,-13.18773 -2.40166,-0.70526 -14.67547,-0.97254 -35.32682,-0.76928 -29.47023,0.29006 -31.79113,0.44248 -33.75,2.21647 -3.24339,2.93726 -2.76332,6.21305 1.02147,6.97001 1.71875,0.34375 15.47333,0.625 30.56574,0.625 27.9957,0 31.30926,0.40589 31.30926,3.83518 0,3.94041 -1.49946,4.16443 -27.95,4.17583 -27.99464,0.012 -31.5015,0.31235 -35.06848,3.00293 -2.05721,1.55175 -2.46448,2.84151 -2.80604,8.8862 -0.51912,9.18719 0.17357,11.69559 3.57249,12.9369 4.30611,1.57263 6.01664,1.33711 7.69533,-1.05955 z m 88.52633,0.7591 c 1.56532,-1.88609 1.03927,-21.93338 -0.61897,-23.58826 -1.72735,-1.72385 -5.18094,-0.17721 -6.86163,3.07288 -1.56386,3.02418 -2.09688,17.4801 -0.72372,19.62797 0.40408,0.63206 1.85969,1.35827 3.23469,1.61382 1.375,0.25555 2.7824,0.52592 3.12756,0.60082 0.34515,0.0749 1.17409,-0.52235 1.84207,-1.32723 z m 57.686189,0.17797 c 2.22113,-1.25136 23.58956,-28.2946 28.74052,-36.37314 3.28925,-5.15872 2.44486,-6.83144 -2.88167,-5.7085 -4.52687,0.95435 -6.39483,2.51607 -15.04658,12.57977 -10.99432,12.78859 -12.16717,13.78731 -16.19104,13.78731 -3.869429,0 -4.660079,-0.70024 -16.202859,-14.35008 -4.0842,-4.82974 -8.53239,-9.65178 -9.88486,-10.71564 -3.11164,-2.44761 -7.30189,-2.47347 -10.27817,-0.0634 -2.29142,1.85547 -2.29508,1.89453 -0.44553,4.75 1.02568,1.58353 4.40784,6.02914 7.5159,9.87914 3.10806,3.85 8.14709,10.375 11.19785,14.5 5.69385,7.69877 9.18595,11.33065 11.82062,12.29377 2.71633,0.99297 9.460069,0.65786 11.655819,-0.57921 z m 121.64874,-0.73899 c 1.40693,-2.00868 0.90701,-9.09538 -0.75942,-10.76521 -0.3899,-0.3907 -14.81147,-0.84637 -32.0479304,-1.0126 -25.8678396,-0.24947 -31.5487896,-0.55498 -32.5405596,-1.75 -0.93683,-1.1288 -0.92993,-1.77503 0.0313,-2.93326 1.03109,-1.24239 6.14766,-1.52879 31.2639096,-1.75 27.5341204,-0.24251 30.1232304,-0.41237 31.1395904,-2.04297 0.85828,-1.37697 0.7699,-1.99433 -0.39147,-2.73468 -2.02524,-1.29105 -68.54914,-1.29851 -70.96056,-0.008 -2.42562,1.29816 -4.03944,6.18665 -4.03944,12.23607 0,6.39424 1.25402,8.5431 6.33068,10.84809 3.81911,1.73402 6.95748,1.89487 37.3626195,1.91499 32.2059905,0.0213 33.2354705,-0.0383 34.6112605,-2.00247 z m 106.866701,0.36944 c 1.58007,-1.42994 1.82874,-3.3034 1.82874,-13.77749 0,-17.05437 -0.48328,-16.56752 16.44592,-16.56752 11.41227,0 13.65684,-0.26263 15.58439,-1.82346 1.9945,-1.61505 2.14577,-2.27222 1.32352,-5.75 l -0.92836,-3.92654 -35.96273,-0.24204 c -38.937471,-0.26206 -40.082261,-0.12464 -41.894701,5.02901 -1.58037,4.49376 0.66784,5.7212 12.542171,6.84758 17.44757,1.65503 17.04742,1.48516 18.5284,7.86545 0.70216,3.025 1.30261,8.875 1.33433,13 0.063,8.18523 0.52045,9.51714 3.52706,10.26832 3.84597,0.96088 5.85667,0.71887 7.67126,-0.92331 z m 55.92253,-0.4388 c 2.00114,-2.00114 2.07858,-2.91181 1.75,-20.58142 -0.31511,-16.9454 -0.50625,-18.60637 -2.29133,-19.9109 -2.13749,-1.56208 -5.06298,-1.04653 -7.82388,1.37877 -1.59524,1.40132 -1.74443,3.40079 -1.5,20.10312 l 0.27142,18.54702 2.5,1.26386 c 3.46424,1.75132 4.6791,1.61424 7.09379,-0.80045 z m 67.33024,0.17773 c 1.54416,-1.70627 1.69799,-4.00963 1.40499,-21.03787 -0.36092,-20.97575 -0.55599,-21.6105 -6.31563,-20.55088 -4.22009,0.77638 -5.45888,2.39758 -6.4049,8.38203 -0.45585,2.88371 -1.36275,5.77854 -2.01534,6.43295 -0.80669,0.80895 -7.84506,1.34989 -21.98719,1.68983 -22.19808,0.53359 -24.10596,0.97391 -24.10596,5.56343 0,1.27519 0.5625,2.68259 1.25,3.12755 0.6875,0.44496 10.31646,1.03402 21.3977,1.30902 23.23182,0.57654 23.71807,0.75318 24.85639,9.02972 0.69673,5.06582 1.62981,6.41927 4.99591,7.24667 3.84144,0.94424 5.20248,0.70984 6.92403,-1.19245 z m 90.37597,0.71606 c 0.66,-0.66 1.2,-3.10286 1.2,-5.42857 0,-7.54704 0.80878,-7.37143 -33.94898,-7.37143 -26.16328,0 -30.99375,-0.22607 -32.05102,-1.5 -0.99319,-1.19672 -0.99319,-1.80328 0,-3 1.0541,-1.27011 5.68076,-1.5 30.18819,-1.5 18.039,0 29.67202,-0.39 30.87755,-1.03518 2.33921,-1.25191 2.52306,-3.5249 0.35247,-4.35783 -2.08804,-0.80126 -67.78315,-0.78792 -69.87341,0.0142 -2.66954,1.0244 -4.5448,5.93243 -4.5448,11.8949 0,6.90532 1.0168,8.91604 5.78088,11.43167 3.47709,1.83605 5.9025,1.96673 37.26912,2.00805 24.81191,0.0327 33.86254,-0.26834 34.75,-1.1558 z m 223.48212,-0.17684 c 1.76983,-0.75726 4.56788,-2.814 6.21788,-4.57053 l 3,-3.19369 0,-16.01061 c 0,-14.85029 -0.14494,-16.11794 -2,-17.49156 -1.26388,-0.93587 -3.09926,-1.26586 -4.98661,-0.89654 -5.29332,1.03579 -5.96792,2.5817 -6.51339,14.92617 -0.34077,7.71199 -0.95477,11.86194 -1.92806,13.03153 -1.28577,1.54511 -3.63194,1.68451 -23.54728,1.39908 -27.87346,-0.39948 -27.06894,-0.0392 -27.97944,-12.52918 -1.08137,-14.83383 -1.42161,-16.2187 -4.15306,-16.90425 -3.52249,-0.88409 -8.03734,1.34559 -9.40359,4.64401 -0.78352,1.89159 -1.0605,7.51879 -0.82023,16.66421 0.41165,15.669 1.07277,17.50947 7.33166,20.41035 3.59844,1.66781 6.88945,1.85613 32.78212,1.87589 22.25445,0.017 29.51192,-0.2903 32,-1.35488 z m 61.51101,0.1261 c 0.57092,-0.68791 1.18852,-7.1917 1.37247,-14.45287 0.2302,-9.0901 0.7381,-13.60613 1.6304,-14.49925 0.8969,-0.89758 5.9141,-1.45116 16.2881,-1.79714 16.6692,-0.55593 17.418,-0.87628 16.3463,-6.99238 -0.3366,-1.92082 -0.8227,-3.83332 -1.0802,-4.25 -0.6913,-1.11862 -69.76446,-0.93082 -72.7328,0.19775 -3.08399,1.17253 -5.87459,5.21084 -5.06277,7.32641 0.95014,2.47601 3.13,2.92976 16.6827,3.47259 7.60528,0.30462 13.0872,0.96052 13.60567,1.6279 1.73151,2.22881 3.15733,10.68334 3.17231,18.81055 0.008,4.56895 0.34592,8.81762 0.75,9.4415 1.42212,2.19568 7.50719,2.94718 9.02782,1.11494 z m 117.00657,-0.15425 c 1.4851,-0.77274 3.8253,-2.61032 5.2003,-4.08352 2.463,-2.63893 2.5,-2.92923 2.5,-19.63228 0,-18.6621 -0.2471,-19.41996 -6,-18.40333 -5.3344,0.94267 -6.5,3.54284 -6.5,14.50005 0,8.35402 -0.2975,10.13261 -2.0726,12.38921 l -2.0726,2.63486 -19.6774,-0.006 c -20.7475,-0.006 -26.484,-0.83019 -28.209,-4.05352 -0.5804,-1.08438 -1.4455,-6.35219 -1.9225,-11.70625 -0.477,-5.35406 -1.1741,-10.50502 -1.549,-11.44658 -1.8373,-4.61425 -9.0873,-2.05327 -10.6999,3.77966 -0.4459,1.61275 -0.5244,9.23227 -0.1745,16.93227 0.9627,21.18655 -0.5284,20.40782 39.1772,20.46086 23.2746,0.0311 29.8549,-0.24977 32,-1.36585 z m 27.4133,-0.34501 c 0.8377,-0.9625 1.7781,-4.36858 2.0899,-7.56907 0.8926,-9.16357 0.6632,-9.0621 18.6346,-8.24014 8.5092,0.38918 16.3918,1.19639 17.5169,1.79379 1.1251,0.59741 4.976,3.90943 8.5576,7.36005 6.9513,6.69716 10.105,8.40537 15.5179,8.40537 5.6664,0 6.1632,-2.81421 1.4216,-8.0536 -5.0775,-5.61055 -5.1268,-8.20741 -0.2015,-10.61404 5.0886,-2.48643 6.903,-7.86992 5.2828,-15.67443 -1.9742,-9.50984 -0.3736,-9.11535 -38.3339,-9.44747 -23.9843,-0.20984 -33.8884,0.0396 -35.9805,0.90617 -3.2796,1.35847 -5.4233,5.57742 -3.7073,7.29621 0.7128,0.71401 11.7949,1.25878 32.2871,1.58716 17.161,0.275 31.7643,0.86406 32.4518,1.30902 1.586,1.02648 1.6124,3.92855 0.05,5.49098 -0.8739,0.8739 -8.5509,1.20152 -28.25,1.20558 -15.5283,0.003 -28.6347,0.44569 -30.7705,1.03886 -5.446,1.51249 -6.7795,4.06699 -6.7795,12.98694 0,7.94997 0.9976,10.44807 4.5,11.26826 3.5699,0.836 4.1675,0.72621 5.713,-1.04964 z m 158.7625,0.27957 c 0.8279,-0.9976 0.9979,-3.08773 0.5286,-6.5 -0.3805,-2.76626 -0.762,-5.10831 -0.8479,-5.20454 -0.086,-0.0962 -14.7812,-0.43374 -32.6562,-0.75 l -32.5,-0.57503 0,-2.5 0,-2.5 30.5,-0.5 c 16.775,-0.275 31.0625,-0.86406 31.75,-1.30902 1.742,-1.12745 1.5608,-3.35773 -0.3318,-4.08399 -0.87,-0.33385 -16.8199,-0.60699 -35.4442,-0.60699 -33.6777,0 -33.8767,0.0123 -36.4688,2.25 -3.5452,3.06055 -4.4731,11.61682 -1.8165,16.75 3.4619,6.6893 4.7366,6.89812 42.4389,6.95197 28.4119,0.0406 33.8168,-0.18003 34.8479,-1.4224 z m -517.1755,-1.72957 c 0.67645,-0.67645 1.2,-3.91746 1.2,-7.42857 0,-9.84414 -1.66155,-9.36895 32.82143,-9.38674 16.32321,-0.008 30.28535,-0.39985 31.02696,-0.86983 0.74162,-0.46998 1.18558,-1.70059 0.98658,-2.73469 -0.34456,-1.79052 -2.0062,-1.89318 -34.84839,-2.15311 -24.8164,-0.19641 -35.10407,0.0541 -36.68874,0.89337 -1.21118,0.64148 -2.67368,2.51895 -3.25,4.17217 -1.1347,3.255 -1.42569,14.55916 -0.44085,17.12561 0.73259,1.9091 7.38925,2.18555 9.19301,0.38179 z m -570,-31 c 2.81443,-2.81443 0.37883,-9.8 -3.41688,-9.8 -2.18377,0 -6.38312,4.59649 -6.38312,6.98677 0,3.28883 7.2447,5.36853 9.8,2.81323 z m 178.836819,-0.0214 c 1.04476,-1.69045 0.54064,-6.85987 -0.83003,-8.51142 -0.92569,-1.11539 -7.21247,-1.31089 -34.2953705,-1.06647 l -33.1619095,0.29927 -4.17475,2.76419 c -4.67351,3.09442 -5.55938,6.33002 -1.92476,7.03008 1.2375,0.23835 18.31094,0.49465 37.9409795,0.56955 27.1506205,0.10359 35.8716105,-0.15608 36.4458405,-1.0852 z m 321.177711,-3.09841 c 0.56538,-6.86631 1.51179,-6.68019 -33.96909,-6.68019 -33.43089,0 -36.22603,0.31949 -41.05884,4.69313 -2.49531,2.25822 -2.26254,5.0748 0.4634,5.60729 1.2375,0.24174 18.45,0.38554 38.25,0.31956 l 36,-0.11998 0.31453,-3.81979 z m 140.05737,2.55915 c 1.10942,-2.07297 0.30734,-7.42085 -1.27093,-8.47405 -0.60553,-0.40408 -15.40292,-0.74158 -32.88309,-0.75 -26.4491,-0.0127 -32.40369,0.2444 -35.48635,1.53242 -3.83459,1.60219 -8.23153,5.15905 -8.23153,6.65881 0,2.20064 7.01598,2.67109 40.71482,2.73007 33.58801,0.0588 36.28316,-0.0643 37.15708,-1.69725 z m 447.7067,-0.69645 c 0.3392,-1.3514 0.1979,-3.7139 -0.314,-5.25 l -0.9306,-2.79291 -31.2568,-0.26437 c -18.9462,-0.16025 -32.7454,0.13647 -35.0364,0.75339 -7.5067,2.02133 -12.079,8.28669 -6.7908,9.30525 1.2375,0.23835 18.3289,0.49465 37.9809,0.56955 l 35.731,0.13618 0.6167,-2.45709 z M 2.6062685,423.79073 c 0.6001,-0.93592 0.8684,-30.68059 0.71347,-79.09676 -0.20552,-64.22477 -0.48606,-77.88315 -1.62793,-79.25865 -1.27758999,-1.53897 -13.7651395,-1.64276 -168.8384185,-1.40324 l -167.45879,0.25865 -1.91769,2.36832 c -1.85849,2.29521 -1.90978,4.76477 -1.66158,80 l 0.2561,77.63168 3.5,0.62274 c 1.925,0.3425 78.32894,0.5675 169.78653,0.5 146.626029,-0.10823 166.4002285,-0.30009 167.2483085,-1.62274 z M -324.92857,414.35111 c -2.31245,-0.71103 -4.47858,-2.17907 -5.13438,-3.47972 -1.47351,-2.92241 -0.62059,-134.94095 0.88401,-136.83066 0.7793,-0.97876 16.28802,-1.25 71.47169,-1.25 76.90394,0 73.78216,-0.22379 79.72097,5.71501 3.13677,3.13677 7.71442,12.69817 10.55184,22.03975 2.07895,6.84449 2.13694,8.39462 1.73641,46.41311 -0.40357,38.30611 -0.48009,39.56995 -2.93353,48.44879 -1.38554,5.01417 -3.52409,10.9047 -4.75234,13.09007 -4.36099,7.75934 0.54052,7.30587 -77.69896,7.18842 -52.17652,-0.0783 -70.85761,-0.41599 -73.84571,-1.33477 z m 116.61072,-44.63922 c 5.77106,-4.10935 6.38928,-6.62442 6.38928,-25.99291 0,-17.51666 -0.009,-17.58484 -2.76419,-21.75 l -2.76419,-4.17825 -38.53126,0 -38.53127,0 -2.45454,2.45454 -2.45455,2.45455 0.0153,22.79546 c 0.008,12.5375 0.34592,23.30589 0.75,23.92977 0.40408,0.62387 1.63469,1.35917 2.73469,1.634 1.1,0.27482 18.35553,0.55188 38.34563,0.61568 35.29837,0.11266 36.42975,0.0561 39.26509,-1.96284 z m 71.14544,43.10404 c -6.70669,-1.59215 -6.25616,3.34976 -6.25616,-68.62459 l 0,-65.3545 2.35809,-1.54508 c 2.07514,-1.35969 9.9302,-1.51244 65.464719,-1.27306 57.9414,0.24976 63.2463,0.41173 64.81304,1.97887 1.3861795,1.38654 1.7918095,4.22473 2.1614495,15.12383 0.66393,19.57605 5.70786,17.66933 -46.7415395,17.66933 l -42.94423,0 -2.748069,2.36379 c -2.3306,2.00469 -2.74808,3.14017 -2.74808,7.47436 0,2.81081 0.27589,5.38646 0.61309,5.72365 1.88103,1.88104 12.290139,2.39433 49.271529,2.42966 22.55,0.0215 41.59504,0.41644 42.32232,0.87756 2.0744795,1.3153 3.1279195,7.72509 3.1538195,19.18985 0.0171,7.56816 -0.3779,11.10868 -1.39458,12.5 -1.3569895,1.85704 -3.3269495,1.96279 -45.4733895,2.44113 l -44.05495,0.5 -2.276609,2.27731 c -2.19731,2.19798 -2.2886,2.99912 -2.6208,23 -0.2827,17.02016 -0.62306,21.03536 -1.90499,22.47269 -1.34592,1.50907 -3.36363,1.73591 -14.65581,1.64764 -7.20225,-0.0563 -14.55474,-0.4489 -16.33885,-0.87244 z m 446.3442,4.54647 c 13.49631,-2.37523 29.46873,-8.63661 39.77517,-15.59235 7.11081,-4.79902 18.88483,-17.89948 21.99326,-24.47096 9.05511,-19.14329 8.90136,-59.23222 -0.30187,-78.7109 -6.7549,-14.29677 -25.06633,-28.60466 -46.56692,-36.38573 -4.22042,-1.52737 -9.13179,-1.87232 -31.5,-2.21237 -34.39421,-0.52287 -43.42348,1.05245 -64.5,11.2532 -18.50401,8.95569 -29.40223,20.6632 -35.21771,37.83293 -2.74115,8.09306 -2.78193,8.56935 -2.75802,32.21451 0.0238,23.54275 0.0755,24.13953 2.71487,31.32378 8.23443,22.41401 29.98616,37.54009 64.26086,44.68675 8.63217,1.79991 41.99804,1.83906 52.10036,0.0611 z m -20.98193,-24.63589 c -7.09274,-1.75273 -16.37676,-6.89121 -21.09179,-11.6738 -2.76432,-2.80392 -6.35723,-8.18526 -8.84161,-13.24264 l -4.18503,-8.51934 0,-20.5 c 0,-19.52081 0.11941,-20.80078 2.5,-26.79698 4.75992,-11.98924 11.91994,-19.50938 23.25941,-24.42927 4.70599,-2.0418 6.82176,-2.27375 20.74059,-2.27375 14.93713,0 15.70148,0.10065 21.04836,2.7716 7.5649,3.77893 12.05959,7.67745 16.41282,14.23588 11.97168,18.0361 13.99878,48.09075 4.59845,68.17879 -3.73282,7.97685 -11.60004,15.96976 -19.55963,19.87211 -5.56764,2.72965 -6.90075,2.95585 -18.5,3.13911 -6.875,0.10862 -14.2467,-0.23415 -16.38157,-0.76171 z M 691.07143,417.323 c 21.1222,-3.86798 37.9492,-12.26207 50.5943,-25.23877 8.8856,-9.11861 11.2488,-12.94918 14.679,-23.7935 2.3631,-7.47099 2.5369,-9.42172 2.6286,-29.5 0.09,-19.70751 -0.092,-22.12529 -2.1885,-29 -4.3937,-14.41158 -9.4933,-21.85619 -21.64,-31.59081 -8.1982,-6.57026 -15.041,-10.38311 -27.0734,-15.08566 -6.8817,-2.68953 -7.4478,-2.74244 -33.5,-3.13139 -34.4147,-0.5138 -43.4126,1.05895 -64.55506,11.28367 -16.26016,7.86358 -26.40261,17.39607 -32.01724,30.09177 -5.79219,13.09717 -6.59899,18.58921 -6.20149,42.21499 0.42046,24.9898 1.5325,30.07781 9.00669,41.20867 10.1247,15.07811 31.82999,27.3177 57.5108,32.43027 9.6284,1.91684 42.5167,1.98589 52.7563,0.11076 z m -20.9981,-24.62975 c -7.2166,-1.75873 -18.4044,-7.97238 -22.1325,-12.29228 -4.0617,-4.70658 -7.8036,-11.65275 -10.5015,-19.49431 -2.83637,-8.24393 -2.72298,-37.64075 0.1784,-46.25327 4.6392,-13.77148 10.5707,-20.57599 23.4537,-26.90595 4.6775,-2.29825 6.032,-2.45671 21,-2.45671 l 16,0 7.3011,3.90071 c 8.5302,4.55739 12.9998,9.36988 17.7387,19.09929 5.7958,11.8997 7.8136,21.98035 7.2091,36.01662 -1.0189,23.66129 -9.3552,38.25812 -26.413,46.24938 -5.2342,2.4521 -7.0732,2.75343 -17.8359,2.92244 -6.6,0.10364 -13.7991,-0.25002 -15.9981,-0.78592 z M 68.464629,412.04073 c 2.06257,-1.7068 2.12084,-2.5399 2.36078,-33.75 l 0.24602,-32 26.999997,0.0289 c 30.347334,0.0325 35.282064,0.83066 41.764084,6.75503 5.73698,5.24342 6.42831,8.52763 7.25148,34.44875 0.59699,18.79902 1.02449,23.47062 2.24013,24.47951 2.13437,1.77137 21.78264,2.41584 23.75472,0.77916 1.26033,-1.04597 1.48959,-5.967 1.48959,-31.97425 l 0,-30.73801 -2.63491,-3.88954 c -1.4492,-2.13925 -4.16642,-5.46455 -6.03826,-7.38955 -5.02531,-5.16803 -5.18916,-7.20434 -0.92295,-11.47055 1.97481,-1.97481 4.93759,-5.93931 6.58396,-8.81001 2.88646,-5.03299 2.99373,-5.66792 3.00278,-17.77366 0.009,-12.11133 -0.0914,-12.71106 -2.84641,-17 -4.68765,-7.29753 -10.05998,-12.00318 -18.0724,-15.82969 l -7.57181,-3.61609 -66.042981,0 c -61.54068,0 -66.22752,0.12087 -68.75,1.77305 l -2.7070203,1.77306 0,57.7988 c 0,51.13663 0.19081,58.36685 1.6553803,62.72695 3.43153,10.21579 10.36007,17.09126 21.76712,21.60043 7.34091,2.90183 11.76264,3.59504 23.71672,3.71814 8.76943,0.0903 11.01087,-0.19798 12.75398,-1.64043 z m 7.64876,-90.33556 c -2.17692,-0.5333 -4.30753,-1.51972 -4.73469,-2.19204 -0.42715,-0.67232 -0.78354,-7.5798 -0.79196,-15.34996 -0.0118,-10.9248 0.30307,-14.39178 1.38908,-15.29309 1.01721,-0.84421 9.49486,-1.08474 30.750001,-0.87245 l 29.34561,0.2931 4.99954,2.63134 c 4.23452,2.22869 5.27511,3.37633 6.80043,7.5 2.27003,6.13701 1.85302,14.42007 -0.88096,17.49834 -1.05545,1.18837 -3.94401,3.104 -6.41901,4.25695 -4.16437,1.93992 -6.43921,2.11123 -30.5,2.29685 -14.300001,0.11032 -27.781121,-0.23575 -29.958041,-0.76904 z m 446.824291,89.17306 c 5.42644,-1.19684 12.459,-3.48489 15.62792,-5.08456 7.36542,-3.71805 15.3952,-12.52083 16.91043,-18.53834 1.39384,-5.53547 1.4207,-33.75303 0.0369,-38.73615 -0.58867,-2.11977 -3.43295,-6.4451 -6.49442,-9.87616 -2.99591,-3.35754 -5.44708,-6.84652 -5.44708,-7.75329 0,-0.90676 2.00679,-3.53713 4.45954,-5.84526 6.90193,-6.49497 7.89916,-9.11239 8.35449,-21.928 0.3037,-8.54792 0.009,-12.34126 -1.25215,-16.13943 -2.39719,-7.21726 -9.69211,-14.39215 -19.29513,-18.97764 l -7.76675,-3.70867 -64.56137,-0.29696 c -41.48916,-0.19084 -65.50421,0.0615 -67.19964,0.7061 -4.69039,1.78328 -4.87347,4.49226 -4.48696,66.3929 0.28738,46.02659 0.63263,57.96049 1.76765,61.10214 3.01092,8.33394 16.44263,18.1278 28.23379,20.58694 2.33559,0.48711 23.82153,0.74768 47.74653,0.57906 40.32524,-0.28422 44.22007,-0.46541 53.36625,-2.48268 z m -66.10324,-21.81642 c -5.74877,-0.70302 -6.26301,-2.57455 -6.26301,-22.79359 0,-12.72694 0.35517,-18.43266 1.2,-19.27749 0.86893,-0.86893 8.05381,-1.2 26.04216,-1.2 43.46551,0 49.16962,2.73294 49.23107,23.58746 0.0414,14.03991 -2.48956,16.8291 -16.67993,18.38206 -9.02095,0.98723 -48.2925,1.94209 -53.53029,1.30156 z m -0.26301,-67.38251 c -1.925,-0.55812 -4.0625,-1.74737 -4.75,-2.64279 -1.7089,-2.22573 -1.75237,-28.34341 -0.05,-30.04578 1.60848,-1.60848 56.52736,-1.67983 62.3,-0.0809 8.91589,2.4695 12.59816,7.49301 12.74827,17.39173 0.11858,7.81943 -1.66331,10.86779 -8.08261,13.82732 -4.36787,2.01375 -6.38897,2.16426 -31.66566,2.35813 -15.96181,0.12242 -28.43088,-0.20777 -30.5,-0.80768 z m 419.2966,90.86143 c 1.5344,-1.14249 1.7013,-6.46788 1.9411,-61.91713 0.1443,-33.36693 0.6363,-61.04193 1.0933,-61.5 0.4571,-0.45808 13.6366,-1.05787 29.2879,-1.33287 23.8288,-0.41868 28.6108,-0.74395 29.4037,-2 1.0717,-1.69798 1.3014,-14.13017 0.3489,-18.89245 l -0.6285,-3.14244 -79.9523,0.26744 c -91.3396,0.30554 -82.1483,-0.81039 -83.302,10.11385 -1.3005,12.3139 1.1217,13.6536 24.6862,13.6536 11.7527,0 15.9067,0.33892 17.384,1.41832 1.8621,1.36058 1.9626,3.38629 2.469,49.75 0.5609,51.35289 0.4824,50.55088 5.6847,58.11153 4.8966,7.11642 16.882,13.92579 27.7874,15.78711 7.1679,1.2234 21.993,1.02594 23.7966,-0.31696 z"
       style="fill:#e2760c;fill-opacity:1" />
  </g>
</svg>
