<?xml version="1.0" encoding="UTF-8" standalone="no"?>
<!-- Created with Inkscape (http://www.inkscape.org/) -->

<svg
   xmlns:dc="http://purl.org/dc/elements/1.1/"
   xmlns:cc="http://creativecommons.org/ns#"
   xmlns:rdf="http://www.w3.org/1999/02/22-rdf-syntax-ns#"
   xmlns:svg="http://www.w3.org/2000/svg"
   xmlns="http://www.w3.org/2000/svg"
   xmlns:sodipodi="http://sodipodi.sourceforge.net/DTD/sodipodi-0.dtd"
   xmlns:inkscape="http://www.inkscape.org/namespaces/inkscape"
   width="892.43866"
   height="285.62454"
   id="svg2"
   version="1.1"
   inkscape:version="0.48.4 r9939"
   sodipodi:docname="pololu_logo.svg"
   inkscape:export-filename="C:\Users\Steve.EDWARDSHOME\SkyDrive\dprg\sponsors\pololu_logo.png"
   inkscape:export-xdpi="300"
   inkscape:export-ydpi="300">
  <defs
     id="defs4" />
  <sodipodi:namedview
     id="base"
     pagecolor="#ffffff"
     bordercolor="#666666"
     borderopacity="1.0"
     inkscape:pageopacity="0.0"
     inkscape:pageshadow="2"
     inkscape:zoom="0.98994949"
     inkscape:cx="418.64631"
     inkscape:cy="-14.024894"
     inkscape:document-units="px"
     inkscape:current-layer="layer1"
     showgrid="false"
     fit-margin-top="0"
     fit-margin-left="0"
     fit-margin-right="0"
     fit-margin-bottom="0"
     inkscape:window-width="1536"
     inkscape:window-height="803"
     inkscape:window-x="-8"
     inkscape:window-y="-8"
     inkscape:window-maximized="1" />
  <metadata
     id="metadata7">
    <rdf:RDF>
      <cc:Work
         rdf:about="">
        <dc:format>image/svg+xml</dc:format>
        <dc:type
           rdf:resource="http://purl.org/dc/dcmitype/StillImage" />
        <dc:title></dc:title>
      </cc:Work>
    </rdf:RDF>
  </metadata>
  <g
     inkscape:label="Layer 1"
     inkscape:groupmode="layer"
     id="layer1"
     transform="translate(75.499292,-305.73837)">
    <g
       id="g3876"
       transform="matrix(1.0091379,0,0,1.1186926,-106.34533,-112.00223)">
      <path
         style="fill:#00138b;fill-opacity:1"
         d="m 30.825125,549.7999 c -0.238817,-0.6179 -0.328481,-40.55647 -0.199243,-88.75238 l 0.234971,-87.62894 77.014287,0 77.0143,0 0,88.52769 0,88.5277 -15.70772,0.24585 -15.70772,0.24585 -6.80353,-6.22074 c -4.31372,-3.9442 -8.40476,-6.80431 -11.17893,-7.81537 -6.90117,-2.51515 -6.81295,-2.35033 -6.1778,-11.54228 0.98191,-14.21028 -0.7975,-27.31288 -5.68631,-41.87081 -0.747,-2.22442 -1.56978,-5.62168 -1.8284,-7.54946 l -0.47023,-3.50504 10.16376,0.6342 c 5.59007,0.34881 11.8426,1.21831 13.89452,1.93222 4.82101,1.67734 7.07057,1.64206 7.75688,-0.12163 1.03231,-2.65281 -5.48535,-13.70026 -13.01512,-22.06068 -2.19997,-2.44265 -3.99993,-4.98728 -3.99993,-5.65474 0,-1.66456 5.80368,-6.69232 13.32647,-11.54479 7.09913,-4.57919 9.91593,-7.29539 9.03056,-8.70806 -1.03521,-1.65175 -7.77557,-4.64223 -12.20703,-5.41588 -2.3242,-0.40576 -6.68505,-1.22192 -9.69077,-1.81368 -3.00572,-0.59177 -7.37887,-0.82557 -9.71813,-0.51957 l -4.25318,0.55637 -6.91555,-8.03793 c -7.99225,-9.28942 -17.621271,-18.05726 -19.837241,-18.06311 -3.230599,-0.008 -4.39192,2.5282 -4.450652,9.7218 -0.03099,3.79565 -0.359333,9.88567 -0.729639,13.53338 -0.786722,7.74957 -2.020245,9.18143 -9.841106,11.42344 -7.497902,2.14945 -19.346237,8.53531 -21.079213,11.36101 -1.88233,3.06922 -0.883158,4.24601 4.172917,4.91476 4.996414,0.66086 18.777133,7.53705 19.173579,9.56708 0.171345,0.87734 -1.003537,4.09899 -2.61083,7.15922 -3.182331,6.05905 -7.2221,17.82371 -7.243919,21.09585 -0.02625,3.93541 2.005589,3.59046 13.20179,-2.2413 9.321956,-4.85551 17.388764,-6.85786 18.240244,-4.52759 1.31246,3.59181 2.07693,21.2648 1.35318,31.28274 -0.86517,11.97547 -4.38533,26.52685 -6.861439,28.36332 -0.743101,0.55114 -3.094398,1.23771 -5.225096,1.52569 -4.936179,0.66719 -13.372371,4.33803 -15.613578,6.79394 -0.949736,1.04073 -3.651525,3.11017 -6.00397,4.59877 l -4.277164,2.70655 -18.404895,0 c -13.884725,0 -18.511543,-0.27592 -18.839123,-1.12345 z"
         id="path3047"
         inkscape:connector-curvature="0" />
      <text
         transform="scale(0.99601435,1.0040016)"
         sodipodi:linespacing="125%"
         id="text3085"
         y="548.53418"
         x="182.31192"
         style="font-size:36.28934479px;font-style:normal;font-weight:normal;line-height:125%;letter-spacing:0px;word-spacing:0px;fill:#00138b;fill-opacity:1;stroke:none;font-family:Sans"
         xml:space="preserve"><tspan
           style="font-size:245.96110535px;font-weight:bold;fill:#00138b;fill-opacity:1;-inkscape-font-specification:Sans Bold"
           y="548.53418"
           x="182.31192"
           id="tspan3087"
           sodipodi:role="line">Pololu</tspan></text>
      <flowRoot
         transform="matrix(2.2659786,0,0,2.243142,-226.40318,-40.415667)"
         style="font-size:36px;font-style:normal;font-variant:normal;font-weight:bold;font-stretch:normal;text-align:start;line-height:125%;letter-spacing:0px;word-spacing:0px;writing-mode:lr-tb;text-anchor:start;fill:#00138b;fill-opacity:1;stroke:none;font-family:Sans;-inkscape-font-specification:Sans Bold"
         id="flowRoot3868"
         xml:space="preserve"><flowRegion
           id="flowRegion3870"><rect
             style="font-size:36px;font-style:normal;font-variant:normal;font-weight:bold;font-stretch:normal;text-align:start;line-height:125%;writing-mode:lr-tb;text-anchor:start;fill:#00138b;fill-opacity:1;font-family:Sans;-inkscape-font-specification:Sans Bold"
             y="267.57358"
             x="111.11678"
             height="51.51778"
             width="879.8429"
             id="rect3872" /></flowRegion><flowPara
           id="flowPara3874">Robotics &amp; Electronics</flowPara></flowRoot>    </g>
  </g>
</svg>
