<?xml version="1.0" encoding="UTF-8" standalone="no"?>
<!-- Created with Inkscape (http://www.inkscape.org/) -->

<svg
   xmlns:dc="http://purl.org/dc/elements/1.1/"
   xmlns:cc="http://creativecommons.org/ns#"
   xmlns:rdf="http://www.w3.org/1999/02/22-rdf-syntax-ns#"
   xmlns:svg="http://www.w3.org/2000/svg"
   xmlns="http://www.w3.org/2000/svg"
   xmlns:sodipodi="http://sodipodi.sourceforge.net/DTD/sodipodi-0.dtd"
   xmlns:inkscape="http://www.inkscape.org/namespaces/inkscape"
   width="850.16492"
   height="217.65776"
   id="svg2"
   version="1.1"
   inkscape:version="0.48.4 r9939"
   sodipodi:docname="ST Microelectronics.svg"
   inkscape:export-filename="C:\Users\Steve.EDWARDSHOME\SkyDrive\dprg\sponsors\ST Microelectronics.png"
   inkscape:export-xdpi="300"
   inkscape:export-ydpi="300">
  <defs
     id="defs4" />
  <sodipodi:namedview
     id="base"
     pagecolor="#ffffff"
     bordercolor="#666666"
     borderopacity="1.0"
     inkscape:pageopacity="0.0"
     inkscape:pageshadow="2"
     inkscape:zoom="0.7"
     inkscape:cx="392.04704"
     inkscape:cy="240.47195"
     inkscape:document-units="px"
     inkscape:current-layer="layer1"
     showgrid="false"
     fit-margin-top="0"
     fit-margin-left="0"
     fit-margin-right="0"
     fit-margin-bottom="0"
     inkscape:window-width="1536"
     inkscape:window-height="803"
     inkscape:window-x="-8"
     inkscape:window-y="-8"
     inkscape:window-maximized="1" />
  <metadata
     id="metadata7">
    <rdf:RDF>
      <cc:Work
         rdf:about="">
        <dc:format>image/svg+xml</dc:format>
        <dc:type
           rdf:resource="http://purl.org/dc/dcmitype/StillImage" />
        <dc:title></dc:title>
      </cc:Work>
    </rdf:RDF>
  </metadata>
  <g
     inkscape:label="Layer 1"
     inkscape:groupmode="layer"
     id="layer1"
     transform="translate(129.42184,-114.74755)">
    <g
       id="g3871">
      <g
         transform="translate(-705.71429,-654.28571)"
         id="g3822">
        <path
           inkscape:connector-curvature="0"
           id="path3017-1"
           d="m 740.27015,986.34103 c -0.96756,-0.2683 -1.7592,-0.7184 -1.7592,-1.0004 0,-0.2819 4.00542,-4.4114 8.90095,-9.1766 7.2108,-7.0189 9.63695,-10.1831 12.77707,-16.6641 l 3.87615,-8 0.0399,-14 c 0.0367,-12.8636 -0.18286,-14.5888 -2.70484,-21.25523 -3.70162,-9.7846 -4.68397,-11.0946 -14.46306,-19.2864 -12.8141,-10.7343 -40.68349,-35.6567 -44.25475,-39.5751 -3.74796,-4.1124 -4.51772,-7.1561 -2.82349,-11.1645 2.20572,-5.2184 3.64307,-5.3437 54.23351,-4.7284 84.2949,1.0251 96.21724,1.3238 97.33769,2.4384 2.64364,2.6298 -3.03056,18.4257 -17.44778,48.5712 -3.41951,7.15 -8.21137,19.075 -10.64857,26.50003 -2.43719,7.425 -4.845,14.4 -5.35067,15.5 -2.5649,5.5795 -12.46718,29.0365 -17.17108,40.6758 -1.2616,3.1217 -3.31188,6.9467 -4.55617,8.5 l -2.26237,2.8242 -25.98206,0.1644 c -14.29014,0.09 -26.77371,-0.055 -27.74126,-0.3233 z m 103.03873,-0.2953 c -3.45843,-1.5005 -3.2181,-2.8028 3.23766,-17.5458 0.72253,-1.65 1.64554,-4.125 2.05115,-5.5 0.40561,-1.375 1.11067,-2.9675 1.5668,-3.539 0.45613,-0.5715 2.17103,-4.6215 3.81088,-9 4.27595,-11.417 7.06643,-17.6972 17.3115,-38.96103 5.43318,-11.2766 9.08225,-20.4971 17.01744,-43 0.96974,-2.75 3.39978,-8.4134 5.40011,-12.5855 2.00033,-4.172 3.63697,-8.0254 3.63697,-8.5629 0,-0.5376 1.34238,-2.2567 2.98306,-3.8204 l 2.98306,-2.843 24.69738,0.701 c 13.58356,0.3856 25.40806,0.9723 26.2767,1.3039 2.77551,1.0595 1.89239,4.1176 -12.21857,42.3069 -2.50792,6.7874 -10.88495,25.6071 -15.35668,34.50003 -2.48905,4.95 -6.2928,14.1673 -8.45276,20.4828 -7.86668,23.0013 -14.27938,31.6681 -29.45687,39.8113 -9.65694,5.1812 -14.28094,6.2571 -29.02713,6.7543 -8.23718,0.2778 -15.14855,0.067 -16.4607,-0.5026 z m -264.63363,-39.927 c -4.29419,-1.2442 -3.07276,-6.8365 6.03235,-27.61883 0.48193,-1.1 3.42771,-7.85 6.54617,-15 3.11846,-7.15 7.16824,-15.7 8.99951,-19 4.31987,-7.7845 8.49109,-17.5888 15.10341,-35.5 7.4598,-20.2067 20.14354,-51.3321 22.2884,-54.6948 7.67217,-12.0283 18.89037,-20.0357 33.25852,-23.7394 5.34656,-1.3782 23.73477,-1.5548 159.31808,-1.5304 120.23867,0.022 153.64091,0.2945 154.9766,1.2661 1.57222,1.1436 1.3961,2.1487 -2.29912,13.118 -2.20091,6.5338 -4.59659,12.4542 -5.32349,13.1565 -1.0525,1.0169 -29.78374,1.4148 -141.05228,1.9536 l -139.73057,0.6765 -6.63674,2.2453 c -12.2006,4.1276 -23.31072,13.2955 -28.53745,23.5486 -9.17303,17.9945 -8.65374,39.7106 1.26244,52.7936 3.52227,4.6471 11.9187,12.4179 30.89598,28.5937 13.75638,11.7256 28.57718,26.47683 29.23959,29.10223 0.95224,3.7742 -0.24558,7.0489 -3.34244,9.1378 -2.63894,1.7801 -6.1327,1.8813 -70.63104,2.0462 -37.32013,0.095 -68.98569,-0.1542 -70.36792,-0.5547 z"
           style="fill:#3d88b2;fill-opacity:1" />
        <path
           style="fill:#006487;fill-opacity:1"
           d="m 601.70252,886.30861 c -0.11148,0.19834 -0.23144,0.4077 -0.34308,0.60329 -1.81812,3.18536 -5.85508,11.43835 -8.95115,18.33997 -3.09606,6.90162 -6.00878,13.41713 -6.48724,14.47892 -9.03974,20.06036 -10.25159,25.46437 -5.98823,26.66535 1.3723,0.38658 32.81049,0.63505 69.86265,0.54296 64.03521,-0.15914 67.49216,-0.27261 70.11215,-1.99085 3.07463,-2.0164 4.2514,-5.16493 3.306,-8.80801 -0.64068,-2.46883 -14.59653,-16.04472 -27.94506,-27.20831 -34.51536,-4.69042 -66.1866,-12.45356 -93.56604,-22.62332 z m 339.17696,0.57312 c -20.10337,7.35857 -42.49914,13.42424 -66.58788,17.94784 -1.23897,2.74798 -2.49879,5.3827 -3.8674,8.14439 -10.1715,20.52506 -12.93976,26.59464 -17.18501,37.61504 -1.628,4.22642 -3.32087,8.13573 -3.77378,8.68735 -0.45281,0.55163 -1.15673,2.08135 -1.55944,3.40858 -0.4027,1.32724 -1.30992,3.71626 -2.02731,5.30894 -6.4094,14.23077 -6.64593,15.47387 -3.21238,16.92224 1.30273,0.54953 8.16484,0.78088 16.34286,0.5128 14.64032,-0.47991 19.2308,-1.54445 28.81835,-6.54568 15.06847,-7.86027 21.4136,-16.22723 29.22384,-38.42948 2.14439,-6.09612 5.91857,-14.97965 8.38971,-19.7577 4.43967,-8.58405 12.76131,-26.74993 15.25121,-33.30152 0.0727,-0.19109 0.11528,-0.32354 0.18723,-0.5128 z M 826.0739,911.52607 c -17.46686,1.62929 -35.51961,2.50365 -54.0188,2.50365 -4.09463,0 -8.17531,-0.068 -12.22596,-0.15083 0.46359,1.08928 0.95198,2.27925 1.49705,3.68006 2.50387,6.43482 2.71866,8.095 2.68223,20.51181 l -0.0311,13.51366 -3.83621,7.7221 c -3.11757,6.25579 -5.53477,9.30258 -12.69379,16.07764 -4.86038,4.59967 -8.8264,8.59617 -8.8264,8.86834 0,0.27216 0.78596,0.70637 1.74657,0.96526 0.96061,0.2589 13.35208,0.3889 27.5396,0.30164 l 25.79304,-0.15082 2.24559,-2.7148 c 1.23536,-1.49936 3.26982,-5.19148 4.52236,-8.20472 4.67013,-11.23498 14.51372,-33.88846 17.06021,-39.27408 0.50201,-1.06179 2.88243,-7.79449 5.30207,-14.96156 0.83796,-2.48185 1.99867,-5.53553 3.24363,-8.68735 z"
           id="path3017"
           inkscape:connector-curvature="0" />
      </g>
      <g
         transform="translate(-27.857143,119.28571)"
         id="g3861">
        <flowRoot
           xml:space="preserve"
           id="flowRoot3826"
           style="font-size:36px;font-style:normal;font-variant:normal;font-weight:normal;font-stretch:normal;line-height:125%;letter-spacing:0px;word-spacing:0px;fill:#4ab1df;fill-opacity:1;stroke:none;font-family:Levenim MT;-inkscape-font-specification:Levenim MT"
           transform="matrix(1.6853574,0,0,1.7817398,-447.93627,-146.68329)"><flowRegion
             id="flowRegion3828"><rect
               id="rect3830"
               width="456.42856"
               height="48.57143"
               x="445"
               y="152.42857"
               style="font-style:normal;font-variant:normal;font-weight:normal;font-stretch:normal;fill:#4ab1df;fill-opacity:1;font-family:Levenim MT;-inkscape-font-specification:Levenim MT" /></flowRegion><flowPara
             id="flowPara3832"
             style="font-style:normal;font-variant:normal;font-weight:normal;font-stretch:normal;fill:#4ab1df;fill-opacity:1;font-family:Levenim MT;-inkscape-font-specification:Levenim MT">life.</flowPara></flowRoot>        <flowRoot
           xml:space="preserve"
           id="flowRoot3826-7"
           style="font-size:36px;font-style:normal;font-variant:normal;font-weight:normal;font-stretch:normal;line-height:125%;letter-spacing:0px;word-spacing:0px;fill:#2e4871;fill-opacity:1;stroke:none;font-family:Levenim MT;-inkscape-font-specification:Levenim MT"
           transform="matrix(1.6853574,0,0,1.7817398,-350.78605,-146.1968)"><flowRegion
             id="flowRegion3828-4"><rect
               id="rect3830-0"
               width="456.42856"
               height="48.57143"
               x="445"
               y="152.42857"
               style="font-style:normal;font-variant:normal;font-weight:normal;font-stretch:normal;fill:#2e4871;fill-opacity:1;font-family:Levenim MT;-inkscape-font-specification:Levenim MT" /></flowRegion><flowPara
             id="flowPara3832-9"
             style="font-style:normal;font-variant:normal;font-weight:normal;font-stretch:normal;fill:#2e4871;fill-opacity:1;font-family:Levenim MT;-inkscape-font-specification:Levenim MT">augmented</flowPara></flowRoot>      </g>
    </g>
  </g>
</svg>
